<svg width="631" height="380" viewBox="0 0 631 380" fill="none" xmlns="http://www.w3.org/2000/svg">
<g clip-path="url(#clip0_3080_112762)">
<rect x="0.5" width="630" height="380" rx="20" fill="#EDF1F7"/>
<g clip-path="url(#clip1_3080_112762)">
<path d="M0.5 0V380H630.5V0H0.5Z" fill="white"/>
<g opacity="0.2">
<path d="M0.5 0V216.506C4.7 216.037 8.9 214.63 12.6333 212.753C38.7667 199.383 38.0667 169.593 39 144.494C39.9333 118.926 42.5 94.5309 69.1 83.5062C94.0667 73.1852 121.833 75.5309 147.5 82.5679C233.367 106.259 257.633 56.2963 309.433 29.7901C361 3.75308 428.2 0 485.133 0H0.5Z" fill="#8FDFE3"/>
</g>
<g opacity="0.2">
<path d="M558.4 305.407C526.9 322.062 491.2 314.79 460.4 300.012C426.333 283.827 385.967 268.346 349.567 286.642C321.1 300.951 297.533 323 269.533 338.012C244.333 351.617 186.233 373.901 158.233 380H304.533H630.5V266C604.833 274.679 582.667 292.741 558.4 305.407Z" fill="#8FDFE3"/>
</g>
<path d="M0.5 0V85.3827C21.9667 72.4815 45.5333 61.6914 68.6333 59.8148C100.833 57 127.2 70.1358 158.7 64.2716C196.033 57.4691 220.767 37.5309 230.1 0H0.5Z" fill="url(#paint0_linear_3080_112762)"/>
<path d="M567.5 342.704C522.234 348.334 484.9 319.013 441.267 319.951C403 320.654 375.467 336.605 360.3 372.259C359.134 374.84 358.2 377.42 357.034 380.235H630.5V321.827C608.8 332.383 588.5 340.124 567.5 342.704Z" fill="url(#paint1_linear_3080_112762)"/>
<path d="M86.6002 292.272L87.7668 291.099C88.0002 290.864 88.0002 290.395 87.7668 290.395L84.9668 287.58C84.7335 287.346 84.5002 287.346 84.2668 287.58C83.8002 288.049 83.3335 288.518 82.8668 288.988L86.6002 292.741C86.3668 292.272 86.6002 292.272 86.6002 292.272ZM97.1002 299.543L94.3002 296.728C94.0668 296.494 93.6002 296.494 93.6002 296.728L92.9002 297.432L92.2002 298.136L91.9668 298.37L95.7002 302.123C96.1668 301.654 96.6335 301.185 97.1002 300.716C97.3335 300.247 97.3335 299.778 97.1002 299.543ZM89.4002 298.605C88.7002 298.136 88.2335 297.432 87.5335 296.963C87.0668 296.494 86.3668 295.79 85.9002 295.086C85.4335 294.617 85.4335 293.914 85.6668 293.21L81.9335 289.457C81.0002 290.395 81.2335 292.741 82.1668 294.617C82.6335 295.556 83.1002 296.259 83.5668 296.963C84.0335 297.667 84.7335 298.37 85.4335 299.074C86.1335 299.778 86.8335 300.247 87.5335 300.951C88.2335 301.42 89.1668 302.123 89.8668 302.358C91.9668 303.296 94.0668 303.531 95.0002 302.593L91.2668 298.839C90.5668 299.074 89.8668 299.074 89.4002 298.605Z" fill="white"/>
<g opacity="0.2">
<path d="M399.267 0C401.133 21.1111 412.333 34.0123 427.967 42.4568C455.967 57.4691 489.8 52.5432 518.267 65.2099C525.267 68.4938 530.867 72.4815 535.3 77.4074C557 101.333 548.133 142.852 535.067 171C518.967 205.247 503.567 245.827 521.767 282.42C536 311.037 557.933 334.728 572.867 362.876C575.433 367.568 578.233 373.432 581.033 380.235H630.5V0H399.267Z" fill="#8FDFE3"/>
</g>
<g opacity="0.2">
<path d="M225.433 363.58C221.7 356.778 217.733 349.037 212.833 342C208.4 335.667 203.5 329.802 196.967 326.049C182.033 316.667 161.967 316.901 144 316.198C118.567 315.259 94.3 312.679 83.3333 285.938C73.0667 260.84 75.4 232.926 82.4 207.123C106.2 121.037 56.5 96.642 30.3667 44.3333C23.3667 30.4938 18 15.4815 13.8 0H0.5V380H234.3C230.333 373.432 226.367 365.222 225.433 363.58Z" fill="#8FDFE3"/>
</g>
<path d="M60 286.407C57.2 254.037 70.2667 227.531 64.4333 195.864C57.6667 158.099 37.8333 133.469 0.5 124.086V380H101.767C82.8667 352.556 62.8 319.012 60 286.407Z" fill="url(#paint2_linear_3080_112762)"/>
<path d="M556.067 0C567.034 21.8148 574.5 42.2222 577.067 63.3333C582.667 108.84 553.5 146.37 554.434 190.235C554.667 207.827 558.167 223.074 565.4 235.975C566.567 238.321 568.2 240.432 569.6 242.543C579.867 256.852 595.267 266.704 610.434 274.444C614.867 276.79 619.534 278.901 623.967 281.012C626.3 281.951 628.4 282.889 630.5 283.593V0H556.067Z" fill="url(#paint3_linear_3080_112762)"/>
</g>
</g>
<defs>
<linearGradient id="paint0_linear_3080_112762" x1="-9.61192" y1="85.3827" x2="230.1" y2="85.3827" gradientUnits="userSpaceOnUse">
<stop stop-color="#9FC3F9"/>
<stop offset="1" stop-color="#83DBE0"/>
</linearGradient>
<linearGradient id="paint1_linear_3080_112762" x1="344.99" y1="380.235" x2="630.5" y2="380.235" gradientUnits="userSpaceOnUse">
<stop stop-color="#9FC3F9"/>
<stop offset="1" stop-color="#83DBE0"/>
</linearGradient>
<linearGradient id="paint2_linear_3080_112762" x1="-3.95993" y1="380" x2="101.767" y2="380" gradientUnits="userSpaceOnUse">
<stop stop-color="#9FC3F9"/>
<stop offset="1" stop-color="#83DBE0"/>
</linearGradient>
<linearGradient id="paint3_linear_3080_112762" x1="551.061" y1="283.593" x2="630.5" y2="283.593" gradientUnits="userSpaceOnUse">
<stop stop-color="#9FC3F9"/>
<stop offset="1" stop-color="#83DBE0"/>
</linearGradient>
<clipPath id="clip0_3080_112762">
<rect x="0.5" width="630" height="380" rx="20" fill="white"/>
</clipPath>
<clipPath id="clip1_3080_112762">
<rect width="630" height="380" fill="white" transform="translate(0.5)"/>
</clipPath>
</defs>
</svg>
