<svg width="265" height="67" viewBox="0 0 265 67" fill="none" xmlns="http://www.w3.org/2000/svg">
<path fill-rule="evenodd" clip-rule="evenodd" d="M23.1136 46.5826C23.1136 46.5826 16.9639 38.0154 22.6284 28.9811C28.2929 19.9468 40.8131 21.6557 43.6807 24.4013L57.6837 22.8064C57.6837 22.8064 59.9317 22.3097 59.5172 20.382C59.1026 18.4544 56.9138 6.64264 56.9138 6.64264C56.9138 6.64264 41.7401 -4.31243 23.6875 1.91473C23.6875 1.91473 9.33836 6.85909 3.91528 17.6045C4.19945 21.376 5.01375 25.0885 6.33414 28.6325C8.70062 22.8702 13.8845 13.6604 23.872 9.58191C38.9432 3.42994 51.0033 11.5232 51.0033 11.5232C51.0033 11.5232 51.7026 15.8205 51.7504 16.4038C51.7982 16.9871 50.8052 17.0873 50.8052 17.0873L46.0768 17.6205C31.1468 9.94875 21.0591 18.5068 16.8546 24.0778C14.4881 27.2198 12.6865 33.3673 11.5636 38.1293C14.5746 41.9414 18.5644 44.8633 23.1067 46.5826H23.1136Z" fill="#9FC3F9"/>
<path fill-rule="evenodd" clip-rule="evenodd" d="M20.3349 39.6743C19.2166 38.5829 19.4968 38.5646 18.5903 37.3456C18.0368 36.6006 17.2237 35.7735 16.7203 35.1082C15.5411 33.528 14.4507 31.8834 13.4542 30.182C11.4935 27.7116 9.84779 25.0068 8.55495 22.1298L5.15898 16.176C3.49858 17.4315 1.17538 22.1298 1.80856 24.4652C5.79672 39.189 26.726 62.1062 44.2069 50.7911C47.8033 48.4648 49.6118 46.3184 49.3476 43.6685C44.5759 37.7125 43.9154 46.102 35.3492 47.2435C27.6872 48.2665 23.1888 43.37 20.3349 39.6743Z" fill="#83DBE0"/>
<path fill-rule="evenodd" clip-rule="evenodd" d="M25.0997 59.2261C13.0008 55.6899 5.79661 45.1837 0 35.3519C0.785788 49.5994 10.0216 61.3064 23.5691 65.5262C30.919 67.8161 39.8451 67.3695 46.5323 64.3391C51.1013 62.2702 60.164 56.9043 59.9977 51.363L53.1079 51.9919C51.969 52.582 42.1456 64.2092 25.0928 59.2261H25.0997Z" fill="#83DBE0"/>
<path fill-rule="evenodd" clip-rule="evenodd" d="M51.8278 23.4675L57.6837 22.7839C57.6837 22.7839 59.9317 22.2872 59.5172 20.3596C59.3281 19.471 58.761 16.4861 58.203 13.524C55.8889 16.9418 51.8256 23.4583 51.8256 23.4583L51.8278 23.4675Z" fill="#202A44"/>
<path d="M87.184 53.4673C82.608 53.4673 79.008 52.3633 76.384 50.1553C73.792 47.9473 72.416 44.7153 72.256 40.4593C72.224 39.5953 72.208 38.1873 72.208 36.2353C72.208 34.2513 72.224 32.8113 72.256 31.9153C72.416 27.7553 73.808 24.5553 76.432 22.3153C79.088 20.0433 82.672 18.9073 87.184 18.9073C90.032 18.9073 92.576 19.3713 94.816 20.2993C97.088 21.2273 98.88 22.5713 100.192 24.3313C101.504 26.0913 102.192 28.1713 102.256 30.5713C102.256 30.8593 102.144 31.0993 101.92 31.2913C101.728 31.4833 101.488 31.5793 101.2 31.5793H94.384C93.936 31.5793 93.6 31.4993 93.376 31.3393C93.184 31.1473 93.008 30.8113 92.848 30.3313C92.4 28.7633 91.712 27.6753 90.784 27.0673C89.888 26.4273 88.688 26.1073 87.184 26.1073C83.568 26.1073 81.696 28.1233 81.568 32.1553C81.536 33.0193 81.52 34.3473 81.52 36.1393C81.52 37.9313 81.536 39.2913 81.568 40.2193C81.696 44.2513 83.568 46.2673 87.184 46.2673C88.656 46.2673 89.856 45.9473 90.784 45.3073C91.744 44.6673 92.432 43.5793 92.848 42.0433C92.976 41.5633 93.152 41.2433 93.376 41.0833C93.6 40.8913 93.936 40.7953 94.384 40.7953H101.2C101.488 40.7953 101.728 40.8913 101.92 41.0833C102.144 41.2753 102.256 41.5153 102.256 41.8033C102.192 44.2033 101.504 46.2833 100.192 48.0433C98.88 49.8033 97.088 51.1473 94.816 52.0753C92.576 53.0033 90.032 53.4673 87.184 53.4673ZM107.203 51.6913V23.6113C107.203 22.3953 107.619 21.4033 108.451 20.6353C109.283 19.8353 110.259 19.4353 111.379 19.4353H130.963C131.315 19.4353 131.603 19.5633 131.827 19.8193C132.083 20.0433 132.211 20.3313 132.211 20.6833V25.4353C132.211 25.7873 132.099 26.0593 131.875 26.2513C131.651 26.4753 131.347 26.5873 130.963 26.5873H113.251C114.019 26.5873 114.643 26.8593 115.123 27.4033C115.635 27.9473 115.891 28.5393 115.891 29.1793V31.1953C115.891 31.5473 116.003 31.8833 116.227 32.2033C116.483 32.5233 116.851 32.6833 117.331 32.6833H127.795C128.147 32.6833 128.435 32.8113 128.659 33.0673C128.915 33.2913 129.043 33.5793 129.043 33.9313V38.2513C129.043 38.6033 128.915 38.9073 128.659 39.1633C128.435 39.3873 128.147 39.4993 127.795 39.4993H113.251C113.987 39.4993 114.611 39.7553 115.123 40.2673C115.635 40.7793 115.891 41.3553 115.891 41.9953V44.2513C115.891 44.6033 116.019 44.9393 116.275 45.2593C116.531 45.5793 116.883 45.7393 117.331 45.7393H131.347C132.179 45.7393 132.595 46.1553 132.595 46.9873V51.6913C132.595 52.0753 132.467 52.3793 132.211 52.6033C131.987 52.7953 131.699 52.8913 131.347 52.8913H108.403C108.083 52.8913 107.795 52.7793 107.539 52.5553C107.315 52.2993 107.203 52.0113 107.203 51.6913ZM151.392 35.3713C151.968 35.3713 152.512 35.4833 153.024 35.7073C153.536 35.9313 153.984 36.1873 154.368 36.4753C154.784 36.7633 155.136 37.0513 155.424 37.3393C155.712 37.6273 155.92 37.8353 156.048 37.9633L166.08 51.2593C166.208 51.3553 166.272 51.5473 166.272 51.8353C166.272 52.0913 166.176 52.3153 165.984 52.5073C165.76 52.6993 165.504 52.7953 165.216 52.7953H157.728C156.896 52.7953 156.256 52.4913 155.808 51.8833C154.304 49.9313 152.944 48.1713 151.728 46.6033C150.992 45.6753 150.4 44.9233 149.952 44.3473C149.504 43.7713 149.088 43.2433 148.704 42.7633C148.32 42.2513 147.984 41.8193 147.696 41.4673C147.44 41.1153 147.28 40.8913 147.216 40.7953C147.088 40.7313 147.008 40.6993 146.976 40.6993C146.816 40.6993 146.736 40.7953 146.736 40.9873V51.6433C146.736 51.9953 146.624 52.2833 146.4 52.5073C146.176 52.6993 145.888 52.7953 145.536 52.7953H139.152C138.832 52.7953 138.544 52.6993 138.288 52.5073C138.064 52.2833 137.952 51.9953 137.952 51.6433V23.5153C137.952 22.4593 138.336 21.5153 139.104 20.6833C139.872 19.8193 140.864 19.3873 142.08 19.3873H145.536C145.888 19.3873 146.176 19.4993 146.4 19.7233C146.624 19.9473 146.736 20.2353 146.736 20.5873V30.2833C146.736 30.4433 146.816 30.5233 146.976 30.5233C147.072 30.5233 147.152 30.4913 147.216 30.4273L155.184 20.2993C155.568 19.6913 156.192 19.3873 157.056 19.3873H164.352C164.608 19.3873 164.848 19.4833 165.072 19.6753C165.264 19.8673 165.36 20.0913 165.36 20.3473C165.36 20.6673 165.296 20.8593 165.168 20.9233C163.536 23.0673 162.064 24.9873 160.752 26.6833C159.952 27.7073 159.328 28.5233 158.88 29.1313C158.432 29.7393 158 30.2993 157.584 30.8113C157.2 31.3233 156.864 31.7553 156.576 32.1073C156.32 32.4273 156.176 32.6033 156.144 32.6353C156.08 32.7313 155.92 32.9393 155.664 33.2593C155.408 33.5473 155.072 33.8513 154.656 34.1713C154.24 34.4913 153.744 34.7793 153.168 35.0353C152.624 35.2593 152.032 35.3713 151.392 35.3713ZM169.635 40.2673V23.6593C169.635 22.9873 169.763 22.3953 170.019 21.8833C170.307 21.3713 170.643 20.9393 171.027 20.5873C171.443 20.2353 171.891 19.9793 172.371 19.8193C172.883 19.6273 173.363 19.5313 173.811 19.5313H177.411C177.763 19.5313 178.051 19.6433 178.275 19.8673C178.531 20.0913 178.659 20.3793 178.659 20.7313V40.1713C178.659 41.9953 179.075 43.4353 179.907 44.4913C180.771 45.5473 182.163 46.0753 184.083 46.0753C186.003 46.0753 187.379 45.5473 188.211 44.4913C189.075 43.4353 189.507 41.9953 189.507 40.1713V23.6113C189.507 22.9393 189.635 22.3473 189.891 21.8353C190.179 21.3233 190.531 20.8913 190.947 20.5393C191.363 20.1873 191.811 19.9313 192.291 19.7713C192.771 19.6113 193.234 19.5313 193.682 19.5313H197.283C197.635 19.5313 197.923 19.6433 198.147 19.8673C198.403 20.0913 198.531 20.3793 198.531 20.7313V40.2673C198.531 42.5393 198.179 44.5073 197.475 46.1713C196.803 47.8033 195.843 49.1633 194.595 50.2513C193.347 51.3073 191.827 52.1073 190.035 52.6513C188.275 53.1633 186.307 53.4193 184.131 53.4193C181.987 53.4193 180.019 53.1633 178.227 52.6513C176.435 52.1393 174.899 51.3553 173.618 50.2993C172.371 49.2113 171.395 47.8353 170.691 46.1713C169.987 44.5073 169.635 42.5393 169.635 40.2673ZM204.844 51.6433V23.5153C204.844 22.9073 204.956 22.3473 205.18 21.8353C205.436 21.3233 205.756 20.8913 206.14 20.5393C206.556 20.1873 207.004 19.9153 207.484 19.7233C207.996 19.4993 208.508 19.3873 209.02 19.3873H212.764C213.116 19.3873 213.388 19.4993 213.58 19.7233C213.804 19.9473 213.916 20.2353 213.916 20.5873V43.8673C213.916 44.1233 214.044 44.4433 214.3 44.8273C214.556 45.1793 214.924 45.3553 215.404 45.3553H228.268C228.62 45.3553 228.908 45.4673 229.132 45.6913C229.388 45.8833 229.516 46.1713 229.516 46.5553V51.6433C229.516 52.0273 229.388 52.3313 229.132 52.5553C228.908 52.7473 228.62 52.8433 228.268 52.8433H206.044C205.756 52.8433 205.484 52.7153 205.228 52.4593C204.972 52.2033 204.844 51.9313 204.844 51.6433ZM230.938 52.6993C230.746 52.4433 230.65 52.2033 230.65 51.9793C230.65 51.7553 230.666 51.6113 230.698 51.5473L241.834 20.9233C242.186 19.9953 242.826 19.5313 243.754 19.5313H251.194C252.122 19.5313 252.762 19.9953 253.114 20.9233L264.25 51.5473C264.282 51.6113 264.298 51.7553 264.298 51.9793C264.298 52.2353 264.186 52.4753 263.962 52.6993C263.77 52.8913 263.546 52.9873 263.29 52.9873H257.098C256.298 52.9873 255.754 52.6353 255.466 51.9313L252.97 45.1633C251.818 45.6113 250.65 45.9793 249.466 46.2673C248.282 46.5553 247.13 46.7793 246.01 46.9393C244.922 47.0673 243.898 47.1633 242.938 47.2273C241.978 47.2593 241.146 47.2753 240.442 47.2753C239.994 47.2753 239.61 47.2753 239.29 47.2753C239.002 47.2753 238.778 47.2593 238.618 47.2273C239.194 47.3233 239.658 47.6433 240.01 48.1873C240.394 48.7313 240.442 49.3713 240.154 50.1073L239.482 51.9313C239.194 52.6353 238.65 52.9873 237.85 52.9873H231.658C231.434 52.9873 231.194 52.8913 230.938 52.6993ZM243.13 40.4113C244.026 40.3473 244.954 40.2353 245.914 40.0753C246.746 39.9473 247.61 39.7713 248.506 39.5473C249.434 39.2913 250.314 38.9393 251.146 38.4913L247.45 27.9313L243.13 40.4113Z" fill="#202A44"/>
</svg>
