<svg width="670" height="460" viewBox="0 0 670 460" fill="none" xmlns="http://www.w3.org/2000/svg">
<path d="M679.865 436.357H80.7848C69.8049 422.621 61.0017 409.416 54.9195 400.732C32.5114 363.357 27.5177 315.067 59.9133 279.243C97.2868 235.635 184.502 210.715 259.265 221.619C341.503 234.074 406.294 260.555 488.532 230.963C550.826 207.604 598.236 157.753 665.46 143.738C670.187 142.777 674.996 141.982 679.865 141.357V436.357Z" fill="url(#paint0_linear_5009_67320)"/>
<g clip-path="url(#clip0_5009_67320)">
<path d="M85.9573 444.964C105.62 425.301 105.62 393.422 85.9573 373.759C66.2946 354.096 34.4152 354.096 14.7525 373.759C-4.91013 393.422 -4.91012 425.301 14.7525 444.964C34.4152 464.626 66.2947 464.626 85.9573 444.964Z" fill="#FF473E"/>
<g style="mix-blend-mode:soft-light">
<path d="M56.0737 419.178C69.9201 416.069 78.6251 402.325 75.5167 388.478C72.4083 374.632 58.6637 365.927 44.8173 369.035C30.9708 372.144 22.2659 385.888 25.3743 399.735C28.4827 413.581 42.2273 422.286 56.0737 419.178Z" fill="#F3C941"/>
</g>
<path d="M77.1129 366.706C88.8913 374.097 86.4617 399.179 71.6805 422.736C56.8993 446.293 35.3738 459.397 23.576 452.007" stroke="#F8F8F8" stroke-width="0.801742" stroke-miterlimit="10"/>
<path d="M94.7609 433.319C87.3703 445.097 62.288 442.663 38.7314 427.887C15.1747 413.11 2.06988 391.58 9.46048 379.782" stroke="#F8F8F8" stroke-width="0.801742" stroke-miterlimit="10"/>
<path d="M4.84436 430.909C4.84436 430.909 23.8529 443.742 38.7313 427.887C53.6097 412.032 54.1053 372.173 31.2678 362.776" stroke="#F8F8F8" stroke-width="0.801742" stroke-miterlimit="10"/>
<path d="M100.694 410.691C100.694 410.691 79.0711 436.191 70.6067 455.457" stroke="#F8F8F8" stroke-width="0.801742" stroke-miterlimit="10"/>
</g>
<g clip-path="url(#clip1_5009_67320)">
<path d="M206.672 213.322C188.845 206.842 169.174 207.708 151.985 215.73C134.795 223.751 121.496 238.272 115.011 256.097L249.481 304.983C255.959 287.151 255.089 267.477 247.06 250.287C239.032 233.097 224.504 219.8 206.672 213.322V213.322ZM152.876 249.753C158.742 233.643 179.541 226.371 199.317 233.565C219.094 240.759 230.388 259.675 224.521 275.785L152.876 249.753Z" fill="#F3C941"/>
<path d="M204.734 218.666L206.673 213.322" stroke="#062E42" stroke-width="0.277762" stroke-miterlimit="10"/>
<path d="M241.626 252.797L247.037 250.275" stroke="#062E42" stroke-width="0.277762" stroke-miterlimit="10"/>
<path d="M152.009 215.733L154.537 221.144" stroke="#062E42" stroke-width="0.277762" stroke-miterlimit="10"/>
<path d="M170.819 215.827L169.808 210.111" stroke="#062E42" stroke-width="0.277762" stroke-miterlimit="10"/>
<path d="M246.592 269.141L252.653 268.069" stroke="#062E42" stroke-width="0.277762" stroke-miterlimit="10"/>
<path d="M219.966 226.605L223.233 221.933" stroke="#062E42" stroke-width="0.277762" stroke-miterlimit="10"/>
<path d="M123.672 239.531L128.899 243.192" stroke="#062E42" stroke-width="0.277762" stroke-miterlimit="10"/>
<path d="M140.226 230.482L136.271 225.766" stroke="#062E42" stroke-width="0.277762" stroke-miterlimit="10"/>
<path d="M232.554 238.27L236.999 234.537" stroke="#062E42" stroke-width="0.277762" stroke-miterlimit="10"/>
<path d="M187.957 214.972L188.451 209.289" stroke="#062E42" stroke-width="0.277762" stroke-miterlimit="10"/>
<path d="M247.12 286.162L253.475 286.718" stroke="#062E42" stroke-width="0.277762" stroke-miterlimit="10"/>
<path d="M212.406 222.021L215.011 216.966" stroke="#062E42" stroke-width="0.277762" stroke-miterlimit="10"/>
<path d="M118.705 247.759L124.499 250.748" stroke="#062E42" stroke-width="0.277762" stroke-miterlimit="10"/>
<path d="M244.581 260.592L250.348 258.747" stroke="#062E42" stroke-width="0.277762" stroke-miterlimit="10"/>
<path d="M160.481 212.417L162.275 218.027" stroke="#062E42" stroke-width="0.277762" stroke-miterlimit="10"/>
<path d="M179.119 214.838L178.846 209.105" stroke="#062E42" stroke-width="0.277762" stroke-miterlimit="10"/>
<path d="M247.415 277.413L253.664 277.113" stroke="#062E42" stroke-width="0.277762" stroke-miterlimit="10"/>
<path d="M226.477 231.86L230.343 227.61" stroke="#062E42" stroke-width="0.277762" stroke-miterlimit="10"/>
<path d="M129.349 232.426L133.982 236.643" stroke="#062E42" stroke-width="0.277762" stroke-miterlimit="10"/>
<path d="M146.876 225.477L143.598 220.372" stroke="#062E42" stroke-width="0.277762" stroke-miterlimit="10"/>
<path d="M237.448 245.042L242.393 241.859" stroke="#062E42" stroke-width="0.277762" stroke-miterlimit="10"/>
<path d="M196.24 216.211L197.445 210.655" stroke="#062E42" stroke-width="0.277762" stroke-miterlimit="10"/>
<path d="M245.754 294.328L252.114 295.712" stroke="#062E42" stroke-width="0.277762" stroke-miterlimit="10"/>
<path d="M208.689 220.249L210.972 215.044" stroke="#062E42" stroke-width="0.277762" stroke-miterlimit="10"/>
<path d="M116.778 251.798L122.799 254.442" stroke="#062E42" stroke-width="0.277762" stroke-miterlimit="10"/>
<path d="M243.254 256.714L248.853 254.525" stroke="#062E42" stroke-width="0.277762" stroke-miterlimit="10"/>
<path d="M156.264 213.911L158.414 219.427" stroke="#062E42" stroke-width="0.277762" stroke-miterlimit="10"/>
<path d="M175.024 215.194L174.385 209.455" stroke="#062E42" stroke-width="0.277762" stroke-miterlimit="10"/>
<path d="M247.148 273.335L253.314 272.652" stroke="#062E42" stroke-width="0.277762" stroke-miterlimit="10"/>
<path d="M223.36 229.171L226.938 224.71" stroke="#062E42" stroke-width="0.277762" stroke-miterlimit="10"/>
<path d="M126.444 235.832L131.382 239.787" stroke="#062E42" stroke-width="0.277762" stroke-miterlimit="10"/>
<path d="M143.526 227.827L139.91 222.91" stroke="#062E42" stroke-width="0.277762" stroke-miterlimit="10"/>
<path d="M235.154 241.632L239.859 238.176" stroke="#062E42" stroke-width="0.277762" stroke-miterlimit="10"/>
<path d="M192.184 215.466L193.045 209.844" stroke="#062E42" stroke-width="0.277762" stroke-miterlimit="10"/>
<path d="M246.559 290.34L252.925 291.312" stroke="#062E42" stroke-width="0.277762" stroke-miterlimit="10"/>
<path d="M216.122 224.099L219.05 219.222" stroke="#062E42" stroke-width="0.277762" stroke-miterlimit="10"/>
<path d="M120.955 243.715L126.483 247.037" stroke="#062E42" stroke-width="0.277762" stroke-miterlimit="10"/>
<path d="M245.698 264.675L251.614 263.197" stroke="#062E42" stroke-width="0.277762" stroke-miterlimit="10"/>
<path d="M164.93 211.15L166.347 216.816" stroke="#062E42" stroke-width="0.277762" stroke-miterlimit="10"/>
<path d="M183.374 214.755L183.474 209.033" stroke="#062E42" stroke-width="0.277762" stroke-miterlimit="10"/>
<path d="M247.42 281.629L253.736 281.74" stroke="#062E42" stroke-width="0.277762" stroke-miterlimit="10"/>
<path d="M229.516 234.843L233.66 230.832" stroke="#062E42" stroke-width="0.277762" stroke-miterlimit="10"/>
<path d="M132.571 229.104L136.876 233.565" stroke="#062E42" stroke-width="0.277762" stroke-miterlimit="10"/>
<path d="M150.481 223.255L147.57 218" stroke="#062E42" stroke-width="0.277762" stroke-miterlimit="10"/>
<path d="M239.593 248.703L244.77 245.831" stroke="#062E42" stroke-width="0.277762" stroke-miterlimit="10"/>
<path d="M200.367 217.25L201.934 211.783" stroke="#062E42" stroke-width="0.277762" stroke-miterlimit="10"/>
<path d="M244.665 298.389L250.981 300.2" stroke="#062E42" stroke-width="0.277762" stroke-miterlimit="10"/>
</g>
<g clip-path="url(#clip2_5009_67320)">
<path d="M478.945 194.377L494.495 161.497L501.845 196.337L473.785 173.217L510.335 175.767L478.945 194.377Z" fill="#00BAA2"/>
<path d="M209.025 224.087L224.575 191.217L231.925 226.047L203.865 202.927L240.415 205.477L209.025 224.087Z" fill="#00BAA2"/>
<path d="M407.095 175.137L418.525 156.667L420.555 177.827L405.455 162.237L426.965 166.187L407.095 175.137Z" fill="#F8F8F8"/>
<path d="M453.515 399.827L464.935 381.357L466.975 402.527L451.865 386.927L473.385 390.877L453.515 399.827Z" fill="#F8F8F8"/>
<path d="M127.265 400.617L138.695 382.147L140.725 403.307L125.625 387.707L147.135 391.667L127.265 400.617Z" fill="#F8F8F8"/>
<path d="M239.515 344.827L250.935 326.357L252.965 347.527L237.865 331.927L259.385 335.887L239.515 344.827Z" fill="#F8F8F8"/>
<path d="M116.515 166.827L127.935 148.357L129.965 169.517L114.865 153.927L136.385 157.877L116.515 166.827Z" fill="#F8F8F8"/>
</g>
<path d="M374.428 152.92C373.254 157.805 372.692 162.821 372.756 167.849C372.756 167.849 366.632 174.921 354.945 172.394C343.258 169.867 343.438 163.271 343.438 163.271C343.438 163.271 344.343 156.503 345.481 150.134L374.428 152.92Z" fill="#FFCACE"/>
<path d="M356.182 161.468C353.894 161.098 351.704 160.258 349.746 159C347.789 157.743 346.104 156.093 344.795 154.153C345.007 152.832 345.242 151.466 345.481 150.111L374.428 152.92C374.428 152.92 373.884 155.032 373.415 158.14C369.035 160.457 362.758 162.696 356.182 161.468Z" fill="#FF9E99"/>
<path d="M406.814 76.235C417.035 69.9372 430.852 70.5177 441.569 60.4987C452.286 50.4797 454.351 42.219 454.351 42.219C454.351 42.219 458.268 44.4307 463.204 49.407C462.229 51.862 460.131 55.8431 455.74 60.4268C455.74 60.4268 460.507 59.0058 466.272 52.7467C472.265 59.7633 478.857 70.5786 481.652 86.0162C481.652 86.0162 472.483 100.343 457.037 99.9389C441.591 99.5353 424.82 90.5392 413.221 92.9776C401.621 95.416 398.652 99.8892 398.652 99.8892L394.479 91.164C394.479 91.164 396.592 82.4996 406.814 76.235Z" fill="#FF911A"/>
<path d="M477.598 71.6788C477.598 71.6788 466.048 83.8432 446.396 84.8772C426.743 85.9111 411.749 78.5075 396.233 94.8298" stroke="#F3C941" stroke-width="0.259875" stroke-miterlimit="10"/>
<path d="M475.038 65.9727C475.038 65.9727 465.481 82.0849 447.219 84.7003" stroke="#F3C941" stroke-width="0.259875" stroke-miterlimit="10"/>
<path d="M438.218 63.2081C425.828 73.9902 416.686 74.2666 406.933 80.8299C397.181 87.3931 395.203 92.6736 395.203 92.6736" stroke="#F3C941" stroke-width="0.259875" stroke-miterlimit="10"/>
<path d="M475.746 92.6015C462.305 101.487 442.244 90.8377 426.52 90.517C410.796 90.1963 404.928 95.5597 404.928 95.5597" stroke="#F3C941" stroke-width="0.259875" stroke-miterlimit="10"/>
<path d="M335.01 61.3723C336.987 49.407 346.451 39.1724 345.972 24.3871C345.492 9.60189 340.687 2.6295 340.687 2.6295C340.687 2.6295 344.904 1.07024 351.85 0.533902C353.044 2.88937 354.645 7.09713 355.196 13.4724C355.196 13.4724 357.25 8.87756 356.345 0.35697C365.504 0.329324 377.872 2.33645 391.215 10.2765C391.215 10.2765 395.911 26.6818 385.521 38.2821C375.131 49.8825 357.479 56.8826 351.703 67.3882C345.928 77.8938 347.345 83.1023 347.345 83.1023L338.082 80.6086C338.082 80.6086 333.026 73.3376 335.01 61.3723Z" fill="#FF911A"/>
<path d="M377.877 4.02844C377.877 4.02844 379.397 20.8484 367.335 36.6511C355.272 52.4537 339.951 59.1109 341.989 81.6924" stroke="#F3C941" stroke-width="0.259875" stroke-miterlimit="10"/>
<path d="M371.944 2.26453C371.944 2.26453 377.724 20.1351 367.743 35.8769" stroke="#F3C941" stroke-width="0.259875" stroke-miterlimit="10"/>
<path d="M345.83 28.7552C345.781 45.3154 340.016 52.5311 338.54 64.2973C337.063 76.0636 339.706 81.051 339.706 81.051" stroke="#F3C941" stroke-width="0.259875" stroke-miterlimit="10"/>
<path d="M392.272 19.1178C390.12 35.2522 369.073 43.7119 358.557 55.5777C348.042 67.4435 348.205 75.4831 348.205 75.4831" stroke="#F3C941" stroke-width="0.259875" stroke-miterlimit="10"/>
<path d="M375.72 72.9174C375.72 72.9174 388.213 72.4751 397.867 83.7658C407.522 95.0566 407.707 118.827 396.565 136.847L327.861 120.701C327.861 120.701 329.196 107.984 331.877 100.873L326.973 99.9279C326.973 99.9279 329.409 84.175 340.943 75.4166C352.477 66.6583 363.412 66.3929 375.72 72.9174Z" fill="#FF911A"/>
<path d="M333.783 110.892C333.783 110.892 332.797 103.931 326.156 105.623C319.514 107.315 316.894 126.634 334.628 131.163L333.783 110.892Z" fill="#FFCACE"/>
<path d="M321.318 117.605C322.135 123.134 325.927 128.934 334.644 131.163L333.783 110.892C333.783 110.892 324.854 107.824 321.318 117.605Z" fill="#FF9E99"/>
<path d="M372.941 78.0874C399.703 83.8433 402.171 110.931 394.32 132.401C386.469 153.871 368.446 157.344 350.902 152.345C333.359 147.347 327.921 126.667 331.659 109.289C335.505 91.4129 345.655 72.2153 372.941 78.0874Z" fill="#FFCACE"/>
<path d="M361.412 106.646C361.301 111.387 360.493 116.086 359.015 120.585C359.015 120.585 355.604 117.82 353.839 119.651C352.074 121.481 354.144 127.303 355.953 129.089" stroke="#062E42" stroke-width="0.657982" stroke-miterlimit="10"/>
<path d="M374.058 116.764L372.173 124.245" stroke="#062E42" stroke-width="0.879152" stroke-miterlimit="10"/>
<path d="M348.162 110.572L346.277 118.053" stroke="#062E42" stroke-width="0.879152" stroke-miterlimit="10"/>
<path d="M364.665 136.034C364.665 136.034 362.665 141.099 355.304 139.993C347.944 138.887 346.473 132.457 346.473 132.457" stroke="#062E42" stroke-width="0.657982" stroke-miterlimit="10"/>
<path d="M386.524 125.241C389.828 125.861 392.847 127.546 395.132 130.046C394.876 130.836 394.587 131.622 394.32 132.401C391.013 141.447 385.897 147.303 379.768 150.648C372.886 148.436 368.484 141.95 369.732 135.365C371.099 128.21 378.613 123.687 386.524 125.241Z" fill="#FFA9CC"/>
<path d="M331.326 110.887C331.902 110.937 332.475 111.016 333.043 111.125C340.954 112.678 346.266 119.734 344.909 126.883C343.896 132.224 339.461 136.106 333.969 137.09C330.504 129.283 329.746 119.739 331.326 110.887Z" fill="#FFA9CC"/>
<path d="M396.805 123.903C396.805 123.903 400.15 117.743 405.762 121.691C411.374 125.639 407.118 144.671 388.959 142.558L396.805 123.903Z" fill="#FFCACE"/>
<path d="M406.138 134.652C403.452 139.528 397.889 143.603 388.959 142.564L396.805 123.903C396.805 123.903 406.23 124.229 406.138 134.652Z" fill="#FF9E99"/>
<path d="M340.937 75.4388C352.466 66.6805 363.412 66.3929 375.719 72.9396C375.719 72.9396 388.213 72.4972 397.867 83.788C399.076 85.2132 400.118 86.7754 400.973 88.4436C405.833 104.346 400.275 117.599 400.275 117.599C391.459 115.718 382.89 112.795 374.744 108.891C375.834 102.493 375.48 94.7083 375.48 94.7083C372.689 98.6093 370.308 102.796 368.375 107.199C368.375 107.199 339.978 102.438 331.871 100.879L326.967 99.9334C326.967 99.9334 329.403 84.1972 340.937 75.4388Z" fill="#F3C941"/>
<path d="M382.394 73.9072C382.394 73.9072 391.389 76.8875 392.893 90.3015C393.749 98.6232 392.907 107.035 390.419 115.012" stroke="#FF911A" stroke-width="0.259875" stroke-miterlimit="10"/>
<path d="M386.899 113.867C386.899 113.867 391.307 105.524 393.176 99.0432" stroke="#FF911A" stroke-width="0.259875" stroke-miterlimit="10"/>
<path d="M371.454 70.9325C371.454 70.9325 350.565 65.84 338.894 102.173" stroke="#FF911A" stroke-width="0.259875" stroke-miterlimit="10"/>
<path d="M359.113 68.4056C359.113 68.4056 340.959 69.9925 333.658 101.227" stroke="#FF911A" stroke-width="0.259875" stroke-miterlimit="10"/>
<path d="M383.936 108.957C384.372 107.697 384.105 106.193 383.778 104.949C383.373 103.44 382.597 102.06 381.522 100.94C379.572 98.8718 376.57 97.3458 373.693 98.1752C374.45 99.0764 375.398 99.8339 376.215 100.647C377.033 101.46 377.981 102.4 378.814 103.323C380.52 105.192 382.143 107.16 383.936 108.957Z" fill="#FF911A"/>
<path d="M356.781 94.7524C356.176 93.7461 354.945 93.0937 353.877 92.784C352.433 92.3704 350.899 92.407 349.475 92.8891C347.001 93.5968 344.806 96.1292 344.669 98.7722C345.599 98.4758 346.499 98.0945 347.361 97.6332C347.862 97.3789 348.412 97.1743 348.935 96.9642C349.48 96.713 350.041 96.4988 350.614 96.3228C352.646 95.6758 354.705 95.2058 356.781 94.7524Z" fill="#FF911A"/>
<path d="M487.111 266.502C487.111 266.502 501.479 268.775 502.912 269.742C504.345 270.71 504.399 272.938 501.419 272.817C498.439 272.695 487.798 271.893 487.798 271.893C487.798 271.893 495.344 274.249 496.919 274.984C498.493 275.72 498.499 278.263 495.611 277.826C492.723 277.389 480.639 275.017 480.639 275.017L487.111 266.502Z" fill="#FF9E99"/>
<path d="M470.063 268.913C475.059 267.315 482.213 264.661 486.359 263.655C490.506 262.648 499.436 263.152 501.615 263.439C503.794 263.727 502.906 266.508 500.253 266.989C497.599 267.47 488.811 267.835 486.425 269.969C484.038 272.103 482.644 275.46 484.561 277.157C486.479 278.855 490.25 279.922 491.524 281.669C492.799 283.416 494.859 285.119 494.565 286.231C494.27 287.342 492.723 288.221 490.658 287.126C488.272 285.855 483.412 283.687 480.257 282.15C477.103 280.613 468.391 281.542 464.718 279.192C458.404 275.145 432.453 253.26 427.288 248.405C422.123 243.55 395.688 224.955 392.495 220.073C389.302 215.191 387.047 182.165 401.937 193.079C416.827 203.994 428.563 221.693 433.494 227.361C438.425 233.028 470.063 268.913 470.063 268.913Z" fill="#FFCACE"/>
<path d="M257.01 152.799C260.018 150.023 262.193 146.443 263.287 142.47C264.878 136.133 268.599 130.615 268.512 128.337C268.468 127.159 267.804 127.082 267.144 127.06C265.047 126.988 262.949 127.945 261.544 131.367C260.732 133.336 258.476 137.731 257.561 136.847C256.645 135.962 258.106 119.96 258.291 114.73C258.476 109.499 255.218 110.577 254.668 114.177C254.117 117.776 253.491 128.293 252.221 128.193C250.952 128.094 248.914 117.356 248.571 113.11C248.228 108.863 245.171 107.663 245.166 112.794C245.16 117.926 246.381 128.956 245.373 129.554C244.365 130.151 241.15 120.397 239.815 116.941C238.481 113.486 235.517 113.27 236.29 117.666C237.064 122.062 239.559 130.643 239.761 133.098C239.963 135.553 235.489 128.536 233.817 126.109C232.144 123.682 229.97 124.185 231.365 128.348C232.76 132.512 242.518 153.313 243.504 155.89C249.421 171.371 255.441 192.836 259.353 201.473C263.265 210.109 264.878 213.499 269.972 213.637C275.066 213.775 321.154 203.972 331.402 198.885C341.651 193.798 341.035 169.691 330.858 169.724C320.68 169.757 279.643 191.288 276.826 189.524C274.009 187.76 257.01 152.799 257.01 152.799Z" fill="#FFCACE"/>
<path d="M309.19 325.876C309.19 325.876 321.519 366.156 337.319 390.07C353.12 413.984 359.424 418.524 363.826 417.429C368.228 416.334 388.256 385.11 397.971 352.886C397.971 352.886 417.519 361.346 424.635 364.586C431.751 367.826 439.389 362.999 432.987 352.93C426.585 342.861 412.943 331.582 408.29 328.049C403.637 324.515 397.867 321.662 390 332.804C382.132 343.945 362.649 365.775 361.832 364.619C361.014 363.463 346.576 303.206 346.576 303.206L309.19 325.876Z" fill="#FF9E99"/>
<path d="M367.286 359.803C373.824 352.947 384.617 340.379 389.984 332.782C397.851 321.64 403.604 324.488 408.274 328.026C412.943 331.565 426.575 342.856 432.971 352.908C439.368 362.96 431.734 367.837 424.619 364.564C417.503 361.29 397.955 352.864 397.955 352.864C395.112 362.132 391.629 371.186 387.532 379.957C387.951 376.192 387.575 372.144 385.538 368.451C380.585 359.471 370.974 359.449 367.286 359.803Z" fill="#FAFAFA"/>
<path d="M370.01 356.884C372.779 356.468 375.606 356.7 378.273 357.563C380.941 358.425 383.379 359.895 385.401 361.86C392.424 368.6 389.831 374.832 389.831 374.832" stroke="#37C0CB" stroke-width="0.348343" stroke-miterlimit="10"/>
<path d="M389.978 332.793C397.845 321.651 403.599 324.499 408.268 328.037C412.937 331.576 426.569 342.867 432.965 352.919C439.362 362.971 431.729 367.848 424.613 364.575C421.785 363.286 416.985 361.18 412.256 359.101C421.192 362.971 424.057 355.7 420.532 351.426C418.456 348.91 408.682 339.007 403.321 336.094C397.96 333.18 392.882 334.7 389.291 333.727C389.531 333.412 389.76 333.091 389.978 332.793Z" fill="#062E42"/>
<path d="M361.837 364.597C362.654 368.208 365.199 378.42 367.422 378.42" stroke="#062E42" stroke-width="0.657982" stroke-miterlimit="10"/>
<path d="M356.187 323.763C356.187 323.763 375.355 361.18 395.094 381.865C414.833 402.55 421.824 405.878 425.97 403.982C430.116 402.085 444.347 367.771 448.265 334.313C448.265 334.313 468.968 339.112 476.553 341.02C484.137 342.928 490.795 336.796 482.731 328.037C474.667 319.279 459.265 310.648 454.067 307.988C448.869 305.329 442.691 303.565 436.899 315.967C431.108 328.369 415.76 353.35 414.752 352.355C413.744 351.36 388.959 294.674 388.959 294.674L356.187 323.763Z" fill="#FFCACE"/>
<path d="M419.296 346.671C424.559 338.737 432.949 324.427 436.899 315.984C442.691 303.598 448.886 305.351 454.067 308.005C459.248 310.659 474.673 319.301 482.731 328.054C490.789 336.807 484.126 342.95 476.552 341.037C468.979 339.124 448.265 334.33 448.265 334.33C447.089 343.956 445.246 353.486 442.751 362.85C442.5 359.068 441.421 355.158 438.773 351.891C432.333 343.94 422.859 345.654 419.296 346.671Z" fill="#FAFAFA"/>
<path d="M421.475 343.298C424.126 342.388 426.948 342.104 429.723 342.468C432.499 342.833 435.157 343.835 437.493 345.399C445.584 350.768 444.118 357.37 444.118 357.37" stroke="#37C0CB" stroke-width="0.348343" stroke-miterlimit="10"/>
<path d="M436.899 315.984C442.691 303.598 448.886 305.351 454.067 308.005C459.248 310.659 474.673 319.301 482.731 328.054C490.789 336.807 484.126 342.95 476.552 341.037C473.545 340.279 468.467 339.063 463.433 337.88C472.913 340.091 474.449 332.4 470.232 328.834C467.748 326.733 456.393 318.748 450.618 316.852C444.843 314.955 440.103 317.36 436.398 317.045C436.567 316.686 436.736 316.326 436.899 315.984Z" fill="#062E42"/>
<path d="M414.752 352.372C416.19 355.778 420.489 365.393 422.668 364.956" stroke="#062E42" stroke-width="0.657982" stroke-miterlimit="10"/>
<path d="M285.653 256.356L286.503 255.715C288.747 254.747 294.713 255.134 303.937 259.331C314.834 264.307 340.986 278.429 357.468 277.395L358.181 277.34C314.763 281.089 282.771 266.652 285.653 256.356Z" fill="#062E42"/>
<path d="M301.785 359.04C298.724 358.354 295.896 357.591 293.319 356.828L292.877 359.493C283.07 356.314 277.42 352.952 277.42 352.952C281.038 306.954 298.435 266.895 298.435 266.895C298.522 258.601 300.015 245.928 300.015 245.928C300.015 245.928 342.512 252.906 377.926 248.919L378.166 266.652C378.166 266.652 386.529 278.092 395.884 284.677C405.239 291.262 417.269 299.965 421.9 309.559C421.9 309.559 418.086 323.658 402.183 337.951C401.725 337.089 401.18 336.103 400.548 334.993C394.978 339.908 388.866 344.152 382.334 347.639C382.53 348.883 382.705 350.094 382.879 351.288C376.795 354.482 370.456 357.149 363.93 359.261C359.286 360.781 354.555 362.011 349.764 362.944C349.687 361.91 349.606 360.771 349.513 359.51C344.098 360.611 338.612 361.319 333.097 361.628C333.043 362.734 332.986 363.839 332.928 364.945C322.362 365.392 311.786 364.372 301.491 361.915C301.573 361.064 301.671 360.118 301.785 359.04Z" fill="#086AA0"/>
<path d="M378.182 266.63C378.182 266.63 349.655 281.42 298.429 266.873" stroke="#062E42" stroke-width="0.348343" stroke-miterlimit="10"/>
<path d="M366.277 270.583C370.674 286.402 378.4 302.1 388.921 316.802C393.128 322.646 397.02 328.717 400.58 334.988C395.011 339.903 388.899 344.146 382.366 347.633C377.463 316.642 361.51 271.573 361.51 271.573L366.277 270.583Z" fill="#062E42"/>
<path d="M400.586 335.004C401.213 336.11 401.747 337.1 402.221 337.957C401.747 337.089 401.213 336.11 400.586 335.004Z" fill="#062E42"/>
<path d="M335.304 273.126L341.477 273.276C345.291 304.24 348.342 343.365 349.578 360.339C349.578 360.069 349.535 359.787 349.513 359.505C344.098 360.606 338.612 361.313 333.097 361.622V361.683C335.652 311.262 335.304 273.126 335.304 273.126Z" fill="#062E42"/>
<path d="M349.584 360.439C349.584 360.704 349.622 360.992 349.638 361.224C349.622 360.992 349.606 360.715 349.584 360.439Z" fill="#062E42"/>
<path d="M349.763 362.938C349.725 362.429 349.687 361.899 349.649 361.34C349.687 361.893 349.725 362.446 349.763 362.938Z" fill="#062E42"/>
<path d="M313.379 270.45L316.594 271.042C307.942 305.826 303.354 344.177 301.785 359.04C298.723 358.354 295.896 357.591 293.318 356.828L292.877 359.493C300.271 314.502 313.379 270.45 313.379 270.45Z" fill="#062E42"/>
<path d="M372.734 167.827C372.734 167.827 392.833 175.878 400.869 182.756C408.906 189.635 424.782 208.744 424.804 210.635C424.826 212.526 410.873 238.242 406.775 237.214C402.678 236.185 391.722 231.242 391.722 231.242C391.722 231.242 382.198 244.004 380.787 250.202C379.376 256.4 382.694 266.834 382.694 266.834C382.694 266.834 373.976 276.361 357.49 277.395C341.003 278.429 314.883 264.279 303.959 259.331C293.035 254.382 286.688 254.73 285.653 256.356C293.006 242.138 298.925 227.204 303.322 211.779C303.322 211.779 295.149 212.946 294.06 211.906C292.97 210.867 289.979 184.022 292.06 181.307C294.141 178.593 314.328 163.735 320.146 162.956C325.426 162.254 337.527 162.53 343.444 163.249L372.734 167.827Z" fill="#B3E0E3"/>
<path d="M391.721 231.242C396.532 222.849 405.402 198.476 400.891 182.756" stroke="#37C0CB" stroke-width="0.348343" stroke-miterlimit="10"/>
<path d="M303.322 211.779C305.501 203.154 309.097 177.935 320.141 162.956" stroke="#37C0CB" stroke-width="0.348343" stroke-miterlimit="10"/>
<path d="M421.224 205.128C423.404 207.975 424.848 210.076 424.853 210.657C424.88 212.537 410.911 238.253 406.803 237.236C405.374 236.844 403.969 236.373 402.591 235.826C409.989 226.386 416.244 216.079 421.224 205.128V205.128Z" fill="#062E42"/>
<path d="M299.148 212.255C296.969 212.421 294.599 212.459 294.054 211.934C292.964 210.894 289.973 184.05 292.054 181.335C292.643 180.567 294.664 178.841 297.399 176.735L299.148 212.255Z" fill="#062E42"/>
<path d="M354.819 165.024C354.819 165.024 363.112 165.798 373.023 161.236L374.657 168.607C374.657 168.607 371.203 177.924 358.11 184.553L353.25 173.063L342.898 181.142C342.898 181.142 338.54 170.951 341.602 163.055L344.5 156.078C344.5 156.078 350.134 163.382 354.819 165.024Z" fill="#062E42"/>
<path d="M345.334 194.395C345.339 194.845 345.476 195.282 345.727 195.653C345.977 196.024 346.33 196.31 346.741 196.477C347.153 196.644 347.603 196.684 348.037 196.591C348.47 196.498 348.866 196.276 349.176 195.955C349.485 195.633 349.693 195.225 349.774 194.784C349.856 194.342 349.806 193.885 349.631 193.472C349.457 193.059 349.166 192.708 348.794 192.463C348.423 192.218 347.989 192.09 347.546 192.095C346.953 192.104 346.387 192.351 345.972 192.782C345.558 193.213 345.328 193.793 345.334 194.395Z" fill="#062E42"/>
<path d="M341.847 211.248C341.854 211.699 341.992 212.137 342.245 212.508C342.498 212.878 342.853 213.164 343.266 213.329C343.68 213.494 344.132 213.531 344.565 213.434C344.999 213.338 345.395 213.113 345.702 212.788C346.01 212.462 346.215 212.052 346.292 211.608C346.369 211.164 346.314 210.707 346.134 210.295C345.955 209.883 345.658 209.535 345.283 209.294C344.908 209.053 344.47 208.931 344.027 208.943C343.437 208.957 342.877 209.208 342.469 209.64C342.06 210.072 341.837 210.65 341.847 211.248Z" fill="#062E42"/>
<defs>
<linearGradient id="paint0_linear_5009_67320" x1="356.699" y1="3.82289" x2="356.699" y2="512.1" gradientUnits="userSpaceOnUse">
<stop stop-color="#9FC3F9"/>
<stop offset="1" stop-color="#83DBE0"/>
</linearGradient>
<clipPath id="clip0_5009_67320">
<rect width="101" height="100.713" fill="white" transform="translate(0 359)"/>
</clipPath>
<clipPath id="clip1_5009_67320">
<rect width="138.798" height="96" fill="white" transform="translate(115 209)"/>
</clipPath>
<clipPath id="clip2_5009_67320">
<rect width="466" height="255" fill="white" transform="translate(114.865 148.357)"/>
</clipPath>
</defs>
</svg>
