<?xml version="1.0" standalone="no"?><svg xmlns="http://www.w3.org/2000/svg" viewBox="0 0 1440 320"><path fill="#A9C9FA" fill-opacity="1" d="M0,192L24,181.3C48,171,96,149,144,170.7C192,192,240,256,288,266.7C336,277,384,235,432,202.7C480,171,528,149,576,133.3C624,117,672,107,720,122.7C768,139,816,181,864,192C912,203,960,181,1008,154.7C1056,128,1104,96,1152,112C1200,128,1248,192,1296,192C1344,192,1392,128,1416,96L1440,64L1440,0L1416,0C1392,0,1344,0,1296,0C1248,0,1200,0,1152,0C1104,0,1056,0,1008,0C960,0,912,0,864,0C816,0,768,0,720,0C672,0,624,0,576,0C528,0,480,0,432,0C384,0,336,0,288,0C240,0,192,0,144,0C96,0,48,0,24,0L0,0Z"></path></svg>