<svg width="455" height="273" viewBox="0 0 455 273" fill="none" xmlns="http://www.w3.org/2000/svg">
<path d="M3.58866 273L156.06 272.263L196.703 272.252H210.167L250.887 272.242L436.92 272.194C436.92 272.194 479.471 221.382 434.018 173.121C386.892 123.085 363.979 163.836 349.493 93.4029C313.031 -83.8862 -47.4677 19.2955 47.088 170.161C81.1339 224.483 -19.9294 195.611 3.58866 273Z" fill="#EBF3FA"/>
<g opacity="0.5">
<path d="M273.149 272.278H64.1218V82.7364C64.1272 78.7127 65.6528 74.8554 68.3641 72.0103C71.0754 69.1651 74.7513 67.5642 78.5857 67.5586H261.009C264.228 67.5628 267.313 68.9065 269.589 71.295C271.865 73.6835 273.145 76.9217 273.149 80.2992V272.278ZM67.4094 268.828H269.861V80.2992C269.859 77.8365 268.925 75.4754 267.265 73.734C265.606 71.9926 263.356 71.013 261.009 71.0102H78.5857C75.6228 71.0135 72.7821 72.2499 70.6869 74.4482C68.5916 76.6465 67.4129 79.6272 67.4094 82.7364V268.828Z" fill="#C8DBF4"/>
<path d="M271.505 107.297H65.7657V111.134H271.505V107.297Z" fill="#C8DBF4"/>
<path d="M271.505 138.195H65.7657V142.032H271.505V138.195Z" fill="#C8DBF4"/>
<path d="M271.505 169.086H65.7657V172.923H271.505V169.086Z" fill="#C8DBF4"/>
<path d="M271.505 200.094H65.7657V203.931H271.505V200.094Z" fill="#C8DBF4"/>
<path d="M110.641 200.094H115.779V180.031H110.641V200.094Z" fill="#C8DBF4"/>
<path d="M104.99 200.094H109.442V178.289H104.99V200.094Z" fill="#C8DBF4"/>
<path d="M98.0303 199.742L102.449 200.309L104.97 178.665L100.552 178.098L98.0303 199.742Z" fill="#D2E3FC"/>
<path d="M254.195 200.094H259.332V180.031H254.195V200.094Z" fill="#C8DBF4"/>
<path d="M248.544 200.094H252.996V178.289H248.544V200.094Z" fill="#C8DBF4"/>
<path d="M241.581 199.753L245.999 200.32L248.521 178.676L244.102 178.109L241.581 199.753Z" fill="#D2E3FC"/>
<path d="M73.0042 200.094H94.0111V196.17H73.0042V200.094Z" fill="#95C0F4"/>
<path d="M70.4358 196.176H91.4427V193.477H70.4358V196.176Z" fill="#B7D3F3"/>
<path d="M72.5007 193.48H92.642V190.782H72.5007V193.48Z" fill="#D2E3FC"/>
<path d="M72.0121 190.773H90.2014V188.713H72.0121V190.773Z" fill="#C8DBF4"/>
<path d="M173.839 200.094H194.845V196.17H173.839V200.094Z" fill="#D2E3FC"/>
<path d="M171.27 196.176H192.277V193.477H171.27V196.176Z" fill="#B7D3F3"/>
<path d="M173.335 193.48H193.476V190.782H173.335V193.48Z" fill="#D2E3FC"/>
<path d="M172.847 190.773H191.036V188.713H172.847V190.773Z" fill="#C8DBF4"/>
<path d="M170.578 188.715H191.585V186.016H170.578V188.715Z" fill="#B7D3F3"/>
<path d="M172.645 186.016H192.786V183.317H172.645V186.016Z" fill="#D2E3FC"/>
<path d="M172.156 183.316H190.345V181.256H172.156V183.316Z" fill="#C8DBF4"/>
<path d="M158.092 200.008H161.672V178.289H158.092V200.008Z" fill="#C1D9F4"/>
<path d="M202.128 200.008H205.708V177.294H202.128V200.008Z" fill="#C1D9F4"/>
<path d="M212.976 200.008H216.557V178.289H212.976V200.008Z" fill="#C1D9F4"/>
<path d="M153.566 200.008H158.092V176.497H153.566V200.008Z" fill="#E4EEF9"/>
<path d="M217.301 200.008H221.826V176.497H217.301V200.008Z" fill="#E4EEF9"/>
<path d="M149.04 200.008H153.566V177.618H149.04V200.008Z" fill="#B7D3F3"/>
<path d="M195.508 199.996L199.966 199.18L195.803 174.151L191.345 174.967L195.508 199.996Z" fill="#B7D3F3"/>
<path d="M144.514 200.008H149.039V181.052H144.514V200.008Z" fill="#C8DBF4"/>
<path d="M223.224 200.008H227.75V181.052H223.224V200.008Z" fill="#C8DBF4"/>
<path d="M139.988 200.008H144.513V180.032H139.988V200.008Z" fill="#95C0F4"/>
<path d="M134.738 200.008H139.264V180.032H134.738V200.008Z" fill="#D2E3FC"/>
<path d="M228.38 200.008H232.905V180.032H228.38V200.008Z" fill="#D2E3FC"/>
<path d="M129.368 200.008H133.893V178.289H129.368V200.008Z" fill="#AFCDFB"/>
<path d="M207.989 200.008H212.515V178.289H207.989V200.008Z" fill="#AFCDFB"/>
<path d="M219.127 87.3281H213.988V107.391H219.127V87.3281Z" fill="#C8DBF4"/>
<path d="M224.775 85.5742H220.324V107.379H224.775V85.5742Z" fill="#C8DBF4"/>
<path d="M229.188 85.398L224.77 85.9648L227.291 107.609L231.71 107.042L229.188 85.398Z" fill="#D2E3FC"/>
<path d="M136.448 118.133H131.309V138.195H136.448V118.133Z" fill="#C8DBF4"/>
<path d="M142.097 116.391H137.645V138.196H142.097V116.391Z" fill="#C8DBF4"/>
<path d="M146.524 116.167L142.106 116.734L144.631 138.378L149.05 137.81L146.524 116.167Z" fill="#D2E3FC"/>
<path d="M75.5745 87.3281H70.436V107.391H75.5745V87.3281Z" fill="#C8DBF4"/>
<path d="M81.2233 85.5742H76.772V107.379H81.2233V85.5742Z" fill="#C8DBF4"/>
<path d="M85.6341 85.3941L81.2157 85.9609L83.7373 107.605L88.1557 107.038L85.6341 85.3941Z" fill="#D2E3FC"/>
<path d="M256.762 103.461H235.755V107.384H256.762V103.461Z" fill="#95C0F4"/>
<path d="M259.33 100.762H238.323V103.46H259.33V100.762Z" fill="#B7D3F3"/>
<path d="M257.267 98.0703H237.126V100.769H257.267V98.0703Z" fill="#D2E3FC"/>
<path d="M257.754 96.0039H239.564V98.0646H257.754V96.0039Z" fill="#C8DBF4"/>
<path d="M155.927 103.461H134.92V107.384H155.927V103.461Z" fill="#D2E3FC"/>
<path d="M158.496 100.762H137.489V103.46H158.496V100.762Z" fill="#B7D3F3"/>
<path d="M156.433 98.0703H136.291V100.769H156.433V98.0703Z" fill="#D2E3FC"/>
<path d="M156.919 96.0039H138.73V98.0646H156.919V96.0039Z" fill="#C8DBF4"/>
<path d="M159.188 93.3125H138.181V96.0112H159.188V93.3125Z" fill="#B7D3F3"/>
<path d="M157.123 90.6094H136.982V93.3081H157.123V90.6094Z" fill="#D2E3FC"/>
<path d="M157.611 88.5547H139.422V90.6154H157.611V88.5547Z" fill="#C8DBF4"/>
<path d="M171.676 85.5742H168.095V107.293H171.676V85.5742Z" fill="#C1D9F4"/>
<path d="M127.639 84.5859H124.059V107.3H127.639V84.5859Z" fill="#C1D9F4"/>
<path d="M116.792 85.5742H113.211V107.293H116.792V85.5742Z" fill="#C1D9F4"/>
<path d="M176.202 83.7891H171.676V107.3H176.202V83.7891Z" fill="#E4EEF9"/>
<path d="M112.465 83.7891H107.94V107.3H112.465V83.7891Z" fill="#E4EEF9"/>
<path d="M180.727 84.9102H176.202V107.3H180.727V84.9102Z" fill="#B7D3F3"/>
<path d="M138.434 82.2657L133.976 81.4492L129.813 106.478L134.271 107.294L138.434 82.2657Z" fill="#B7D3F3"/>
<path d="M221.681 134.273H200.675V138.197H221.681V134.273Z" fill="#D2E3FC"/>
<path d="M224.25 131.566H203.243V134.265H224.25V131.566Z" fill="#B7D3F3"/>
<path d="M222.185 128.875H202.044V131.574H222.185V128.875Z" fill="#D2E3FC"/>
<path d="M222.673 126.809H204.484V128.869H222.673V126.809Z" fill="#C8DBF4"/>
<path d="M224.942 124.117H203.935V126.816H224.942V124.117Z" fill="#B7D3F3"/>
<path d="M222.877 121.414H202.736V124.113H222.877V121.414Z" fill="#D2E3FC"/>
<path d="M223.364 119.359H205.175V121.42H223.364V119.359Z" fill="#C8DBF4"/>
<path d="M205.718 113.292L201.237 112.484L197.121 137.637L201.602 138.445L205.718 113.292Z" fill="#B7D3F3"/>
<path d="M185.252 88.3398H180.727V107.296H185.252V88.3398Z" fill="#C8DBF4"/>
<path d="M106.543 88.3398H102.018V107.296H106.543V88.3398Z" fill="#C8DBF4"/>
<path d="M189.78 87.3281H185.254V107.304H189.78V87.3281Z" fill="#95C0F4"/>
<path d="M195.028 87.3281H190.502V107.304H195.028V87.3281Z" fill="#D2E3FC"/>
<path d="M101.388 87.3281H96.8625V107.304H101.388V87.3281Z" fill="#D2E3FC"/>
<path d="M188.346 114.68H183.821V138.19H188.346V114.68Z" fill="#E4EEF9"/>
<path d="M182.424 119.234H177.899V138.191H182.424V119.234Z" fill="#C8DBF4"/>
<path d="M177.27 118.219H172.744V138.195H177.27V118.219Z" fill="#D2E3FC"/>
<path d="M162.143 118.219H157.618V138.195H162.143V118.219Z" fill="#D2E3FC"/>
<path d="M155.828 118.219H151.302V138.195H155.828V118.219Z" fill="#D2E3FC"/>
<path d="M84.5732 114.68H80.0477V138.19H84.5732V114.68Z" fill="#E4EEF9"/>
<path d="M89.0799 114.478L84.588 115.055L87.3107 138.391L91.8026 137.814L89.0799 114.478Z" fill="#E4EEF9"/>
<path d="M78.6515 119.234H74.1261V138.191H78.6515V119.234Z" fill="#C8DBF4"/>
<path d="M73.4961 118.219H68.9707V138.195H73.4961V118.219Z" fill="#D2E3FC"/>
<path d="M200.4 85.5742H195.875V107.293H200.4V85.5742Z" fill="#AFCDFB"/>
<path d="M151.215 147.363H147.634V169.082H151.215V147.363Z" fill="#C1D9F4"/>
<path d="M155.74 145.578H151.215V169.089H155.74V145.578Z" fill="#E4EEF9"/>
<path d="M160.268 146.695H155.742V169.086H160.268V146.695Z" fill="#B7D3F3"/>
<path d="M164.793 150.141H160.267V169.097H164.793V150.141Z" fill="#C8DBF4"/>
<path d="M169.318 149.117H164.793V169.093H169.318V149.117Z" fill="#95C0F4"/>
<path d="M174.568 149.117H170.042V169.093H174.568V149.117Z" fill="#D2E3FC"/>
<path d="M179.94 147.363H175.415V169.082H179.94V147.363Z" fill="#AFCDFB"/>
<path d="M234.108 116.477H229.582V138.195H234.108V116.477Z" fill="#AFCDFB"/>
<path d="M239.037 116.477H234.512V138.195H239.037V116.477Z" fill="#AFCDFB"/>
<path d="M121.777 85.5742H117.252V107.293H121.777V85.5742Z" fill="#AFCDFB"/>
<path d="M244.878 165.254H223.871V169.177H244.878V165.254Z" fill="#D2E3FC"/>
<path d="M247.446 162.562H226.439V165.261H247.446V162.562Z" fill="#B7D3F3"/>
<path d="M245.381 159.863H225.24V162.562H245.381V159.863Z" fill="#D2E3FC"/>
<path d="M245.87 157.805H227.681V159.865H245.87V157.805Z" fill="#C8DBF4"/>
<path d="M248.139 155.102H227.132V157.8H248.139V155.102Z" fill="#B7D3F3"/>
<path d="M246.074 152.402H225.932V155.101H246.074V152.402Z" fill="#D2E3FC"/>
<path d="M246.56 150.348H228.371V152.408H246.56V150.348Z" fill="#C8DBF4"/>
<path d="M216.59 146.387H213.01V169.1H216.59V146.387Z" fill="#C1D9F4"/>
<path d="M205.741 147.379H202.16V169.098H205.741V147.379Z" fill="#C1D9F4"/>
<path d="M201.414 145.582H196.888V169.093H201.414V145.582Z" fill="#E4EEF9"/>
<path d="M227.386 144.051L222.928 143.234L218.765 168.263L223.223 169.08L227.386 144.051Z" fill="#B7D3F3"/>
<path d="M195.492 150.141H190.967V169.097H195.492V150.141Z" fill="#C8DBF4"/>
<path d="M190.339 149.117H185.813V169.093H190.339V149.117Z" fill="#D2E3FC"/>
<path d="M142.722 145.582H138.196V169.093H142.722V145.582Z" fill="#E4EEF9"/>
<path d="M136.8 150.141H132.275V169.097H136.8V150.141Z" fill="#C8DBF4"/>
<path d="M131.645 149.117H127.119V169.093H131.645V149.117Z" fill="#D2E3FC"/>
<path d="M124.593 145.582H120.068V169.093H124.593V145.582Z" fill="#E4EEF9"/>
<path d="M118.671 150.141H114.146V169.097H118.671V150.141Z" fill="#C8DBF4"/>
<path d="M113.516 149.117H108.99V169.093H113.516V149.117Z" fill="#D2E3FC"/>
<path d="M210.727 147.379H206.202V169.098H210.727V147.379Z" fill="#AFCDFB"/>
</g>
<path d="M322.812 70.8398H296.246C295.021 70.8398 294.028 71.8819 294.028 73.1674V100.075C294.028 101.36 295.021 102.402 296.246 102.402H322.812C324.037 102.402 325.03 101.36 325.03 100.075V73.1674C325.03 71.8819 324.037 70.8398 322.812 70.8398Z" fill="#C0D8FB"/>
<path d="M321.66 72.207H297.396C296.277 72.207 295.37 73.1589 295.37 74.3331V98.9095C295.37 100.084 296.277 101.036 297.396 101.036H321.66C322.779 101.036 323.686 100.084 323.686 98.9095V74.3331C323.686 73.1589 322.779 72.207 321.66 72.207Z" fill="#DFEBFD"/>
<path d="M308.888 75.0874C308.888 74.9542 308.925 74.824 308.996 74.7133C309.066 74.6026 309.166 74.5163 309.284 74.4653C309.401 74.4144 309.53 74.401 309.654 74.427C309.779 74.453 309.893 74.5171 309.983 74.6113C310.073 74.7055 310.134 74.8254 310.159 74.9561C310.183 75.0867 310.171 75.2221 310.122 75.3451C310.073 75.4681 309.991 75.5733 309.886 75.6473C309.78 75.7213 309.656 75.7608 309.529 75.7608C309.359 75.7603 309.196 75.6892 309.076 75.563C308.956 75.4369 308.888 75.2659 308.888 75.0874Z" fill="#B7D3F3"/>
<path d="M314.07 76.0418C314.131 75.9253 314.224 75.8307 314.337 75.7698C314.45 75.7089 314.578 75.6845 314.704 75.6997C314.83 75.7149 314.949 75.769 315.046 75.8551C315.142 75.9413 315.213 76.0556 315.248 76.1837C315.282 76.3117 315.28 76.4478 315.242 76.5746C315.203 76.7014 315.129 76.8133 315.03 76.8961C314.93 76.9789 314.81 77.0289 314.683 77.0398C314.557 77.0506 314.43 77.0219 314.319 76.9572C314.245 76.9145 314.18 76.8568 314.128 76.7876C314.075 76.7184 314.036 76.6389 314.013 76.5539C313.99 76.4688 313.983 76.3797 313.993 76.2919C314.002 76.204 314.028 76.119 314.07 76.0418Z" fill="#B7D3F3"/>
<path d="M318.509 79.7399C318.616 79.6678 318.74 79.6306 318.867 79.6329C318.994 79.6352 319.118 79.6769 319.222 79.7527C319.326 79.8286 319.407 79.9352 319.453 80.059C319.5 80.1828 319.51 80.3184 319.483 80.4485C319.457 80.5786 319.394 80.6975 319.302 80.7901C319.211 80.8827 319.096 80.9448 318.971 80.9686C318.846 80.9925 318.718 80.9769 318.601 80.924C318.485 80.8711 318.386 80.7831 318.317 80.6712C318.271 80.5969 318.24 80.5138 318.225 80.4267C318.21 80.3396 318.211 80.2503 318.229 80.1638C318.247 80.0773 318.281 79.9953 318.329 79.9226C318.377 79.8498 318.438 79.7878 318.509 79.7399Z" fill="#B7D3F3"/>
<path d="M320.707 85.4688C320.834 85.4684 320.959 85.5077 321.065 85.5817C321.171 85.6556 321.254 85.761 321.303 85.8843C321.352 86.0076 321.365 86.1434 321.34 86.2745C321.315 86.4056 321.254 86.526 321.164 86.6206C321.074 86.7152 320.96 86.7797 320.835 86.8059C320.71 86.8321 320.581 86.8188 320.463 86.7678C320.345 86.7167 320.245 86.6302 320.174 86.5191C320.103 86.4081 320.065 86.2775 320.065 86.1439C320.065 85.9651 320.133 85.7937 320.253 85.6671C320.373 85.5406 320.537 85.4692 320.707 85.4688Z" fill="#B7D3F3"/>
<path d="M319.586 92.1114C319.675 92.2056 319.736 92.3256 319.761 92.4562C319.786 92.5868 319.773 92.7222 319.724 92.8452C319.676 92.9682 319.594 93.0733 319.488 93.1473C319.383 93.2213 319.259 93.2608 319.132 93.2608C319.005 93.2608 318.881 93.2213 318.775 93.1473C318.67 93.0733 318.587 92.9682 318.539 92.8452C318.49 92.7222 318.478 92.5868 318.502 92.4562C318.527 92.3256 318.588 92.2056 318.678 92.1114C318.737 92.0489 318.808 91.9992 318.886 91.9654C318.964 91.9315 319.047 91.9141 319.132 91.9141C319.216 91.9141 319.299 91.9315 319.377 91.9654C319.455 91.9992 319.526 92.0489 319.586 92.1114Z" fill="#B7D3F3"/>
<path d="M315.099 97.5147C315.453 97.5147 315.74 97.2132 315.74 96.8413C315.74 96.4694 315.453 96.168 315.099 96.168C314.744 96.168 314.457 96.4694 314.457 96.8413C314.457 97.2132 314.744 97.5147 315.099 97.5147Z" fill="#B7D3F3"/>
<path d="M308.888 98.5466C308.888 98.4135 308.926 98.2835 308.996 98.173C309.067 98.0625 309.168 97.9764 309.285 97.9258C309.402 97.8751 309.531 97.862 309.655 97.8882C309.78 97.9143 309.894 97.9786 309.984 98.0728C310.073 98.1671 310.134 98.2871 310.159 98.4176C310.183 98.5482 310.171 98.6835 310.122 98.8064C310.073 98.9294 309.991 99.0344 309.886 99.1083C309.78 99.1823 309.656 99.2217 309.529 99.2217C309.359 99.2212 309.196 99.1499 309.075 99.0233C308.955 98.8968 308.888 98.7253 308.888 98.5466Z" fill="#B7D3F3"/>
<path d="M304.968 76.0418C304.907 75.9253 304.814 75.8307 304.701 75.7698C304.588 75.7089 304.46 75.6845 304.334 75.6997C304.208 75.7149 304.089 75.769 303.992 75.8551C303.895 75.9413 303.825 76.0556 303.79 76.1837C303.755 76.3117 303.758 76.4478 303.796 76.5746C303.835 76.7014 303.909 76.8133 304.008 76.8961C304.108 76.9789 304.228 77.0289 304.355 77.0398C304.481 77.0506 304.608 77.0219 304.719 76.9572C304.793 76.9145 304.858 76.8568 304.91 76.7876C304.963 76.7184 305.002 76.6389 305.025 76.5539C305.048 76.4688 305.055 76.3797 305.045 76.2919C305.036 76.204 305.009 76.119 304.968 76.0418Z" fill="#B7D3F3"/>
<path d="M300.529 79.7399C300.422 79.6678 300.297 79.6306 300.171 79.6329C300.044 79.6352 299.92 79.6769 299.816 79.7527C299.712 79.8286 299.631 79.9352 299.585 80.059C299.538 80.1828 299.528 80.3184 299.554 80.4485C299.581 80.5786 299.644 80.6975 299.735 80.7901C299.827 80.8827 299.942 80.9448 300.067 80.9686C300.192 80.9925 300.32 80.9769 300.437 80.924C300.553 80.8711 300.652 80.7831 300.721 80.6712C300.767 80.5969 300.798 80.5138 300.813 80.4267C300.828 80.3396 300.827 80.2503 300.809 80.1638C300.791 80.0773 300.757 79.9953 300.709 79.9226C300.661 79.8498 300.6 79.7878 300.529 79.7399Z" fill="#B7D3F3"/>
<path d="M298.331 85.4688C298.203 85.4684 298.079 85.5077 297.973 85.5817C297.867 85.6556 297.784 85.761 297.735 85.8843C297.686 86.0076 297.673 86.1434 297.698 86.2745C297.722 86.4056 297.784 86.526 297.874 86.6206C297.963 86.7152 298.078 86.7797 298.203 86.8059C298.328 86.8321 298.457 86.8188 298.575 86.7678C298.693 86.7167 298.793 86.6302 298.864 86.5191C298.935 86.4081 298.972 86.2775 298.972 86.1439C298.972 85.9651 298.905 85.7937 298.785 85.6671C298.664 85.5406 298.501 85.4692 298.331 85.4688Z" fill="#B7D3F3"/>
<path d="M299.452 92.1123C299.363 92.2066 299.302 92.3266 299.278 92.4571C299.253 92.5877 299.266 92.7229 299.315 92.8458C299.363 92.9686 299.446 93.0736 299.551 93.1475C299.656 93.2213 299.78 93.2608 299.907 93.2608C300.034 93.2608 300.158 93.2213 300.263 93.1475C300.369 93.0736 300.451 92.9686 300.5 92.8458C300.548 92.7229 300.561 92.5877 300.537 92.4571C300.512 92.3266 300.451 92.2066 300.362 92.1123C300.302 92.0495 300.231 91.9996 300.153 91.9656C300.075 91.9316 299.992 91.9141 299.907 91.9141C299.823 91.9141 299.739 91.9316 299.661 91.9656C299.583 91.9996 299.512 92.0495 299.452 92.1123Z" fill="#B7D3F3"/>
<path d="M303.939 97.5147C304.294 97.5147 304.581 97.2132 304.581 96.8413C304.581 96.4694 304.294 96.168 303.939 96.168C303.585 96.168 303.298 96.4694 303.298 96.8413C303.298 97.2132 303.585 97.5147 303.939 97.5147Z" fill="#B7D3F3"/>
<path d="M309.356 86.1339C309.355 86.0003 309.393 85.8696 309.463 85.7584C309.534 85.6471 309.634 85.5603 309.752 85.5089C309.869 85.4576 309.999 85.4439 310.123 85.4698C310.248 85.4956 310.363 85.5598 310.453 85.6541C310.543 85.7485 310.605 85.8688 310.63 85.9998C310.655 86.1308 310.642 86.2666 310.594 86.3901C310.545 86.5136 310.462 86.6191 310.357 86.6934C310.251 86.7676 310.126 86.8073 309.999 86.8073C309.829 86.8073 309.665 86.7364 309.545 86.6102C309.424 86.4839 309.356 86.3127 309.356 86.1339Z" fill="#B7D3F3"/>
<path d="M310.087 77.7227H309.911V86.1422H310.087V77.7227Z" fill="#B7D3F3"/>
<path d="M314.012 82.418L309.758 85.9219L310.082 86.3556L314.336 82.8517L314.012 82.418Z" fill="#B7D3F3"/>
<path d="M357.205 251.9C357.205 251.9 386.582 222.578 394.827 229.395C403.071 236.212 357.205 251.9 357.205 251.9Z" fill="#CDE0FB"/>
<path d="M355.081 257.547C355.081 257.547 409.74 231.869 422.673 245.446C435.606 259.022 407.674 257.347 397.331 255.829C386.988 254.311 355.081 257.547 355.081 257.547Z" fill="#CDE0FB"/>
<path d="M352.786 251.271C352.786 251.271 353.043 249.827 353.394 247.713C354.078 243.59 355.117 236.92 355.299 233.446C355.575 228.19 359.602 224.457 364.024 229.809C368.447 235.16 354.487 249.829 354.487 249.829L352.786 251.271Z" fill="#CDE0FB"/>
<path d="M368.294 150.877C364.294 139.895 346.477 145.344 346.477 145.344C346.477 145.344 336.045 166.407 332.498 167.259C328.951 168.11 338.056 147.422 338.056 147.422C331.039 147.452 314.189 158.263 314.189 158.263C314.189 158.263 317.524 181.197 313.893 181.106C310.262 181.014 311.927 160.642 311.927 160.642C305.406 163.469 299.921 172.366 299.921 172.366C293.362 186.604 311.122 194.705 311.122 194.705C311.122 194.705 312.116 202.679 308.289 212.35C308.289 212.35 307.388 214.156 306.585 217.15L308.419 216.956C308.519 216.424 308.637 215.909 308.773 215.409V215.388C308.87 215.077 309.01 214.635 309.185 214.096C309.635 212.886 309.931 211.995 310.113 211.357C311.446 207.566 313.411 202.605 314.928 201.447C314.735 201.19 314.575 200.907 314.452 200.606L314.928 201.447C318.745 208.172 334.549 207.69 343.11 204.883C351.671 202.077 347.612 199.892 342.502 196.19C337.392 192.487 327.634 194.638 324.562 193.3C321.49 191.962 325.591 189.864 331.467 189.72C337.343 189.575 340.843 195.375 350.347 195.325C359.851 195.276 365.262 175.915 365.262 175.915C358.965 178.72 346.948 176.189 346.273 173.884C345.598 171.58 362.882 169.996 365.505 168.999C368.127 168.003 372.292 161.861 368.294 150.877Z" fill="#DFEBFD"/>
<path d="M81.1238 247.855C72.8931 237.293 88.3995 221.612 88.3995 221.612C88.3995 221.612 114.627 222.743 117.486 219.491C120.344 216.239 95.2424 213.929 95.2424 213.929C99.3181 206.533 119.412 194.968 119.412 194.968C119.412 194.968 139.493 211.722 141.5 207.832C143.508 203.942 123 193.95 123 193.95C129.475 188.692 141.175 188.027 141.175 188.027C158.62 189.314 156.146 212.752 156.146 212.752C156.146 212.752 163.22 218.408 174.711 219.938C174.711 219.938 176.963 220.03 180.299 220.907L179.055 222.732C178.486 222.531 177.925 222.358 177.37 222.214H177.36H177.337C176.981 222.137 176.478 222.038 175.858 221.903C174.438 221.681 173.413 221.479 172.697 221.302C168.293 220.523 162.398 219.737 160.412 220.672C160.277 220.319 160.098 219.987 159.88 219.684L160.412 220.672C164.661 228.584 155.08 245.002 147.444 252.429C139.808 259.855 140.057 254.305 139.454 246.773C138.851 239.241 146.543 230.171 147.033 226.154C147.523 222.137 143.144 225.258 139.623 231.38C136.101 237.502 139.646 244.55 134.11 254.56C128.574 264.57 106.907 259.106 106.907 259.106C113.231 254.07 117.736 239.914 115.914 237.871C114.092 235.828 102.596 253.171 100.132 255.368C97.6676 257.564 89.3544 258.415 81.1238 247.855Z" fill="#CDE0FB"/>
<path d="M149.77 201.527H233.41C235.25 201.527 237.073 201.908 238.773 202.647C240.473 203.386 242.018 204.469 243.32 205.835C244.621 207.2 245.653 208.821 246.357 210.606C247.062 212.39 247.424 214.302 247.424 216.233V229.267C247.424 233.256 245.914 237.082 243.226 239.902C240.538 242.723 236.893 244.307 233.092 244.307H149.77V201.527Z" fill="#FCECDB"/>
<path d="M320.246 219.123V225.565C320.265 228.802 319.656 232.01 318.455 234.992C316.168 240.562 311.912 244.307 307.041 244.307H147.154C146.097 244.307 145.239 243.089 145.239 241.591V240.628C145.239 239.127 146.097 237.909 147.154 237.909H241.885C242.765 237.915 243.625 237.643 244.355 237.128C245.085 236.614 245.651 235.88 245.978 235.023L245.988 234.992C246.946 232.383 247.431 229.61 247.418 226.814V218.632C247.42 217.171 247.287 215.713 247.022 214.279C247.022 214.256 247.022 214.231 247.01 214.208C246.665 212.431 245.744 210.834 244.404 209.689C243.064 208.544 241.387 207.921 239.659 207.927H147.154C146.097 207.927 145.239 206.709 145.239 205.207V204.245C145.239 202.743 146.097 201.527 147.154 201.527H307.847C313.509 201.527 318.289 206.916 319.767 214.279C320.087 215.871 320.247 217.495 320.246 219.123Z" fill="#B5453C"/>
<path d="M149.77 222.918L161.608 223.637L149.77 224.07V222.918Z" fill="#F4D2B8"/>
<path d="M149.77 229.629L177.934 230.348L149.77 230.781V229.629Z" fill="#F4D2B8"/>
<path d="M160.454 131.072H229.58C232.685 131.072 235.662 132.366 237.857 134.67C240.052 136.973 241.286 140.097 241.286 143.355V154.562C241.286 157.893 240.024 161.088 237.779 163.444C235.534 165.8 232.489 167.124 229.314 167.124H160.454V131.07V131.072Z" fill="#FCECDB"/>
<path d="M301.571 145.909V151.342C301.589 154.07 301.085 156.774 300.089 159.294C298.195 163.988 294.673 167.145 290.641 167.145H158.289C157.413 167.145 156.704 166.118 156.704 164.847V164.036C156.704 162.773 157.413 161.739 158.289 161.739H238.975C239.418 160.955 239.797 160.132 240.107 159.28C240.899 157.078 241.299 154.742 241.286 152.388V145.495C241.287 144.264 241.178 143.036 240.959 141.826C240.628 139.943 239.996 138.133 239.09 136.471H158.289C157.413 136.471 156.704 135.446 156.704 134.174V133.368C156.704 132.101 157.413 131.07 158.289 131.07H291.308C295.995 131.07 299.948 135.612 301.176 141.817C301.441 143.163 301.573 144.534 301.571 145.909Z" fill="#AFCDFB"/>
<path d="M160.454 149.105L170.253 149.712L160.454 150.077V149.105Z" fill="#F4D2B8"/>
<path d="M160.454 154.762L183.769 155.368L160.454 155.732V154.762Z" fill="#F4D2B8"/>
<path d="M263.94 272.281H168.923C165.412 272.281 162.045 270.818 159.562 268.213C157.079 265.608 155.685 262.074 155.685 258.39V257.284C155.685 253.824 156.995 250.506 159.326 248.06C161.657 245.613 164.819 244.239 168.116 244.239H263.946V272.281H263.94Z" fill="#2B478B"/>
<path d="M367.189 272.281H258.966C257.269 272.281 255.588 271.93 254.02 271.249C252.451 270.567 251.026 269.568 249.826 268.308C248.626 267.049 247.674 265.554 247.024 263.908C246.374 262.262 246.04 260.498 246.04 258.717V257.501C246.04 253.986 247.371 250.614 249.74 248.128C252.109 245.643 255.322 244.246 258.672 244.246H367.189V272.281Z" fill="#FCECDB"/>
<path d="M238.857 272.281H370.889C371.95 272.281 372.809 271.379 372.809 270.267V270.102C372.809 268.989 371.95 268.087 370.889 268.087H238.857C237.797 268.087 236.937 268.989 236.937 270.102V270.267C236.937 271.379 237.797 272.281 238.857 272.281Z" fill="#2B478B"/>
<path d="M238.857 248.43L370.889 248.43C371.95 248.43 372.809 247.528 372.809 246.415V246.251C372.809 245.138 371.95 244.236 370.889 244.236L238.857 244.236C237.797 244.236 236.937 245.138 236.937 246.251V246.415C236.937 247.528 237.797 248.43 238.857 248.43Z" fill="#2B478B"/>
<path d="M367.189 258.254L352.501 258.726L367.189 259.01V258.254Z" fill="#F4D2B8"/>
<path d="M367.189 251.797L332.245 252.267L367.189 252.552V251.797Z" fill="#F4D2B8"/>
<path d="M332.606 252.177C332.606 252.177 334.103 253.382 334.598 255.358C334.69 255.72 334.742 256.091 334.753 256.465C334.836 259.096 334.753 265.052 334.753 265.052L339.174 262.074L343.585 265.052V256.981C343.585 255.454 343.206 253.976 342.504 252.997C342.167 252.527 341.749 252.172 341.283 252.172L332.606 252.177Z" fill="#699DEE"/>
<path d="M332.606 252.177C332.606 252.177 334.103 253.382 334.598 255.358L343.459 255.475C343.459 255.475 343.11 252.647 341.283 252.172L332.606 252.177Z" fill="#568CDB"/>
<path d="M337.825 201.527H230.668C226.866 201.527 223.22 199.942 220.531 197.121C217.843 194.3 216.333 190.474 216.333 186.484V181.839C216.333 177.938 217.809 174.197 220.438 171.438C223.067 168.68 226.632 167.13 230.35 167.13H337.825V201.527Z" fill="#FCECDB"/>
<path d="M216.272 180.481V187.886C216.281 189.001 216.536 190.098 217.016 191.092C217.858 192.859 219.351 194.317 221.227 195.258C222.755 196.008 224.423 196.394 226.111 196.387H341.012C342.359 196.387 343.449 197.343 343.449 198.524V199.397C343.449 200.576 342.357 201.533 341.012 201.533H142.53C136.832 201.533 131.801 199.059 128.76 195.258C126.843 192.867 125.718 189.956 125.718 186.805V180.972C125.724 178.859 126.265 176.785 127.286 174.964C129.837 170.338 135.245 167.148 141.502 167.148H341.022C342.369 167.148 343.459 168.103 343.459 169.283V170.156C343.459 171.335 342.367 172.293 341.022 172.293H225.769C223.015 172.293 220.523 173.32 218.781 174.964C218.041 175.655 217.431 176.485 216.983 177.411C216.527 178.365 216.284 179.414 216.272 180.481Z" fill="#7EB2FC"/>
<path d="M337.823 184.328L323.095 184.906L337.823 185.254V184.328Z" fill="#F4D2B8"/>
<path d="M337.824 176.414L302.781 176.992L337.824 177.34V176.414Z" fill="#F4D2B8"/>
<path d="M303.143 176.879C303.143 176.879 305.455 177.969 306.221 179.763C306.36 180.079 306.441 180.419 306.46 180.765C306.588 183.148 306.46 188.541 306.46 188.541L313.288 185.845L320.099 188.541V181.232C320.102 180.537 319.954 179.85 319.664 179.225C319.375 178.6 318.953 178.053 318.43 177.626C317.898 177.164 317.234 176.901 316.544 176.879H303.143Z" fill="#F99746"/>
<path d="M303.143 176.879C303.143 176.879 305.455 177.969 306.221 179.763L319.904 179.869C319.904 179.869 319.366 177.303 316.544 176.879H303.143Z" fill="#ED7D2B"/>
<path d="M204.36 81.8398C204.36 81.8398 206.847 85.7015 208.265 93.8188C209.506 100.927 210.596 103.551 212.39 105.009C214.183 106.467 224.179 110.771 224.179 110.771L223.431 112.609C223.431 112.609 208.779 110.515 207.138 107.947C205.498 105.379 199.223 90.1993 199.708 86.7035C200.193 83.2078 204.36 81.8398 204.36 81.8398Z" fill="#F4A269"/>
<path d="M240.23 166.637C240.098 168.136 242.082 168.502 244.39 168.622C246.697 168.742 245.996 169.237 249.154 169.838C252.312 170.439 253.575 169.53 253.804 169.083C254.008 168.686 252.539 168.065 250.976 167.364L250.385 167.095C248.624 166.282 247.637 164.621 246.264 163.09C244.964 161.636 243.738 156.977 243.738 156.977L239.448 156.016C239.448 156.016 240.654 160.208 241.072 161.998C241.318 163.058 240.954 164.227 240.632 165.123C240.434 165.606 240.299 166.116 240.23 166.637Z" fill="#FFB27D"/>
<path d="M244.39 168.62C246.693 168.741 245.996 169.235 249.154 169.836C252.312 170.437 253.575 169.529 253.804 169.082C254.008 168.684 252.539 168.064 250.976 167.362L250.951 167.389C249.392 167.862 247.739 167.882 246.17 167.449C244.081 166.855 242.062 165.545 240.624 165.121C240.428 165.605 240.296 166.115 240.23 166.636C240.098 168.136 242.086 168.5 244.39 168.62Z" fill="#C65447"/>
<path d="M197.512 113.251C197.512 113.251 226.017 110.999 231.384 114.553C236.752 118.108 245.363 159.504 245.363 159.504C245.363 159.504 244.833 159.951 243.647 160.085C242.542 160.21 240.11 159.53 240.11 159.53C240.11 159.53 227.741 141.009 226.871 136.341C226 131.674 226.212 127.504 224.228 127.4C222.244 127.296 197.513 130.555 193.773 123.639C190.032 116.724 193.124 109.879 193.124 109.879L197.512 113.251Z" fill="#ED7D2B"/>
<path d="M229.321 171.44C229.19 172.938 231.174 173.303 233.483 173.423C235.792 173.543 235.089 174.04 238.246 174.639C241.402 175.238 242.668 174.333 242.897 173.884C243.099 173.488 241.632 172.866 240.068 172.164L239.477 171.896C237.717 171.085 236.73 169.422 235.357 167.891C234.057 166.436 232.831 161.778 232.831 161.778L228.541 160.816C228.541 160.816 229.745 165.01 230.163 166.799C230.409 167.859 230.047 169.029 229.725 169.925C229.527 170.409 229.391 170.918 229.321 171.44Z" fill="#FFB27D"/>
<path d="M233.483 173.419C235.785 173.54 235.089 174.036 238.246 174.635C241.402 175.234 242.668 174.33 242.897 173.881C243.099 173.485 241.633 172.863 240.068 172.161L240.044 172.189C238.485 172.661 236.833 172.682 235.263 172.249C233.175 171.654 231.155 170.344 229.717 169.922C229.522 170.406 229.389 170.915 229.321 171.436C229.19 172.935 231.179 173.299 233.483 173.419Z" fill="#C65447"/>
<path d="M191.928 115.117C191.928 115.117 217.25 116.376 222.481 120.147C227.713 123.918 234.776 165.634 234.776 165.634C234.776 165.634 234.229 166.059 233.038 166.145C231.93 166.225 229.528 165.438 229.528 165.438C229.528 165.438 217.855 146.425 217.158 141.726C216.46 137.027 216.821 132.877 214.849 132.684C212.876 132.492 188.036 134.745 184.555 127.683C181.074 120.621 191.928 115.117 191.928 115.117Z" fill="#F99746"/>
<path d="M203.27 58.0608C202.302 57.0782 200.961 56.6469 199.996 56.4419C200.25 56.3149 200.53 56.2577 200.811 56.2758C200.243 56.0249 198.778 56.2846 198.778 56.2846C191.39 50.7635 187.006 63.0835 186.458 66.0721C185.911 69.0606 184.909 73.3376 181.428 77.0419C172.501 86.5465 185.254 97.5428 185.254 97.5428C185.308 97.5994 191.654 83.3441 198.029 81.0537C199.859 79.3588 201.217 75.8613 201.321 75.5856C200.39 78.3974 199.528 79.8837 198.888 80.679C204.594 77.4625 205.833 60.6605 203.27 58.0608Z" fill="#163560"/>
<path d="M190.864 77.3993C192.433 77.2627 194.011 77.2627 195.58 77.3993C196.985 77.5559 198.363 77.9188 199.673 78.4774C201.904 79.4547 201.67 83.6026 196.978 82.8339C192.286 82.0651 190.536 78.6276 190.864 77.3993Z" fill="#FFB27D"/>
<path d="M199.475 80.4219C199.502 80.436 200.149 83.9883 197.077 83.8469C195.056 83.7533 190.723 81.1959 191.107 79.388C191.289 78.5291 192.809 76.2987 193.116 71.207L193.483 71.3095L199.644 73.0451C199.644 73.0451 199.371 75.0969 199.243 77.0374C199.135 78.6687 199.13 80.2221 199.475 80.4219Z" fill="#FFB27D"/>
<path d="M199.644 73.0402C199.644 73.0402 199.371 75.0921 199.243 77.0326C195.755 76.6791 194.121 73.2116 193.483 71.3047L199.644 73.0402Z" fill="#F4A269"/>
<path d="M192.902 70.1796C192.902 70.1796 191.844 66.7527 192.035 64.1194C192.169 62.2372 194.672 55.8042 200.825 58.4834C202.064 59.0168 203.175 59.8351 204.073 60.8781C205.22 62.2354 206.702 64.8953 203.043 70.1124L201.982 71.9222L192.902 70.1796Z" fill="#163560"/>
<path d="M199.809 76.0157C199.809 76.0157 191.75 73.9957 193.027 68.7485C194.303 63.5013 194.123 59.7069 199.322 60.7743C204.521 61.8418 205.03 64.1128 205.01 65.972C204.99 67.8312 201.938 76.4081 199.809 76.0157Z" fill="#FFB27D"/>
<path d="M203.007 61.6213C203.007 61.6213 199.302 67.1848 195.713 67.1866C192.124 67.1883 190.888 65.8469 190.888 65.8469C192.926 64.761 194.541 62.9654 195.457 60.7676C195.457 60.7676 202.066 58.2474 203.007 61.6213Z" fill="#163560"/>
<path d="M202.342 61.9884C202.342 61.9884 203.645 63.8035 203.72 65.2474C203.794 66.6913 203.302 69.489 204.088 69.6021C204.088 69.6021 206.766 65.8642 205.483 62.9976C204.124 59.9578 202.342 61.9884 202.342 61.9884Z" fill="#163560"/>
<path d="M208.973 113.698C208.299 114.539 206.212 114.797 203.977 115.183C202.219 115.487 200.371 115.868 199.058 116.68C196.075 118.516 186.329 124.728 183.472 124.445C182.366 124.336 182.573 122.118 183.243 119.173C184.299 114.525 186.509 108.069 186.509 105.263C186.509 103.73 186.996 100.104 187.644 95.9595C187.696 95.6255 187.75 95.2897 187.812 94.9486C189.096 86.8896 190.873 77.3867 190.873 77.3867C190.873 77.3867 192.855 81.9252 196.717 81.9252C200.579 81.9252 199.681 78.4648 199.681 78.4648C199.681 78.4648 203.206 78.8995 204.038 79.8398C204.87 80.78 206.982 84.8484 207.406 85.9582C207.406 85.9582 207.492 87.3721 204.161 88.0419C204.161 88.0419 204.973 91.8735 205.069 94.4273C205.139 96.3148 203.841 102.221 203.469 105.894C203.336 107.194 203.319 108.216 203.519 108.679C203.777 109.273 204.611 109.863 205.559 110.446C207.428 111.599 209.769 112.705 208.973 113.698Z" fill="#1C468A"/>
<path d="M205.545 110.451C207.683 114.276 199.748 115.426 198.435 116.236C195.452 118.074 186.329 124.736 183.472 124.454C182.366 124.344 182.573 122.126 183.243 119.182C184.299 114.534 186.509 108.078 186.509 105.271C186.509 103.739 186.996 100.112 187.644 95.9679L191.081 92.5039C191.081 92.5039 194.766 102.496 198.278 104.135C199.948 104.889 201.681 105.481 203.455 105.902C203.322 107.203 203.305 108.224 203.506 108.687C203.763 109.283 204.597 109.871 205.545 110.451Z" fill="#2C3A64"/>
<path d="M189.808 80.3879C189.808 80.3879 186.867 78.5146 184.024 82.0686C181.182 85.6227 186.045 111.028 190.256 112.334C194.935 113.783 208.971 113.709 208.971 113.709L208.385 111.922C208.385 111.922 193.801 106.991 193.203 106.184C192.605 105.376 191.302 80.7979 189.808 80.3879Z" fill="#FFB27D"/>
<path d="M190.864 77.3945C190.864 77.3945 184.826 77.9654 183.073 80.0455C181.32 82.1257 180.808 87.7776 180.808 87.7776C180.808 87.7776 186.125 92.2807 192.53 90.5328L190.864 77.3945Z" fill="#1C468A"/>
<path d="M228.339 104.56L228.915 99.0039L221.426 109.359C221.426 109.359 224.561 110.997 224.745 110.684C224.929 110.371 228.339 104.56 228.339 104.56Z" fill="#163560"/>
<path d="M217.132 104.562L210.214 115.647H221.833L228.339 104.562H217.132Z" fill="#1C468A"/>
<path d="M228.339 104.562L228.883 99.0586L224.969 104.198L228.339 104.562Z" fill="#EFDECE"/>
<path d="M210.569 115.087L210.039 114.689L216.914 103.969L217.133 104.571L210.569 115.087Z" fill="#EFDECE"/>
<path d="M216.914 103.969L227.859 104.292L228.339 104.571H217.133L216.914 103.969Z" fill="#FCECDB"/>
<path d="M214.628 113.454C214.38 113.429 214.13 113.429 213.882 113.454C214.724 113.046 215.566 112.602 215.566 112.602C215.566 112.602 215.192 112.199 213.756 112.735C213.6 112.791 213.434 112.811 213.271 112.791L215.292 111.84C214.933 111.501 213.968 111.771 213.217 112.061C212.953 112.163 212.67 112.193 212.392 112.149C212.115 112.104 211.853 111.987 211.63 111.807L211.608 111.789L211.708 111.777C212.887 111.6 213.181 110.893 212.856 110.971C212.531 111.049 210.559 111.202 210.559 111.202C209.668 111.149 207.903 111.863 207.903 111.863L208.89 113.774C208.89 113.774 211.728 114.329 212.467 114.088C212.526 114.069 212.597 114.042 212.676 114.011L215.256 113.834C215.256 113.834 215.196 113.528 214.628 113.454Z" fill="#FFB27D"/>
<path d="M314.427 188.109C314.427 188.109 329.318 194.917 332.02 194.793C334.721 194.67 351.388 189.47 351.388 189.47L350.963 192.475C350.963 192.475 338.11 200.233 333.616 200.673C329.192 201.106 314.064 196.506 312.604 195.536C311.144 194.565 310.174 189.087 314.427 188.109Z" fill="#ED985F"/>
<path d="M312.182 163.059C312.182 163.059 306.688 161.964 303.953 164.062C298.996 167.86 298.732 180.952 296.879 182.903C295.026 184.854 290.545 184.02 290.142 194.113C289.74 204.206 291.926 205.049 289.327 209.554C286.728 214.059 290.427 218.568 290.427 218.568C290.427 218.568 288.911 216.081 289.561 214.285C289.561 214.285 290.191 218.248 292.593 219.176C294.994 220.103 295.346 220.786 295.729 222.146C295.729 222.146 316.19 211.145 316.212 203.342C316.234 195.539 320.239 187.807 318.273 184.432C318.273 184.432 319.149 185.879 319.255 187.487C319.255 187.487 320.434 185.116 318.391 182.908C316.348 180.701 320.79 176.129 320.131 170.836C319.673 167.199 317.244 163.217 312.182 163.059Z" fill="#233862"/>
<path d="M316.229 195.535C314.92 196.487 313.281 197.272 311.222 197.77C303.506 199.642 300.549 192.797 299.432 188.1C300.239 187.632 301.13 187.345 302.048 187.257C302.605 187.188 303.191 187.142 303.678 187.117C304.544 186.421 305.836 183.57 306.12 179.145L306.484 179.247L312.564 180.993C312.564 180.993 312.286 183.022 312.15 184.94C312.044 186.44 312.028 187.873 312.298 188.225C312.773 188.333 313.058 188.402 313.058 188.402C314.329 190.668 315.391 193.056 316.229 195.535Z" fill="#FFB27D"/>
<path d="M312.574 180.996C312.574 180.996 312.294 183.023 312.158 184.943C308.714 184.589 307.105 181.138 306.492 179.25L312.574 180.996Z" fill="#ED985F"/>
<path d="M313.598 182.907C313.598 182.907 305.421 182.434 305.78 177.093C306.139 171.752 305.327 168.097 310.563 168.173C315.799 168.249 316.675 170.363 316.963 172.174C317.251 173.986 315.735 182.891 313.598 182.907Z" fill="#FFB27D"/>
<path d="M316.929 169.183C315.776 167.482 314.797 167.769 314.235 168.205C309.947 165.293 306.809 168.886 306.809 168.886C306.287 171.193 305.018 173.238 303.218 174.672C303.218 174.672 304.641 175.748 308.136 175.08C309.204 174.877 310.194 174.165 311.055 173.278C310.043 174.76 308.843 176.091 307.488 177.233C311.723 175.554 313.778 169.693 313.985 169.073C314.452 169.58 315.365 170.676 315.597 171.699C315.912 173.088 317.266 175.262 318.051 175.225C318.046 175.225 318.657 171.735 316.929 169.183Z" fill="#233862"/>
<path d="M297.108 212.992C296.37 209.03 293.962 193.198 296.37 188.108C297.234 186.279 300.628 186.113 304.352 186.274C305.51 187.059 309.925 190.026 311.739 189.655L311.84 189.63C312.693 189.406 313.019 188.776 312.303 188.234C313.686 188.136 315.076 188.225 316.437 188.499C317.731 188.755 321.219 190.65 321.219 190.65C321.219 190.65 319.462 193.979 316.872 195.13C317.313 199.264 316.658 201.089 312.569 210.64C309.115 218.713 313.035 225.98 313.035 225.98C313.035 225.98 292.7 243.137 292.588 234.402C292.503 227.825 298.053 218.056 297.108 212.992Z" fill="white"/>
<path d="M314.044 244.631C314.591 244.566 315.117 244.377 315.587 244.077C316.057 243.777 316.458 243.373 316.764 242.894L317.078 242.397C319.393 238.719 320.293 227.46 325.499 215.463C326.767 212.542 331.317 212.017 332.559 208.715C332.559 208.715 335.614 198.014 326.713 197.698C317.812 197.381 302.87 227.474 302.629 230.628C302.407 233.686 296.743 246.679 314.044 244.631Z" fill="#DD6D22"/>
<path d="M349.427 244.38H336.757C336.757 244.38 336.282 242.259 337.114 240.815C337.852 239.539 337.569 238.811 337.023 237.754C337.696 238.061 338.425 238.205 339.157 238.177C339.789 238.138 340.457 237.837 341.042 237.48C341.587 238.134 343.923 240.911 344.653 241.46C345.48 242.086 349.173 241.863 349.427 244.38Z" fill="#233862"/>
<path d="M298.444 192.254C298.444 192.254 296.795 207.999 307.491 211.299C318.187 214.598 321.222 196.807 312.587 195.532C303.953 194.258 298.444 192.254 298.444 192.254Z" fill="#EBEEF2"/>
<path d="M332.85 200.789C333.615 206.798 336.594 225.736 341.849 234.979C343.545 237.959 337.579 239.631 337.547 239.622C336.747 239.401 335.415 238.063 334.802 237.482C330.534 233.447 321.872 222.02 321.872 212.86C321.872 208.392 321.797 199.861 324.892 197.692C326.799 196.356 332.549 198.405 332.85 200.789Z" fill="#ED7D2B"/>
<path d="M306.487 244.384C306.487 244.384 306.957 243.698 307.776 242.395C308.751 240.847 309.829 237.8 311.144 233.891C312.518 229.789 314.149 224.743 316.187 219.493C316.815 217.872 317.483 216.232 318.194 214.594C319.462 211.674 322.95 212.077 324.192 208.776C324.192 208.776 329.034 197.33 320.131 197.014C311.228 196.698 294.312 227.631 293.341 230.627C292.269 233.907 287.077 247.526 306.487 244.384Z" fill="#F99746"/>
<path d="M340.126 244.38H327.456C327.456 244.38 326.981 242.259 327.813 240.815C328.55 239.539 328.267 238.811 327.722 237.754C328.394 238.061 329.124 238.205 329.857 238.177C330.487 238.138 331.156 237.837 331.74 237.48C332.286 238.134 334.622 240.911 335.351 241.46C336.18 242.086 339.871 241.863 340.126 244.38Z" fill="#2B478B"/>
<path d="M311.137 233.895C312.512 229.793 314.142 224.747 316.18 219.496C315.647 215.518 314.495 212.038 312.569 210.637C312.574 210.637 307.887 225.859 311.137 233.895Z" fill="#ED7D2B"/>
<path d="M325.455 200.363C326.218 206.372 327.292 225.736 332.549 234.979C334.243 237.959 328.279 239.631 328.246 239.622C327.447 239.401 326.113 238.063 325.5 237.482C321.233 233.447 312.571 222.02 312.571 212.86C312.571 208.392 317.566 200.22 320.655 198.051C322.568 196.715 325.152 197.979 325.455 200.363Z" fill="#F99746"/>
<path d="M315.131 179.83C315.131 179.83 314.356 179.509 312.182 179.694C312.182 179.694 312.296 180.578 313.901 180.673C314.811 180.723 315.131 179.83 315.131 179.83Z" fill="white"/>
<path d="M352.959 183.176L350.332 178.203L344.649 194.844L348.003 198.621L352.959 183.176Z" fill="#163560"/>
<path d="M339.243 186.084L333.96 201.921L348.003 198.617L352.959 183.172L339.243 186.084Z" fill="#1C468A"/>
<path d="M334.239 201.125L333.993 200.674L338.992 185.688L339.243 186.087L334.239 201.125Z" fill="#EFDECE"/>
<path d="M338.992 185.687L352.306 182.969L352.959 183.174L339.243 186.086L338.992 185.687Z" fill="#FCECDB"/>
<path d="M352.959 183.173L350.12 178.441L348.307 183.782L352.306 182.968L352.959 183.173Z" fill="#EFDECE"/>
<path d="M343.297 188.383C342.841 188.291 341.861 187.904 340.869 187.618C341.165 187.375 341.495 187.087 341.586 186.775C341.755 186.188 341.881 186 341.291 186.186C340.702 186.372 338.637 187.365 338.637 187.365C337.458 187.718 336.384 189.463 336.384 189.463C336.384 189.463 321.866 194.818 320.118 194.91C317.423 195.053 299.431 188.102 299.431 188.102C295.187 189.086 296.14 194.558 297.6 195.525C299.06 196.491 312.002 201.434 319.663 201.533C323.547 201.581 337.684 192.05 337.684 192.05C337.684 192.05 339.334 191.258 340.633 191.506C341.931 191.753 344.939 191.506 345.588 190.391C346.236 189.275 344.069 188.538 343.297 188.383Z" fill="#FFB27D"/>
<path d="M308.7 191.53C308.7 191.53 307.092 196.873 301.568 198.089C301.568 198.089 292.445 195.139 296.987 188.618C296.99 188.618 301.482 185.117 308.7 191.53Z" fill="white"/>
<path d="M352.724 188.784C352.729 188.638 352.712 188.492 352.675 188.351C352.675 188.351 351.375 186.19 350.949 186.101C349.65 185.833 349.65 187.626 349.926 188.784C350.121 189.533 350.49 190.219 351.001 190.781L350.95 192.471C353.14 191.207 352.724 188.784 352.724 188.784Z" fill="#FFB27D"/>
<path d="M237.796 215.086C237.796 215.086 235.484 216.569 234.717 219.004C234.577 219.444 234.496 219.903 234.476 220.367C234.35 223.604 234.476 230.93 234.476 230.93L227.649 227.266L220.839 230.93V221.001C220.839 219.124 221.424 217.29 222.509 216.102C223.034 215.522 223.672 215.086 224.395 215.086H237.796Z" fill="#F99746"/>
<path d="M237.796 215.088C237.796 215.088 235.483 216.57 234.717 219.006L221.033 219.151C221.033 219.151 221.57 215.664 224.401 215.086L237.796 215.088Z" fill="#ED7D2B"/>
<path d="M103.386 167.699C103.386 167.699 104.836 174.303 109.063 174.303C112.687 174.303 117.652 165.707 117.652 165.707L103.386 167.699Z" fill="#F99746"/>
<path d="M151.683 265.835L149.258 267.185C149.258 267.185 136.141 252.59 132.989 238.586C132.426 236.085 132.199 233.62 132.439 231.28C132.439 231.28 132.249 230.645 131.914 229.523C131.901 229.475 131.885 229.424 131.87 229.375C131.724 228.882 131.549 228.304 131.355 227.648C130.722 225.527 129.851 222.636 128.861 219.342C126.577 211.755 121.356 194.643 119.124 187.53L135.161 181.441C135.161 181.441 136.982 185.8 139.599 197.646C140.003 199.192 140.407 200.903 140.778 202.771C141.206 204.881 141.605 207.19 141.938 209.681C142.561 214.382 142.882 219.121 142.898 223.866C142.908 225.987 142.852 228.182 142.73 230.451C142.642 232.114 142.878 234.339 143.319 236.852C145.354 248.365 151.683 265.835 151.683 265.835Z" fill="#2B478B"/>
<path d="M160.463 272.28H147.494C147.494 272.28 147.018 270.111 147.86 268.634C148.613 267.326 148.325 266.582 147.767 265.502C148.457 265.815 149.205 265.962 149.957 265.933C150.603 265.895 151.286 265.58 151.885 265.227C152.443 265.895 154.832 268.736 155.579 269.291C156.424 269.935 160.202 269.705 160.463 272.28Z" fill="#233862"/>
<path d="M141.943 209.669L131.87 229.375C131.724 228.882 131.549 228.304 131.355 227.648C130.722 225.527 129.851 222.636 128.861 219.342C126.577 211.755 121.356 194.643 119.124 187.53L135.161 181.441C135.161 181.441 136.982 185.8 139.599 197.646C140.003 199.192 140.407 200.903 140.778 202.771C141.211 204.867 141.61 207.174 141.943 209.669Z" fill="#233862"/>
<path d="M118.863 268.019C118.863 268.019 117.966 270.33 118.811 272.278H125.863C125.863 272.278 126.009 270.521 123.451 268.483C121.512 266.941 118.863 268.019 118.863 268.019Z" fill="#233862"/>
<path d="M126.538 117.587C126.538 117.219 126.723 113.246 132.473 112.895C132.473 112.895 129.652 113.32 129.192 114.637C129.192 114.637 131.082 112.976 132.664 113.455C134.245 113.934 135.234 116.797 135.264 117.746C135.294 118.695 134.494 121.775 133.504 122.06C133.108 122.156 132.698 122.167 132.298 122.093C132.593 122.552 132.862 123.029 133.103 123.521C135.515 128.41 133.44 134.17 131.478 133.685C130.223 133.374 129.457 135.656 129.457 135.656L117.388 124.766C117.388 124.766 121.62 114.996 126.538 117.587Z" fill="#2C3A64"/>
<path d="M118.952 150.686C120.29 151.66 121.967 152.453 124.074 152.973C131.97 154.887 134.994 147.885 136.131 143.076C135.306 142.597 134.396 142.303 133.457 142.213C132.886 142.143 132.278 142.097 131.788 142.07C130.902 141.363 129.581 138.442 129.288 133.914L128.918 134.018L122.686 135.805C122.686 135.805 122.971 137.882 123.111 139.843C123.218 141.377 123.235 142.848 122.959 143.201C122.474 143.311 122.183 143.378 122.183 143.378C120.885 145.7 119.803 148.147 118.952 150.686Z" fill="#FFB27D"/>
<path d="M122.695 135.811C122.695 135.811 122.981 137.884 123.119 139.848C126.644 139.478 128.281 135.96 128.918 134.016L122.695 135.811Z" fill="#ED985F"/>
<path d="M122.622 138.924C122.622 138.924 130.738 136.736 129.359 131.453C127.98 126.171 128.103 122.329 122.861 123.501C117.62 124.672 117.145 126.977 117.196 128.859C117.246 130.741 120.475 139.357 122.622 138.924Z" fill="#FFB27D"/>
<path d="M116.67 125.861C117.512 123.917 118.538 123.989 119.197 124.314C122.947 120.493 126.776 123.44 126.776 123.44C128.308 127.073 131.479 128.494 131.479 128.494C131.479 128.494 130.257 129.873 126.622 129.936C125.512 129.954 124.384 129.449 123.352 128.736C124.649 130.013 126.106 131.098 127.683 131.96C123.112 131.161 119.936 125.712 119.609 125.133C119.237 125.739 118.53 127.029 118.493 128.105C118.442 129.565 118.984 132.386 118.191 132.513C118.19 132.513 115.421 128.782 116.67 125.861Z" fill="#2C3A64"/>
<path d="M120.288 142.953C120.288 142.953 133.918 139.481 139.847 144.611L136.884 187.96L110.225 181.202C110.225 181.202 110.974 178.459 116.088 171.165C121.201 163.872 118.976 153.172 120.288 142.953Z" fill="#FFB27D"/>
<path d="M128.234 183.13L128.19 183.556C128.178 183.676 128.163 183.823 128.146 183.992C128.032 185.116 127.81 187.271 127.533 190.075C126.802 197.426 125.656 209.235 124.872 218.554C124.261 225.843 123.872 231.609 124.082 232.535C124.712 235.322 124.082 268.636 124.082 268.636C121.816 269.776 118.381 268.636 118.381 268.636C118.381 268.636 112.345 238.615 113.191 234.442C113.681 231.859 113.485 229.183 112.625 226.708C107.945 203.808 108.45 191.116 109.383 185.04C109.563 183.784 109.831 182.544 110.185 181.329C110.273 181.018 110.38 180.713 110.506 180.417C120.842 177.499 128.234 183.13 128.234 183.13Z" fill="#2B478B"/>
<path d="M141.684 156.967C141.026 162.182 138.393 168.564 137.453 171.998C137.453 171.998 139.025 183.924 137.524 187.197C137.403 187.52 137.176 187.787 136.884 187.95C131.326 190.491 109.678 188.022 108.758 180.695C108.421 178.032 117.011 168.667 117.504 167.53C117.711 167.06 117.934 165.537 116.926 162.379C115.502 166.991 107.633 165.664 107.633 165.664C108.558 164.006 110.858 152.535 113.427 147.356C115.358 143.468 120.515 142.901 120.515 142.901C120.515 142.901 122.661 146.473 127.852 145.965C133.042 145.458 133.991 142.125 133.991 142.125C133.991 142.125 138.595 142.768 140.013 143.968C140.264 144.179 142.546 150.135 141.684 156.967Z" fill="#F99746"/>
<path d="M137.453 171.998C137.453 171.998 139.025 183.924 137.524 187.197C133.482 185.064 128.195 180.46 129.802 173.265C132.136 162.811 141.684 156.965 141.684 156.965C141.026 162.182 138.393 168.564 137.453 171.998Z" fill="#ED7D2B"/>
<path d="M120.547 157.902L129.829 173.529H114.036L105.193 158.242L120.547 157.902Z" fill="#1C468A"/>
<path d="M129.348 172.743L129.508 172.197L120.723 157.41L120.548 157.901L129.348 172.743Z" fill="#EFDECE"/>
<path d="M120.722 157.41L105.844 157.856L105.193 158.241L120.547 157.901L120.722 157.41Z" fill="#FCECDB"/>
<path d="M105.193 158.242L96.8458 153.5L106.575 169.533L114.036 173.529L105.193 158.242Z" fill="#163560"/>
<path d="M149.361 169.198C148.468 169.625 146.173 172.462 145.354 172.75C141.671 174.044 125.998 170.603 125.998 170.603L126.483 167.722C126.483 167.722 141.866 168.15 143.557 167.676C143.875 167.586 145.538 164.857 146.178 164.465L149.361 169.198Z" fill="#FFB27D"/>
<path d="M126.484 167.705C126.484 167.705 124.632 166.115 123.375 166.48C122.119 166.846 120.276 168.502 119.592 168.896C118.909 169.29 117.046 170.699 117.989 171.547C118.932 172.396 121.863 171.668 123.032 171.017C124.2 170.367 125.997 170.588 125.997 170.588L126.484 167.705Z" fill="#FFB27D"/>
<path d="M123.731 166.437C123.731 166.437 121.475 166.156 120.867 166.168C120.259 166.181 120.419 166.324 120.76 166.824C121.1 167.324 122.275 167.519 122.328 167.694C122.38 167.869 123.731 166.437 123.731 166.437Z" fill="#FFB27D"/>
<path d="M133.996 142.133C133.996 142.133 140.682 142.965 142.523 145.973C144.85 149.778 150.344 164.928 150.167 168.745C150.167 168.745 146.151 175.919 132.379 174.77C132.379 174.77 130.946 169.468 133.843 167.701C133.843 167.701 140.916 166.38 141.731 165.628L139.373 155.322L133.996 142.133Z" fill="#F99746"/>
<path d="M107.33 163.955C107.123 163.071 105.287 163.623 104.667 164.132C104.485 164.3 104.327 164.496 104.197 164.712C104.177 164.565 104.16 164.422 104.152 164.312C104.117 163.897 103.657 163.153 103.542 163.709C103.428 164.266 103.239 166.606 103.239 166.606C103.217 168.492 104.371 169.268 105.112 168.654C105.853 168.041 107.539 164.839 107.33 163.955Z" fill="#FFB27D"/>
</svg>
