<svg width="311" height="297" viewBox="0 0 311 297" fill="none" xmlns="http://www.w3.org/2000/svg">
<path d="M68.0027 26.2292C47.174 35.2361 35.9537 56.5422 32.2963 78.0345C26.7792 110.149 43.2686 139.965 34.0321 172.39C25.9733 200.715 7.25224 234.693 33.2882 259.54C44.1985 269.975 59.944 275.255 74.7597 276.808C95.7124 278.982 117.037 275.752 137.866 278.609C158.819 281.467 178.965 290.225 200.414 289.356C228.496 288.237 246.721 267.056 249.262 239.849C252.858 201.274 227.752 171.458 199.236 149.345C183.677 137.294 173.944 126.92 167.249 108.099C153.301 68.4686 123.112 3.37025 68.6846 25.9186C68.4367 25.9807 68.1887 26.105 68.0027 26.2292Z" fill="#E0F3FF"/>
<path d="M281.857 167.242C288.852 170.119 293.99 175.763 297.27 181.897C304.575 195.628 303.027 212.4 294.671 225.698C286.314 238.995 271.643 248.819 255.302 253.813C251.526 254.952 247.564 255.875 243.602 255.495C239.641 255.115 235.679 253.27 234.008 250.068C231.656 245.617 234.441 240.461 237.165 236.119C242.426 227.76 249.235 219.239 252.826 210.175C255.054 204.53 254.249 199.374 253.568 193.62C252.702 186.022 251.897 177.175 257.84 170.933C263.72 164.8 273.934 163.985 281.857 167.242Z" fill="url(#paint0_linear_5815_68679)"/>
<path d="M100.674 64.8721C100.674 64.8721 93.8646 72.308 84.7033 67.6402C79.9988 65.2521 84.7033 57.0563 84.7033 57.0563C84.7033 57.0563 85.0747 57.2192 85.6937 57.1649C86.746 57.1106 88.3554 56.405 89.4077 53.1484L102.097 54.2882C102.097 54.2882 100.859 56.9478 100.302 59.7159C99.869 61.6698 99.8071 63.678 100.674 64.8721Z" fill="#F69887"/>
<path d="M102.097 54.2882C102.097 54.2882 100.859 56.9478 100.302 59.7159C96.2169 60.7471 89.0364 61.7241 85.6937 57.1649C86.746 57.1106 88.3555 56.405 89.4078 53.1484L102.097 54.2882Z" fill="#D46766"/>
<path d="M83.9604 45.8191C84.827 44.5164 87.1793 44.2993 89.1601 45.3306C91.2028 46.3618 92.1313 48.2615 91.2647 49.5641C90.3981 50.8668 88.0459 51.0839 86.0651 50.0526C84.0223 49.0214 83.0938 47.1217 83.9604 45.8191Z" fill="#D46766"/>
<path d="M90.3981 40.6117C95.5359 35.564 103.521 34.4242 108.226 38.0607C112.93 41.6972 112.868 49.0788 107.359 53.8551C101.726 58.7943 93.1837 59.4999 89.3458 56.5689C83.8366 52.3354 85.1985 45.6594 90.3981 40.6117Z" fill="#F69887"/>
<path d="M107.421 51.4675C107.545 49.1336 107.668 46.7997 107.73 44.6287C106.43 44.5201 105.131 44.303 104.016 43.7603C102.902 43.1632 102.036 41.8606 101.912 40.7208C99.25 41.752 96.7121 40.4494 94.855 39.0382C93.8646 38.9839 93.5551 38.9297 92.8742 38.9839C92.3171 39.2011 91.6981 39.5267 91.141 39.6895C91.8219 38.6583 92.6885 37.7356 93.8646 36.8672C99.6833 36.8129 105.564 37.8984 110.949 40.178C111.444 42.9461 111.321 45.7685 110.702 48.5366C110.083 49.8392 108.721 50.7076 107.421 51.4675Z" fill="#D46766"/>
<path d="M115.406 45.4375C114.601 49.7253 109.464 55.1529 109.464 55.1529C109.464 55.1529 107.916 55.2072 105.254 55.0444C106.802 51.4079 107.792 47.6085 108.226 43.4835C106.988 43.6464 105.688 43.375 104.635 42.7237C103.583 42.0723 102.84 41.0954 102.469 40.0098C100.117 40.4983 97.5168 39.847 95.536 38.3816C94.7313 38.3816 93.9265 38.3273 93.2456 38.4358C92.5028 38.9786 91.6981 39.5214 90.8934 40.227C90.522 39.1957 90.6458 38.0559 91.9457 36.7533C91.8219 36.4819 91.76 36.2105 91.8219 35.9391C91.9457 35.0164 92.998 34.148 94.1123 33.8223C95.536 33.3881 97.0835 33.4424 98.4453 32.8997C99.869 32.3026 101.045 31.1085 102.655 31.0543C104.45 31 105.75 32.4112 107.297 33.171C108.659 33.8223 110.268 33.9852 111.754 34.4194C112.93 34.745 114.106 35.3421 114.663 36.2648C114.849 36.4819 114.973 36.7533 115.035 37.0789C114.168 36.9161 112.311 36.4276 112.249 37.2418C112.187 37.8388 113.301 38.3273 114.973 39.25C116.706 40.1727 115.778 43.6464 115.406 45.4375Z" fill="#17194D"/>
<path d="M114.663 36.212C114.044 35.9407 112.93 35.3979 112.187 35.2894C110.64 35.0722 109.464 35.2351 108.04 34.7466C106.678 34.2581 105.131 32.9012 103.707 32.7384C101.974 32.5213 100.736 33.9324 99.0643 34.2581C97.5787 34.5295 95.9692 34.2038 94.4217 34.5295C93.5551 34.6923 92.5028 35.3979 91.8219 35.8864C91.9457 34.9637 92.998 34.0953 94.1122 33.7696C95.5359 33.3354 97.0835 33.3897 98.4453 32.8469C99.869 32.2499 101.045 31.0558 102.655 31.0015C104.45 30.9472 105.75 32.3584 107.297 33.1183C108.659 33.7696 110.268 33.9324 111.754 34.3667C112.93 34.6923 114.106 35.2893 114.663 36.212Z" fill="#2E396E"/>
<path d="M106.554 51.7891C108.906 51.7891 110.763 52.9831 110.763 54.5029C110.763 56.0226 108.845 57.2167 106.554 57.2167C104.202 57.2167 102.345 56.0226 102.345 54.5029C102.345 52.9831 104.202 51.7891 106.554 51.7891Z" fill="#F69887"/>
<path d="M92.936 45.498C92.4408 45.9323 92.0693 46.475 92.0074 47.1263" stroke="#A33E4F" stroke-width="0.360015" stroke-miterlimit="10" stroke-linecap="round"/>
<path d="M91.3266 53.0412C90.7695 52.3899 90.5838 51.3586 90.7695 50.5445C90.8933 50.056 91.079 49.5132 91.5742 49.2961C91.9456 49.1333 92.317 49.1876 92.6884 49.2961C93.0598 49.459 93.3074 49.6761 93.555 49.9474C94.2978 50.8701 94.3597 52.1185 93.7407 53.0955C93.4931 53.584 92.2551 54.1267 91.3266 53.0412Z" fill="white"/>
<path d="M98.1357 43.7034C99.0643 43.0521 100.24 42.7265 101.416 42.835C102.593 42.9436 103.707 43.4863 104.388 44.3005C102.345 44.0834 100.24 44.0291 98.1357 43.7034Z" fill="#17194D"/>
<path d="M99.1261 47.556C99.6389 47.556 100.055 47.1915 100.055 46.7419C100.055 46.2922 99.6389 45.9277 99.1261 45.9277C98.6133 45.9277 98.1976 46.2922 98.1976 46.7419C98.1976 47.1915 98.6133 47.556 99.1261 47.556Z" fill="#222D4D"/>
<path d="M93.4931 42.782C93.6169 42.0221 93.1836 41.1537 92.4408 40.7195C91.698 40.2853 90.6457 40.2853 89.8409 40.6652C91.0171 41.2623 92.1313 41.8593 93.4931 42.782Z" fill="#17194D"/>
<path d="M89.841 45.1713C90.3538 45.1713 90.7695 44.8068 90.7695 44.3571C90.7695 43.9075 90.3538 43.543 89.841 43.543C89.3282 43.543 88.9125 43.9075 88.9125 44.3571C88.9125 44.8068 89.3282 45.1713 89.841 45.1713Z" fill="#222D4D"/>
<path d="M69.2279 44.6818L61.4903 53.2032C61.4903 53.2032 59.4475 51.1407 57.0953 48.7526C54.9907 46.6358 52.6385 44.2476 51.2767 42.8907C48.3673 40.0141 36.73 24.3825 36.73 24.3825L42.4868 20.4746C42.4868 20.4746 49.3577 26.9878 52.948 29.8644C56.5382 32.7411 59.138 37.843 60.3142 39.1457C60.8713 39.7427 62.8521 41.0453 64.8329 42.2394C67.0613 43.4878 69.2279 44.6818 69.2279 44.6818Z" fill="#F69887"/>
<path d="M69.228 44.6823L61.4904 53.2036C61.4904 53.2036 59.4477 51.1411 57.0955 48.753C58.8906 45.9849 61.6142 43.651 64.8331 42.1855C67.0615 43.4882 69.228 44.6823 69.228 44.6823Z" fill="#D46766"/>
<path d="M37.411 24.7095C35.9873 25.198 34.3779 24.3838 33.2637 23.4611C32.1494 22.5384 31.159 21.3444 29.6734 20.9644C29.2401 20.8559 28.8068 20.8016 28.4354 20.5845C28.064 20.3674 27.7545 19.9875 27.8164 19.6618C27.9402 19.1733 28.7449 19.0648 29.302 19.0648C31.0971 19.119 32.8304 19.5532 34.4398 20.3131C35.3064 16.7309 36.173 13.0944 36.9777 9.51213C37.0396 9.13219 37.1634 8.75226 37.411 8.48088C37.6586 8.2095 38.2157 8.04667 38.5871 8.2095C38.9585 8.4266 39.0204 8.86081 39.0204 9.29502C39.0204 11.1947 38.8966 13.1486 38.5871 15.0483C39.1442 13.1486 40.0108 11.249 41.0632 9.51213C41.4346 8.96936 42.1155 8.31805 42.7345 8.69798C43.1678 8.96936 43.1059 9.45785 42.9821 9.89206C42.5488 11.6832 42.1155 13.42 41.6203 15.2111C41.9298 14.3427 42.2393 13.42 42.7345 12.6059C43.2916 11.7917 44.4058 10.272 45.1486 10.9233C45.9533 11.6289 43.7868 15.2111 42.8583 17.2736C43.4154 16.2967 43.9106 15.3197 44.4677 14.3427C44.7153 13.9085 45.0867 13.42 45.6438 13.5286C46.3247 13.6371 46.2628 14.5055 46.0152 15.0483C45.5819 16.0796 45.0867 17.1651 44.6534 18.1963C43.9725 19.6618 43.3535 21.2358 42.1155 22.4299C40.9394 23.5154 39.0204 24.1667 37.411 24.7095Z" fill="#F69887"/>
<path d="M85.5699 178.693C84.2081 180.755 84.8271 183.197 83.2177 188.137C82.1654 191.393 76.5324 194.433 74.7373 192.37C74.5516 192.153 74.4278 191.719 74.304 191.122C73.5612 186.725 74.9849 173.699 74.9849 173.699L79.6274 169.303C79.6274 169.303 84.0224 169.628 86.1889 170.605C86.746 170.877 87.1793 171.148 87.3031 171.528C88.0459 173.265 87.6126 175.653 85.5699 178.693Z" fill="#CF3045"/>
<path d="M85.57 178.693C84.2082 180.756 84.8272 183.198 83.2178 188.137C82.1655 191.394 76.5325 194.433 74.7374 192.371C74.5517 192.154 74.4279 191.719 74.3041 191.122C75.8516 191.339 77.5848 190.851 78.8228 189.928C80.556 188.68 81.4846 186.726 82.0417 184.826C82.5988 182.927 82.8464 180.918 83.5273 179.073C84.2082 177.282 85.2605 175.599 85.8176 173.808C86.1271 172.777 86.3128 171.691 86.1271 170.66C86.6842 170.932 87.1175 171.203 87.2413 171.583C88.046 173.265 87.6127 175.654 85.57 178.693Z" fill="#F0979A"/>
<path d="M74.3658 177.502C75.6039 177.176 76.9657 177.285 78.1418 177.719" stroke="#F0979A" stroke-width="1.08004" stroke-miterlimit="10" stroke-linecap="round"/>
<path d="M74.1184 180.38C75.2945 180 76.7182 180 77.8944 180.434" stroke="#F0979A" stroke-width="1.08004" stroke-miterlimit="10" stroke-linecap="round"/>
<path d="M73.9945 182.875C75.0468 182.604 76.2229 182.604 77.2752 182.929" stroke="#F0979A" stroke-width="1.08004" stroke-miterlimit="10" stroke-linecap="round"/>
<path d="M81.4844 169.68C80.3702 177.333 74.7992 176.031 74.7992 176.031C72.5088 170.494 53.5672 147.101 51.4007 144.008C50.4722 142.651 50.3484 139.123 50.5341 135.486C50.7817 130.656 51.5245 125.662 51.5245 125.662L69.2281 135.486L67.8044 140.859L66.9997 144.008C66.9997 144.008 72.8183 145.473 74.4897 151.281C77.399 161.376 81.4844 169.68 81.4844 169.68Z" fill="#F69887"/>
<path d="M69.2281 135.486L67.8044 140.859C59.5097 139.882 53.5053 137.169 50.5341 135.486C50.7817 130.656 51.5245 125.662 51.5245 125.662L69.2281 135.486Z" fill="#D46766"/>
<path d="M107.606 155.567C107.606 160.669 102.902 163.654 99.2498 161.32C98.507 160.832 97.8261 159.801 97.269 158.498C95.7214 154.861 94.9167 149.325 94.9167 149.325L101.602 140.695C101.602 140.695 105.44 147.046 106.925 152.148C107.359 153.342 107.606 154.536 107.606 155.567Z" fill="#CF3045"/>
<path d="M107.606 155.565C107.606 160.667 102.902 163.653 99.2499 161.319C98.5071 160.83 97.8261 159.799 97.269 158.496C97.3309 158.551 97.3928 158.659 97.4547 158.714C98.6309 160.07 100.674 160.993 102.531 160.559C104.14 160.179 105.254 158.931 105.935 157.574C106.802 155.837 107.049 153.991 106.987 152.092C107.359 153.34 107.606 154.534 107.606 155.565Z" fill="#F0979A"/>
<path d="M97.269 151.061C98.3214 150.247 99.7451 149.812 101.169 149.812" stroke="#F0979A" stroke-width="1.08004" stroke-miterlimit="10" stroke-linecap="round"/>
<path d="M98.0118 153.341C99.188 152.689 100.55 152.309 101.973 152.146" stroke="#F0979A" stroke-width="1.08004" stroke-miterlimit="10" stroke-linecap="round"/>
<path d="M98.569 155.89C99.9308 155.51 101.355 155.185 102.716 154.805" stroke="#F0979A" stroke-width="1.08004" stroke-miterlimit="10" stroke-linecap="round"/>
<path d="M97.5786 137.658C97.5786 137.658 103.954 139.558 102.345 144.009C100.797 148.405 97.6405 150.576 94.793 150.087C91.8837 149.599 87.6125 147.265 87.6125 147.265L97.5786 137.658Z" fill="#D46766"/>
<path d="M99.3118 138.692C99.3118 143.686 97.269 147.322 92.5646 148.136C88.1696 148.896 84.4556 145.368 81.9176 141.895C80.5558 139.995 79.5035 138.041 78.8845 136.793C78.4512 135.924 78.2655 135.381 78.2655 135.381L78.8845 135.273L98.5689 132.613C99.0641 134.839 99.3118 136.847 99.3118 138.692Z" fill="#F69887"/>
<path d="M99.3118 138.691C92.2551 142.327 85.5698 142.273 81.9177 141.893C80.5558 139.993 79.5035 138.039 78.8845 136.791V135.326L98.569 132.666C99.0642 134.837 99.3118 136.845 99.3118 138.691Z" fill="#D46766"/>
<path d="M100.921 132.994C98.1974 140.538 78.1416 140.647 78.1416 140.647L73.7467 128.055L71.3944 138.584C64.0901 139.833 48.1198 132.885 48.1198 132.885C48.1198 125.232 54.805 107.212 57.5906 99.9395C58.3334 97.9855 58.8286 96.8457 58.8286 96.8457L94.112 106.561L95.0405 110.252L100.921 132.994Z" fill="white"/>
<path d="M95.0405 110.252C71.0849 110.415 60.9951 103.305 57.5906 99.9395C58.3334 97.9855 58.8286 96.8457 58.8286 96.8457L94.112 106.561L95.0405 110.252Z" fill="#C5D1DE"/>
<path d="M73.1895 126.427C70.2183 122.737 68.1756 118.449 67.309 113.998C67.4328 116.278 67.4947 118.612 68.1756 120.837C68.7946 123.062 70.0326 125.233 73.1895 126.427Z" fill="#C5D1DE"/>
<path d="M72.1373 126.589C67.6185 124.038 63.595 120.836 60.1904 117.199C61.4284 122.084 66.4424 126.046 72.1373 126.589Z" fill="#C5D1DE"/>
<path d="M85.6317 56.6763C85.6317 56.6763 84.3937 64.6006 85.7555 64.9806C87.6744 65.5233 100.612 64.0579 100.612 64.0579C100.612 64.0579 108.349 69.1598 109.711 71.3309C111.073 73.502 112.373 84.3572 111.135 88.8079C111.135 88.8079 103.088 96.9493 98.3214 96.7865L96.8977 92.6615L95.1025 100.64C95.1025 100.64 96.65 103.408 95.1025 107.533C95.1025 107.533 67.9281 107.37 57.6526 98.4148C57.6526 98.4148 60.2524 80.8293 68.1138 65.9575L59.0763 54.451C59.0763 54.451 59.3858 45.6039 67.9281 40.502C67.9281 40.502 71.2707 44.0299 75.6657 46.9608C79.3797 49.2947 81.6082 51.0858 85.6317 56.6763Z" fill="url(#paint1_linear_5815_68679)"/>
<path d="M97.393 91.6824C97.0216 85.2235 99.8071 78.7103 104.883 73.9883C101.664 75.7794 99.0643 78.5475 97.6406 81.6955C96.2788 84.8435 96.0312 88.3715 97.393 91.6824Z" fill="url(#paint2_linear_5815_68679)"/>
<path d="M96.6502 89.6743C95.2265 84.6809 94.4217 79.3618 96.2169 74.5312C93.3694 79.7961 93.8646 86.3635 96.6502 89.6743Z" fill="url(#paint3_linear_5815_68679)"/>
<path d="M68.7948 65.4663C71.147 60.7985 74.3659 56.5107 78.2656 52.7656C73.0659 55.4794 69.4138 60.2015 68.7948 65.4663Z" fill="url(#paint4_linear_5815_68679)"/>
<path d="M68.609 64.7615C68.5471 60.0395 69.4137 55.3174 71.2088 50.8125C68.0519 54.8832 66.8758 60.148 68.609 64.7615Z" fill="url(#paint5_linear_5815_68679)"/>
<path d="M92.9979 101.237C87.7364 101.726 82.351 102.052 77.1514 101.4C71.8898 100.749 66.6901 98.9578 62.9142 95.7012C72.1993 99.012 82.2891 100.64 92.9979 101.237Z" fill="url(#paint6_linear_5815_68679)"/>
<path d="M70.2804 68.5084C70.8375 66.7173 72.4469 65.5774 73.8706 65.9031C75.2943 66.283 75.9752 67.9656 75.3562 69.7567C74.7991 71.5478 73.1897 72.6876 71.766 72.362C70.4042 72.0363 69.7232 70.2995 70.2804 68.5084Z" fill="white"/>
<path d="M103.954 66.1779C103.583 64.2783 102.283 62.5414 100.426 61.5645C96.3406 63.8441 90.5838 65.0924 86.0032 65.0381C89.6553 65.9066 93.2456 68.4033 94.5455 71.5513C97.95 70.2487 101.045 68.2947 103.954 66.1779Z" fill="#FCCCD0"/>
<path d="M76.5323 60.2081C78.018 57.06 80.2464 55.2146 83.6509 53.6406C85.2604 54.0206 86.8079 54.7804 87.6126 56.0831C86.3746 58.3627 85.1984 62.0535 85.6937 64.9844C83.9604 62.3791 80.9273 59.991 76.5323 60.2081Z" fill="#FCCCD0"/>
<path d="M128.591 83.8184L128.529 90.6572C128.529 90.6572 108.226 104.281 105.316 104.063C103.769 103.955 102.097 100.644 100.921 97.6588C99.9309 95.1078 99.25 92.774 99.25 92.774C99.25 92.774 105.997 89.6259 108.783 89.6259C109.216 89.6259 110.021 89.4631 111.073 89.246C116.52 87.9434 128.591 83.8184 128.591 83.8184Z" fill="#F69887"/>
<path d="M111.073 89.2461C109.464 91.5257 105.997 95.705 100.983 97.7132C99.9928 95.1622 99.3119 92.8283 99.3119 92.8283C99.3119 92.8283 106.059 89.6803 108.845 89.6803C109.216 89.626 110.021 89.4632 111.073 89.2461Z" fill="#D46766"/>
<path d="M126.796 85.8819C128.653 83.2766 130.077 80.1829 133.172 78.3918C135.338 77.1434 139.547 77.849 141.281 78.1747C141.652 78.2289 142.023 81.8655 142.395 83.7109C142.457 84.0908 142.519 84.525 142.209 84.8507C141.838 85.1763 141.219 85.0678 140.909 84.7421C140.538 84.4164 140.476 83.9822 140.352 83.548C140.166 82.8424 140.043 82.1368 139.547 81.5941C139.052 81.0513 138.124 80.7257 137.443 81.377C139.671 82.8967 140.785 85.6648 140.104 88.053C139.981 88.4329 139.857 88.8128 139.485 89.0299C139.176 89.247 138.557 89.3013 138.309 88.9757C138.433 89.8441 137.319 90.7125 136.328 90.4411C136.143 91.1467 135.09 91.4724 134.286 91.2553C133.481 91.0382 132.862 90.4411 132.367 89.8441C131.067 91.0924 128.777 91.4181 127.043 90.6582C127.105 88.9214 127.105 87.1303 126.796 85.8819Z" fill="#F69887"/>
<path d="M147.037 54.3496L138.247 78.5026" stroke="#A5B0CF" stroke-width="1.08004" stroke-miterlimit="10"/>
<path d="M131.376 88.7063L135.648 77.0369C135.895 76.3313 136.762 75.9514 137.505 76.2228L140.785 77.1455C141.59 77.3626 142.023 78.1224 141.714 78.7738L137.443 90.4432C137.195 91.1488 136.329 91.5287 135.586 91.2573L132.305 90.3346C131.562 90.1175 131.129 89.4119 131.376 88.7063Z" fill="#222736"/>
<path d="M146.295 34.7047C150.009 32.9678 153.785 31.231 157.499 29.4941" stroke="#D1D8F0" stroke-width="0.360015" stroke-miterlimit="10"/>
<path d="M144.685 38.9914C149.823 36.5489 154.961 34.1065 160.098 31.6641" stroke="#D1D8F0" stroke-width="0.360015" stroke-miterlimit="10"/>
<path d="M143.571 43.2789C149.39 40.5108 155.146 37.7427 160.965 34.9746" stroke="#D1D8F0" stroke-width="0.360015" stroke-miterlimit="10"/>
<path d="M144.499 46.6976C149.947 44.2009 155.332 41.7584 160.779 39.2617" stroke="#D1D8F0" stroke-width="0.360015" stroke-miterlimit="10"/>
<path d="M145.057 50.4974C149.947 48.2178 154.837 45.9382 159.789 43.7129" stroke="#D1D8F0" stroke-width="0.360015" stroke-miterlimit="10"/>
<path d="M150.813 30.1992C150.566 37.3637 150.813 44.5824 151.37 51.7469" stroke="#D1D8F0" stroke-width="0.360015" stroke-miterlimit="10"/>
<path d="M147.966 31.5566C146.852 38.5583 146.79 45.7228 147.842 52.7787" stroke="#D1D8F0" stroke-width="0.360015" stroke-miterlimit="10"/>
<path d="M154.589 28.7891C154.775 35.5193 154.899 42.2496 155.084 48.9799" stroke="#D1D8F0" stroke-width="0.360015" stroke-miterlimit="10"/>
<path d="M158.303 28.2988C158.489 34.3778 158.675 40.4024 158.86 46.4814" stroke="#D1D8F0" stroke-width="0.360015" stroke-miterlimit="10"/>
<path d="M157.561 27.3216C152.918 25.9104 146.852 30.6325 144.004 37.8512C141.157 45.07 142.519 52.0716 147.161 53.4828C151.804 54.894 157.87 50.172 160.717 42.9532C163.627 35.7345 162.203 28.7328 157.561 27.3216ZM159.108 42.4647C156.756 48.3808 151.866 52.2887 148.09 51.1489C144.376 50.0091 143.261 44.2558 145.614 38.3397C147.966 32.4236 152.918 28.5157 156.632 29.6555C160.408 30.7953 161.522 36.5486 159.108 42.4647Z" fill="#222736"/>
<path d="M145.861 51.6895L144.623 55.2174C144.623 55.2174 146.233 56.7914 148.709 56.1401L150.132 52.8293L145.861 51.6895Z" fill="#222736"/>
<path d="M131.624 81.2679C133.419 80.6166 135.338 80.0738 137.195 79.6396C137.566 79.5311 138 79.4768 138.371 79.5311C138.743 79.5853 139.176 79.8567 139.238 80.1824C139.362 80.6166 138.928 80.9965 138.557 81.3222C137.628 82.0278 136.638 82.6791 135.586 83.2218C135.152 85.4472 132.924 87.2926 130.386 87.5097" fill="#F69887"/>
<path d="M131.624 81.2679C133.419 80.6166 135.338 80.0738 137.195 79.6396C137.566 79.5311 138 79.4768 138.371 79.5311C138.743 79.5853 139.176 79.8567 139.238 80.1824C139.362 80.6166 138.928 80.9965 138.557 81.3222C137.628 82.0278 136.638 82.6791 135.586 83.2218C135.152 85.4472 132.924 87.2926 130.386 87.5097" stroke="#A33E4F" stroke-width="0.360015" stroke-miterlimit="10" stroke-linecap="round"/>
<path d="M170.064 129.079L165.917 126.582C165.917 126.582 164.06 127.125 163.503 130.001C162.946 132.878 161.46 145.959 164.06 150.572L168.764 148.672L170.064 129.079Z" fill="#C47123"/>
<path d="M171.055 165.445L171.86 169.353L210.733 168.648L210.486 165.174C199.034 150.031 185.663 152.419 171.055 165.445Z" fill="#3A424F"/>
<path d="M183.435 133.53C175.573 135.593 170.745 127.234 170.745 127.234C172.293 126.637 172.045 124.249 171.488 122.241C171.055 120.612 170.436 119.255 170.436 119.255L183.744 118.93C183.744 118.93 184.116 121.046 185.168 122.023C185.416 122.241 185.663 122.403 185.973 122.512C186.406 122.675 187.396 122.186 188.201 121.752C188.82 121.372 189.377 121.046 189.377 121.046C190.244 124.412 191.296 131.468 183.435 133.53Z" fill="#BF6565"/>
<path d="M188.201 121.859C185.044 127.015 175.202 125.441 171.488 122.293C171.055 120.665 170.436 119.308 170.436 119.308L183.744 118.982C183.744 118.982 184.116 121.099 185.168 122.076C185.416 122.293 185.663 122.456 185.973 122.565C186.468 122.727 187.458 122.293 188.201 121.859Z" fill="#91474C"/>
<path d="M189.662 115.502C192.109 114.5 193.471 112.521 192.705 111.082C191.938 109.642 189.333 109.287 186.886 110.289C184.439 111.291 183.076 113.27 183.843 114.71C184.61 116.15 187.215 116.504 189.662 115.502Z" fill="#91474C"/>
<path d="M162.698 114.643C158.551 107.804 160.16 100.26 166.845 97.1119C173.53 93.9639 181.454 94.5067 186.468 103.788C190.244 110.79 190.12 119.474 183.063 121.862C176.007 124.196 166.907 121.482 162.698 114.643Z" fill="#BF6565"/>
<path d="M188.882 111.007C188.263 106.719 185.725 102.594 182.878 99.229C180.835 99.4461 178.978 98.7948 177.121 98.7948C175.883 98.7948 174.645 99.1204 173.469 99.4461C171.921 99.826 170.312 100.26 169.012 101.074C167.959 101.671 166.969 102.54 165.731 102.377C165.979 105.416 165.917 107.316 165.731 108.239C165.545 109.053 164.679 113.124 164.679 116.326C163.379 115.838 163.626 117.14 162.203 117.086C161.522 117.032 160.717 116.815 160.284 116.38C159.85 115.946 159.665 115.295 159.603 114.752C159.479 114.155 159.355 113.558 158.984 113.069C158.489 112.364 157.498 111.984 157.189 111.224C156.755 110.193 157.746 109.162 157.746 108.076C157.746 107.262 157.189 106.502 156.755 105.742C156.26 104.928 155.827 104.168 156.198 103.354C156.57 102.431 157.808 101.997 158.427 101.183C159.231 100.043 158.674 98.3606 159.603 97.3293C160.655 96.1895 162.822 96.5152 164.307 95.7553C165.483 95.1583 166.164 93.8556 167.464 93.4214C168.888 92.9872 170.435 93.8013 171.983 93.6928C173.53 93.5842 175.016 92.4987 176.564 92.8244C177.678 93.0415 178.421 93.9642 179.535 94.1813C180.649 94.4527 182.073 94.0185 182.878 94.7241C183.311 95.104 183.373 95.701 183.62 96.1895C184.054 96.9494 185.044 97.3293 185.849 97.8178C186.468 98.1977 187.025 98.7948 187.087 99.5004C187.087 99.7175 187.087 99.9888 186.963 100.206C186.653 100.749 186.963 101.4 187.334 101.943C187.706 102.431 188.263 102.92 188.387 103.517C188.51 104.114 188.263 104.711 188.387 105.308C188.51 105.851 188.882 106.285 189.129 106.773C189.687 107.967 189.253 109.541 188.882 111.007Z" fill="#372247"/>
<path d="M186.901 99.3367C186.344 98.5768 185.539 97.9798 184.611 97.6541C183.311 97.1657 181.763 97.2199 180.649 96.4601C179.906 95.9716 179.349 95.1574 178.483 94.8318C176.997 94.289 175.449 95.4288 173.84 95.4288C172.354 95.4831 170.931 94.5604 169.507 94.8861C167.898 95.2117 167.155 96.84 165.607 97.437C163.998 98.0341 161.707 97.3285 160.593 98.5226C160.036 99.1196 160.036 99.9337 159.789 100.639C159.355 101.996 158.117 103.028 157.251 104.222C156.941 104.656 156.694 105.144 156.508 105.633C156.013 104.819 155.579 104.059 155.951 103.245C156.322 102.322 157.56 101.888 158.179 101.074C158.984 99.9337 158.427 98.2512 159.355 97.2199C160.408 96.0801 162.574 96.4058 164.06 95.6459C165.236 95.0489 165.917 93.7462 167.217 93.312C168.64 92.8778 170.188 93.692 171.735 93.5834C173.283 93.4749 174.769 92.3893 176.316 92.715C177.43 92.9321 178.173 93.8548 179.287 94.0719C180.402 94.3433 181.825 93.9091 182.63 94.6147C183.063 94.9946 183.125 95.5916 183.373 96.0801C183.806 96.84 184.796 97.2199 185.601 97.7084C186.282 98.0341 186.839 98.6311 186.901 99.3367Z" fill="#5F436E"/>
<path d="M159.355 116.164C159.789 114.59 162.203 113.776 164.865 114.318C167.526 114.861 169.321 116.544 168.888 118.063C168.455 119.637 166.041 120.452 163.379 119.909C160.779 119.42 158.922 117.738 159.355 116.164Z" fill="#BF6565"/>
<path d="M174.769 103.134C173.531 102.483 172.107 101.994 170.621 101.994C169.136 101.994 167.65 102.7 167.031 103.84C169.817 103.351 171.426 103.188 174.769 103.134Z" fill="#372247"/>
<path d="M180.525 102.537C180.463 102.048 180.525 101.505 180.773 101.071C181.021 100.637 181.454 100.257 182.011 100.148C182.816 99.9856 183.62 100.42 184.301 100.8C182.94 101.071 181.516 101.777 180.525 102.537Z" fill="#372247"/>
<path d="M180.835 104.602C181.454 105.416 181.825 106.393 181.887 107.424" stroke="#6E2B39" stroke-width="0.360015" stroke-miterlimit="10" stroke-linecap="round"/>
<path d="M184.487 109.217C184.487 109.217 178.111 108.62 176.873 109.922C175.635 111.225 175.635 117.575 176.069 118.335C176.564 119.095 184.982 118.064 185.725 116.978C186.035 116.381 184.487 109.217 184.487 109.217Z" fill="white"/>
<path d="M172.664 104.438C173.159 104.438 173.469 104.872 173.469 105.306C173.469 105.794 173.097 106.174 172.602 106.174C172.107 106.174 171.797 105.74 171.797 105.306C171.859 104.817 172.231 104.438 172.664 104.438Z" fill="#313A47"/>
<path d="M183.311 103.623C183.806 103.623 184.116 104.057 184.116 104.491C184.116 104.98 183.744 105.36 183.249 105.36C182.754 105.36 182.444 104.926 182.444 104.491C182.506 104.003 182.878 103.623 183.311 103.623Z" fill="#313A47"/>
<path d="M257.282 140.368C257.282 140.368 237.784 142.376 228.065 142.484C226.332 142.484 224.908 142.43 223.98 142.321C214.88 141.073 204.853 137.871 204.853 137.871C204.853 137.871 204.481 140.693 203.367 141.942L193.091 122.076L192.472 120.882C192.472 120.882 199.281 117.789 203.119 119.417C206.957 121.045 209.248 123.27 210.052 123.922C210.857 124.573 223.794 130.109 225.342 130.435C226.889 130.761 229.922 129.946 235.06 131.032C244.531 132.932 256.849 133.692 256.849 133.692L257.282 140.368Z" fill="#BF6565"/>
<path d="M228.065 142.484C226.332 142.484 224.908 142.43 223.98 142.321C214.88 141.073 204.853 137.871 204.853 137.871C204.853 137.871 204.481 140.693 203.367 141.941L193.091 122.076C198.539 125.17 202.934 129.729 205.286 135.32C212.219 139.065 220.08 141.453 228.065 142.484Z" fill="#91474C"/>
<path d="M254.373 134.343C257.406 132.281 261.863 128.373 263.658 128.156C264.772 127.993 268.734 128.536 271.272 129.35C273.005 129.893 274.986 131.141 275.419 132.389C275.543 132.769 275.11 133.204 274.615 133.312C274.181 133.421 273.624 133.312 273.253 133.095C272.82 132.878 272.51 132.607 272.077 132.335C270.839 131.521 269.415 131.358 267.991 131.521C270.096 132.064 271.829 133.258 273.377 134.615C273.748 134.886 274.058 135.212 274.305 135.592C274.491 135.972 274.615 136.46 274.367 136.84C273.872 137.546 273.067 137.383 273.067 137.383C273.067 137.383 272.943 138.197 272.634 138.414C271.891 138.957 271.334 138.631 270.963 138.74C270.653 139.282 270.22 139.337 269.539 139.228C268.796 139.174 268.177 138.848 267.496 138.631C266.815 138.414 266.072 138.197 265.515 138.631C262.792 140.531 259.016 141.182 255.673 140.259C255.24 138.306 254.745 136.352 254.373 134.343Z" fill="#BF6565"/>
<path d="M272.82 137.054C271.644 135.751 270.034 134.829 268.177 134.395" stroke="#6E2B39" stroke-width="0.360015" stroke-miterlimit="10" stroke-linecap="round"/>
<path d="M270.405 138.302C269.106 137.217 267.558 136.348 265.825 135.914" stroke="#6E2B39" stroke-width="0.360015" stroke-miterlimit="10" stroke-linecap="round"/>
<path d="M259.263 131.953C261.801 131.464 264.339 130.921 266.877 130.433C267.62 130.27 268.61 130.162 269.044 130.759C269.415 131.193 269.229 131.844 268.796 132.224C267.868 133.038 266.258 133.527 265.639 133.798C265.268 135.752 263.225 137.38 260.935 137.489" fill="#BF6565"/>
<path d="M259.263 131.953C261.801 131.464 264.339 130.921 266.877 130.433C267.62 130.27 268.61 130.162 269.044 130.759C269.415 131.193 269.229 131.844 268.796 132.224C267.868 133.038 266.258 133.527 265.639 133.798C265.268 135.752 263.225 137.38 260.935 137.489" stroke="#6E2B39" stroke-width="0.360015" stroke-miterlimit="10" stroke-linecap="round"/>
<path d="M166.722 149.054C165.36 148.077 164.246 147.155 163.008 146.123C161.77 145.146 160.47 144.115 158.613 142.867C156.26 142.65 153.722 142.378 151.123 142.053C146.851 141.564 142.395 141.076 138.495 140.913C130.757 140.207 118.315 136.788 107.854 132.554C106.864 132.174 105.935 131.794 105.007 131.36C105.564 129.352 101.788 123.49 102.035 123.219C102.964 123.544 109.525 125.553 110.516 125.77C116.273 126.964 123.515 126.638 128.962 127.669C132.986 128.429 135.586 129.623 138.433 130.166C140.166 130.492 147.409 130.546 151.494 130.329C152.918 130.275 153.97 130.112 154.28 130.003C156.632 128.918 160.593 128.158 164.122 127.832C165.669 127.669 167.155 127.615 168.393 127.669C172.416 133.965 172.602 143.572 166.722 149.054Z" fill="#BF6565"/>
<path d="M166.722 149.055C165.36 148.078 164.246 147.156 163.008 146.124C163.936 145.582 164.741 144.822 165.236 143.953C166.288 142.216 166.474 140.154 166.598 138.2C166.784 136.137 166.907 134.075 166.474 132.067C166.165 130.493 165.422 128.973 164.184 127.779C165.731 127.616 167.217 127.562 168.455 127.616C172.416 133.966 172.602 143.573 166.722 149.055Z" fill="#91474C"/>
<path d="M151.123 142.052C146.852 141.564 142.395 141.075 138.495 140.913C130.757 140.207 118.315 136.788 107.854 132.554C109.402 131.523 110.578 128.538 110.516 125.77C116.273 126.964 123.515 126.638 128.962 127.669C132.986 128.429 135.586 129.623 138.433 130.166C140.166 130.492 147.409 130.546 151.494 130.329C153.846 134.237 153.289 139.339 151.123 142.052Z" fill="white"/>
<path d="M215.871 206.969L218.347 210.985C218.347 210.985 203.305 213.916 191.73 207.457L189.006 202.138L214.695 201.27L215.871 206.969Z" fill="#C47123"/>
<path d="M190.058 275.629C190.058 276.009 189.934 276.498 189.749 276.878C189.254 277.963 188.139 278.886 185.973 278.886C182.94 278.832 175.45 270.419 175.388 267.271C175.326 262.983 173.964 264.068 172.974 263.091C170.993 261.192 170.745 256.47 171.179 255.384C171.488 254.733 172.664 254.19 174.088 253.81C177.121 252.996 181.392 252.725 181.392 252.725L189.377 258.966C188.511 264.34 190.182 274.218 190.058 275.629Z" fill="#8B94B0"/>
<path d="M189.749 276.931C189.254 278.016 188.139 278.939 185.973 278.939C182.94 278.885 175.45 270.472 175.388 267.324C175.326 263.036 173.964 264.122 172.974 263.145C170.993 261.245 170.745 256.523 171.179 255.437C171.488 254.786 172.664 254.243 174.088 253.863C173.407 256.306 173.84 259.074 175.388 261.191C176.131 262.222 177.121 263.145 177.554 264.284C177.988 265.261 177.988 266.293 178.173 267.324C178.73 270.255 180.649 273.023 183.373 274.76C185.292 275.954 187.458 276.714 189.749 276.931Z" fill="#D1DBE8"/>
<path d="M216.366 224.015C215.623 226.077 211.6 231.559 206.833 237.746C198.477 248.602 187.768 261.52 187.768 261.52C183.868 261.248 180.773 255.549 180.649 253.487C180.649 253.487 185.973 243.825 187.149 239.972C188.758 234.924 189.934 231.885 191.853 229.279C193.587 227.054 195.877 225.154 199.529 222.658L195.32 212.02L192.101 203.878L214.447 203.77C214.447 203.77 215.499 207.569 216.18 212.074C216.985 216.362 217.418 221.246 216.366 224.015Z" fill="#BF6565"/>
<path d="M216.304 212.074C212.157 210.608 203.986 208.709 195.444 212.02L192.225 203.878L214.571 203.77C214.571 203.824 215.561 207.623 216.304 212.074Z" fill="#91474C"/>
<path d="M206.895 237.742C198.539 248.598 187.83 261.516 187.83 261.516C183.93 261.244 180.835 255.545 180.711 253.483C180.711 253.483 186.035 243.821 187.211 239.968C188.82 234.92 189.996 231.881 191.915 229.275C193.525 231.881 195.939 234.16 198.848 235.626C201.324 236.928 204.11 237.58 206.895 237.742Z" fill="white"/>
<path d="M183.497 261.897C183.683 259.943 183.063 257.935 184.116 256.252C184.611 255.438 185.787 254.841 186.839 255.167C187.706 255.438 192.658 256.524 193.277 256.686C193.958 256.904 194.206 257.663 194.02 258.26C193.772 258.966 188.016 262.82 188.016 262.82C188.016 262.82 185.168 261.897 183.497 261.897Z" fill="#8B94B0"/>
<path d="M183.249 262.93C185.168 262.387 187.273 262.442 189.192 263.039" stroke="#D1DBE8" stroke-width="1.08004" stroke-miterlimit="10" stroke-linecap="round"/>
<path d="M183.249 266.347C185.168 266.022 187.211 266.022 189.13 266.293" stroke="#D1DBE8" stroke-width="1.08004" stroke-miterlimit="10" stroke-linecap="round"/>
<path d="M184.116 270.148C185.849 269.605 187.768 269.442 189.563 269.659" stroke="#D1DBE8" stroke-width="1.08004" stroke-miterlimit="10" stroke-linecap="round"/>
<path d="M218.347 210.984C218.347 210.984 200.581 204.254 191.606 207.456L184.116 200.671C184.116 200.671 171.798 198.555 170.56 191.01C170.188 188.894 170.064 187.102 170.064 185.528C170.064 181.458 170.869 179.07 170.931 177.387C170.993 175.107 168.269 171.091 171.364 168.051C171.364 168.051 180.897 163.546 194.701 164.523C206.152 165.338 211.104 167.346 211.104 167.346C211.104 167.346 216.242 184.226 217.852 202.354C218.161 205.231 218.285 208.107 218.347 210.984Z" fill="#8FB0E0"/>
<path d="M218.347 210.983C218.347 210.983 200.581 204.253 191.606 207.455L184.116 200.671C184.116 200.671 171.798 198.554 170.56 191.01C170.188 188.893 170.064 187.102 170.064 185.528C171.426 186.83 174.645 192.095 181.206 188.73C185.292 186.613 186.963 180.426 190.863 178.038C193.71 176.301 197.301 175.975 201.819 175.324C197.424 171.416 191.915 168.431 185.973 166.748C190.058 166.857 194.144 168.159 197.424 170.33C199.467 171.687 201.262 173.424 203.615 174.13C206.029 174.889 209.309 174.13 209.866 171.959C209.619 174.184 208.257 176.246 206.276 177.603C208.009 178.743 210.052 179.557 212.219 179.991C210.052 181.077 207.514 181.674 205.038 181.565C205.286 187.807 209.495 193.778 215.685 196.817C213.519 197.794 210.981 198.065 208.567 197.523C211.105 199.802 214.323 201.485 217.852 202.353C218.161 205.23 218.285 208.107 218.347 210.983Z" fill="#8FB0E0"/>
<path d="M185.106 220.702C185.106 220.702 183.621 231.774 181.949 237.202C181.949 237.256 181.887 237.31 181.887 237.365C181.578 238.287 181.268 239.047 180.959 239.536C177.616 244.855 163.503 243.281 165.298 232.426C165.298 232.317 165.298 232.263 165.36 232.154C165.36 232.046 165.422 231.937 165.422 231.774C166.845 225.424 173.902 217.445 173.902 217.445L185.106 220.702Z" fill="#8B94B0"/>
<path d="M181.887 237.364C181.578 238.287 181.268 239.046 180.959 239.535C177.616 244.854 163.503 243.28 165.298 232.425C165.298 232.316 165.298 232.262 165.36 232.153C165.36 232.045 165.422 231.936 165.422 231.773C165.669 233.239 166.35 234.65 167.403 235.844C169.631 238.341 173.469 239.698 177.059 239.209C178.854 238.992 180.526 238.341 181.887 237.364Z" fill="#D1DBE8"/>
<path d="M198.786 177.986L200.891 173.807C200.891 173.807 194.763 170.17 189.687 171.147C184.301 172.178 175.45 179.506 179.473 195.897L198.786 177.986Z" fill="#B55C62"/>
<path d="M203.367 177.554C202.872 181.299 201.881 182.981 201.881 182.981C201.881 182.981 200.767 188.789 195.567 198.016C191.915 204.475 188.263 213.43 186.406 218.152C185.601 220.16 185.168 221.409 185.168 221.409C182.754 226.457 173.283 224.937 173.221 219.183C173.221 219.183 175.14 211.802 176.316 206.7C176.688 205.072 176.935 203.66 177.059 202.792C177.43 199.318 178.73 184.338 186.035 178.802C190.058 175.708 191.42 171.583 197.177 172.452C197.053 172.452 203.862 173.808 203.367 177.554Z" fill="#BF6565"/>
<path d="M186.344 218.152C185.539 220.16 185.106 221.408 185.106 221.408C182.692 226.456 173.221 224.936 173.159 219.183C173.159 219.183 175.078 211.801 176.254 206.699C176.873 208.979 177.74 211.15 179.164 213.104C180.773 215.383 183.435 217.283 186.344 218.152Z" fill="#B55C62"/>
<path d="M193.648 174.568C193.277 176.577 193.71 178.693 194.763 180.484C193.401 180.213 192.225 179.182 191.977 177.988C191.729 176.794 192.348 175.437 193.648 174.568Z" fill="#91474C"/>
<path d="M173.716 223.739C173.902 221.676 174.15 219.614 174.335 217.551C174.397 217.117 174.397 216.683 174.645 216.303C174.831 215.923 175.202 215.543 175.697 215.489C176.378 215.38 176.935 215.923 177.492 216.303C178.483 217.063 179.783 217.443 181.083 217.388C181.64 217.388 182.197 217.28 182.754 217.28C183.311 217.28 183.93 217.443 184.24 217.877C184.797 218.474 184.549 219.397 184.301 220.156C183.93 221.188 183.435 222.273 182.94 223.25C182.506 224.064 182.011 224.879 181.083 225.204C180.402 225.476 179.659 225.367 178.916 225.258C177.121 225.096 175.14 224.824 173.716 223.739Z" fill="#8B94B0"/>
<path d="M173.84 224.341C176.069 223.961 178.359 224.449 180.278 225.698" stroke="#D1DBE8" stroke-width="1.08004" stroke-miterlimit="10" stroke-linecap="round"/>
<path d="M172.788 227.327C175.016 226.947 177.307 227.436 179.226 228.684" stroke="#D1DBE8" stroke-width="1.08004" stroke-miterlimit="10" stroke-linecap="round"/>
<path d="M171.921 230.636C174.15 230.256 176.44 230.744 178.359 231.992" stroke="#D1DBE8" stroke-width="1.08004" stroke-miterlimit="10" stroke-linecap="round"/>
<path d="M210.857 165.933C210.857 165.933 203.058 163.544 195.568 163.002C187.025 162.405 174.026 164.738 170.931 167.289C170.931 167.289 169.445 166.638 169.507 164.956C169.507 164.521 169.631 163.979 169.941 163.382C170.931 161.319 169.879 160.071 168.641 158.497C168.146 157.845 167.588 157.14 167.155 156.271C166.103 154.209 165.05 152.255 164.493 151.278C164.246 150.844 164.122 150.627 164.122 150.627C164.122 150.627 171.612 141.345 165.669 126.637L166.536 126.528L169.569 126.202L170.683 126.094C170.683 126.094 175.512 132.336 183.435 131.087C190.677 129.947 189.501 125.714 188.82 120.883L189.687 120.666L191.73 120.178L193.03 119.906C193.03 119.906 197.548 125.551 199.653 130.327C200.829 133.041 203.181 136.569 204.976 139.5C206.338 141.725 207.391 143.625 207.391 144.548C207.329 146.61 208.133 154.372 208.133 154.372C208.133 154.372 211.29 163.273 210.857 165.933Z" fill="#8FB0E0"/>
<path d="M173.345 129.783C181.392 137.49 192.287 142.864 203.924 144.926C191.977 145.198 180.03 139.336 173.345 129.783Z" fill="#9FC3F9"/>
<path d="M180.526 161.317C180.216 161.968 179.226 162.076 178.421 162.076C175.202 162.239 171.921 163.162 169.507 164.953C169.507 164.519 169.631 163.976 169.941 163.379C170.931 161.317 169.879 160.068 168.641 158.494C171.117 159.851 174.088 160.394 176.935 159.905C177.74 159.742 178.607 159.525 179.411 159.743C180.154 159.905 180.835 160.665 180.526 161.317Z" fill="#9FC3F9"/>
<path d="M164.493 151.223C164.246 150.788 164.122 150.571 164.122 150.571C164.122 150.571 171.612 141.29 165.669 126.581L166.536 126.473C170.683 134.288 169.817 144.004 164.493 151.223Z" fill="#3A424F"/>
<path d="M189.563 128.972C188.139 130.763 185.725 131.577 183.806 131.957C180.897 132.5 177.678 132.174 175.016 130.926C172.664 129.84 170.745 128.158 169.631 126.149L170.745 126.041C170.745 126.041 175.574 132.283 183.497 131.034C190.739 129.895 189.563 125.661 188.882 120.83L189.749 120.613C190.12 121.97 191.482 126.584 189.563 128.972Z" fill="#3A424F"/>
<path d="M204.976 139.337C202.5 136.84 200.581 133.801 198.91 130.815C196.805 127.125 194.763 123.271 191.792 120.123L193.091 119.852C193.091 119.852 197.61 125.496 199.715 130.273C200.829 132.932 203.181 136.406 204.976 139.337Z" fill="#3A424F"/>
<path d="M185.54 145.847C185.23 146.715 184.487 147.53 183.435 147.855C183.497 148.398 183.621 148.941 183.806 149.592C184.425 149.538 184.982 149.484 185.849 149.538C185.973 151.98 186.406 154.423 187.149 156.865C186.592 156.974 186.035 157.082 185.416 157.191C185.478 157.842 185.601 158.493 185.849 159.199C187.582 158.819 189.316 158.602 191.173 158.548C191.049 157.896 190.925 157.245 190.801 156.485C190.244 156.485 189.749 156.485 189.192 156.431C188.387 153.446 187.768 150.569 187.892 145.847C186.716 145.847 186.716 145.739 185.54 145.847Z" fill="#3A424F"/>
<path d="M192.844 156.158L191.915 148.288C191.73 146.769 193.03 145.466 194.639 145.412L197.486 145.357C198.91 145.357 200.148 146.334 200.334 147.637L201.262 155.399C201.448 156.864 200.272 158.167 198.663 158.275L195.815 158.438C194.268 158.547 192.968 157.515 192.844 156.158Z" fill="#3A424F"/>
<path d="M194.701 154.802L194.206 149.646C194.082 148.669 194.763 147.8 195.568 147.746H196.991C197.734 147.746 198.353 148.397 198.415 149.266L198.91 154.368C199.034 155.345 198.415 156.159 197.61 156.267L196.187 156.376C195.444 156.376 194.763 155.725 194.701 154.802Z" fill="#8FB0E0"/>
<path d="M103.15 124.465C103.459 124.193 103.769 123.976 104.016 123.705C104.016 123.65 104.264 123.325 104.326 123.216C104.821 122.673 105.378 122.293 106.183 122.185C106.554 121.751 106.988 121.316 107.421 120.882L105.316 115.617C105.316 115.617 95.6598 111.384 93.1837 114.315C90.7077 117.246 94.0504 123.867 94.0504 123.867L99.869 127.938C100.798 126.636 101.912 125.55 103.15 124.465Z" fill="#91474C"/>
<path d="M124.072 113.664C124.01 115.781 123.453 117.735 122.401 119.472C122.091 120.015 121.72 120.557 121.287 121.1C121.101 121.317 120.915 121.534 120.73 121.751C120.606 121.914 120.482 122.023 120.358 122.186L120.296 122.24H120.234L119.987 122.457L119.677 122.783C119.677 122.783 119.677 122.783 119.615 122.837C119.492 122.946 119.43 123 119.306 123.108C118.687 123.651 118.006 124.085 117.325 124.52C117.139 124.628 116.954 124.737 116.768 124.845C116.644 124.899 116.52 124.954 116.397 125.008C116.025 125.225 115.654 125.388 115.282 125.551C115.097 125.605 114.973 125.659 114.787 125.768C114.663 125.822 114.54 125.876 114.354 125.931C114.106 125.985 113.859 126.094 113.611 126.148C113.302 126.256 112.93 126.365 112.621 126.419C112.311 126.473 112.002 126.528 111.692 126.636C111.506 126.691 111.259 126.691 111.073 126.745C110.887 126.745 110.764 126.799 110.578 126.799C110.083 126.853 109.588 126.908 109.092 126.908C108.907 126.908 108.721 126.908 108.535 126.908C108.473 126.908 108.411 126.908 108.35 126.908H108.288C107.731 126.908 107.173 126.853 106.616 126.799C106.431 126.799 106.183 126.745 105.997 126.745C105.564 126.691 105.193 126.636 104.821 126.528C104.635 126.473 104.45 126.473 104.264 126.419H104.202C103.831 126.311 103.521 126.256 103.212 126.148C103.088 126.094 102.964 126.094 102.84 126.039C102.778 125.985 102.655 125.985 102.593 125.931C102.469 125.876 102.283 125.822 102.159 125.768C102.036 125.714 101.85 125.659 101.726 125.605C101.602 125.551 101.479 125.496 101.355 125.442C101.293 125.442 101.231 125.388 101.169 125.388C101.045 125.334 100.921 125.279 100.86 125.225C100.736 125.171 100.612 125.062 100.488 125.008C100.302 124.899 100.179 124.845 99.9929 124.737C99.6834 124.574 99.3739 124.357 99.0644 124.14C98.8787 124.031 98.693 123.868 98.5073 123.705C98.3835 123.597 98.2597 123.543 98.1359 123.434C98.0121 123.325 97.8883 123.217 97.7645 123.108C97.5788 122.946 97.455 122.837 97.2693 122.674C97.1455 122.566 96.9598 122.403 96.836 122.24C96.6503 122.077 96.5265 121.914 96.4027 121.751C96.3408 121.643 96.217 121.589 96.1551 121.48C96.0313 121.372 95.9075 121.209 95.8456 121.1C95.8456 121.046 95.7837 121.046 95.7837 120.992L95.7218 120.883L95.598 120.72L95.2266 120.232C94.979 119.852 94.7314 119.418 94.4838 118.983C94.36 118.766 94.2981 118.549 94.1743 118.332C93.9886 118.006 93.8648 117.626 93.741 117.247C93.6791 117.138 93.6791 117.084 93.6791 116.975C93.5553 116.649 93.4934 116.324 93.4315 115.998C93.4315 115.89 93.3696 115.781 93.3696 115.727C93.3077 115.347 93.2458 114.967 93.1839 114.587C93.1839 114.424 93.1838 114.316 93.1219 114.153C93.1219 114.098 93.1219 113.99 93.1219 113.936C93.1219 113.881 93.1219 113.827 93.1219 113.773C93.1219 113.556 93.1219 113.339 93.1219 113.121C93.1219 112.904 93.122 112.633 93.1839 112.416C93.1839 112.199 93.2457 111.982 93.2457 111.765C93.2457 111.547 93.3077 111.385 93.3696 111.168C93.3696 111.059 93.3696 111.005 93.4315 110.896C93.4934 110.679 93.4934 110.516 93.5553 110.299C93.9886 108.671 94.7314 107.205 95.7218 105.848L96.2789 105.143C96.4646 104.926 96.7122 104.654 96.8979 104.437C99.0025 102.321 101.85 100.801 105.069 100.149C105.626 100.041 106.245 99.9324 106.802 99.8781C107.483 99.8238 108.164 99.7695 108.845 99.7695C112.002 99.8238 114.911 100.692 117.325 102.212C117.635 102.375 117.882 102.592 118.13 102.755C121.349 105.034 123.515 108.399 123.825 112.253C123.825 112.579 123.887 112.85 123.887 113.176C124.072 113.393 124.072 113.501 124.072 113.664Z" fill="#F78431"/>
<path opacity="0.5882" d="M121.287 121.1C121.101 121.317 120.915 121.534 120.73 121.751C120.606 121.914 120.482 122.023 120.358 122.185C120.358 122.185 120.358 122.185 120.296 122.24H120.234L119.987 122.457L119.677 122.782C119.677 122.782 119.677 122.782 119.615 122.837C119.492 122.945 119.43 122.999 119.306 123.108C118.687 123.651 118.006 124.085 117.325 124.519C117.139 124.628 116.954 124.736 116.768 124.845C116.644 124.899 116.52 124.953 116.397 125.008C116.025 125.225 115.654 125.388 115.282 125.55C115.097 125.605 114.973 125.659 114.787 125.768C114.663 125.822 114.54 125.876 114.354 125.93C114.106 125.985 113.859 126.093 113.611 126.148C113.302 126.256 112.93 126.365 112.621 126.419C112.311 126.473 112.002 126.527 111.692 126.636C111.506 126.69 111.259 126.69 111.073 126.745C110.887 126.745 110.764 126.799 110.578 126.799C110.083 126.853 109.588 126.907 109.092 126.907C108.907 126.907 108.721 126.907 108.535 126.907C108.473 126.907 108.411 126.907 108.35 126.907H108.288C107.731 126.907 107.173 126.853 106.616 126.799C106.431 126.799 106.183 126.745 105.997 126.745C105.564 126.69 105.193 126.636 104.821 126.527C104.635 126.473 104.45 126.473 104.264 126.419H104.202C103.831 126.31 103.521 126.256 103.212 126.148C103.088 126.093 102.964 126.093 102.84 126.039C102.778 125.985 102.655 125.985 102.593 125.93C102.469 125.876 102.283 125.822 102.159 125.768C102.036 125.713 101.85 125.659 101.726 125.605C101.602 125.55 101.479 125.496 101.355 125.442C101.293 125.442 101.231 125.388 101.169 125.388C101.045 125.333 100.921 125.279 100.86 125.225C100.736 125.171 100.612 125.062 100.488 125.008C100.302 124.899 100.179 124.845 99.9929 124.736C99.6834 124.574 99.3739 124.356 99.0644 124.139C98.8787 124.031 98.693 123.868 98.5073 123.705C98.3835 123.597 98.2597 123.542 98.1359 123.434C98.0121 123.325 97.8883 123.217 97.7645 123.108C97.5788 122.945 97.455 122.837 97.2693 122.674C97.1455 122.565 96.9598 122.402 96.836 122.24C96.6503 122.077 96.5265 121.914 96.4027 121.751C96.3408 121.643 96.217 121.588 96.1551 121.48C96.0313 121.371 95.9075 121.208 95.8456 121.1C95.8456 121.046 95.7837 121.046 95.7837 120.991L95.7218 120.883L95.598 120.72L95.2266 120.231C94.979 119.851 94.7314 119.417 94.4838 118.983C94.36 118.766 94.2981 118.549 94.1743 118.332C93.9886 118.006 93.8648 117.626 93.741 117.246C93.6791 117.138 93.6791 117.083 93.6791 116.975C93.5553 116.649 93.4934 116.323 93.4315 115.998C93.4315 115.889 93.3696 115.781 93.3696 115.726C93.3077 115.347 93.2458 114.967 93.1839 114.587C93.1839 114.424 93.1838 114.315 93.1219 114.152C93.1219 114.098 93.1219 113.99 93.1219 113.935C93.1219 113.881 93.1219 113.827 93.1219 113.773C93.1219 113.555 93.1219 113.338 93.1219 113.121C93.1219 112.904 93.122 112.633 93.1839 112.416C93.1839 112.198 93.2457 111.981 93.2457 111.764C93.2457 111.547 93.3077 111.384 93.3696 111.167C93.3696 111.059 93.3696 111.004 93.4315 110.896C93.4934 110.679 93.4934 110.516 93.5553 110.299C93.5553 111.493 93.741 112.687 94.0505 113.773C94.1124 113.99 94.1743 114.207 94.2362 114.424C94.6695 115.672 95.2266 116.812 95.9694 117.898C96.1551 118.115 96.3408 118.386 96.4646 118.603C97.8883 120.394 99.7453 121.914 101.912 122.999C102.407 123.271 102.964 123.488 103.521 123.705C105.378 124.411 107.483 124.845 109.649 124.899C112.93 124.953 116.025 124.139 118.687 122.728C119.058 122.511 119.368 122.348 119.677 122.131C120.358 121.805 120.853 121.48 121.287 121.1Z" fill="#F07030"/>
<path d="M124.072 113.663C124.01 115.78 123.453 117.733 122.401 119.47C120.73 120.556 118.811 121.37 116.706 121.858C116.087 122.021 115.406 122.13 114.787 122.184C113.487 122.347 112.126 122.347 110.764 122.238C105.255 121.696 100.736 118.982 98.2598 115.182C98.136 114.965 97.9503 114.748 97.8265 114.477C96.5884 112.306 96.0313 109.918 96.3408 107.367C96.3408 107.312 96.3408 107.312 96.3408 107.258C96.4027 106.824 96.4646 106.335 96.5884 105.901C96.7122 105.413 96.836 104.979 97.0217 104.49C99.1264 102.373 101.974 100.854 105.193 100.202C105.75 100.094 106.369 99.9851 106.926 99.9308C107.607 99.8765 108.288 99.8223 108.969 99.8223C112.126 99.8765 115.035 100.745 117.449 102.265C117.758 102.428 118.006 102.645 118.254 102.807C121.473 105.087 123.639 108.452 123.949 112.306C123.949 112.631 124.01 112.903 124.01 113.229C124.072 113.391 124.072 113.5 124.072 113.663Z" fill="#F78F39"/>
<path d="M95.8454 120.886C96.0311 120.126 96.2788 119.367 96.5883 118.607C96.8978 117.738 97.3311 116.87 97.7644 116.001C97.8882 115.784 98.012 115.567 98.1358 115.35C98.1977 115.296 98.2596 115.187 98.2596 115.133C98.6929 114.427 99.1262 113.722 99.6214 113.071C99.7452 112.853 99.9309 112.691 100.055 112.473C100.55 111.876 101.045 111.279 101.602 110.737C102.221 110.14 102.84 109.543 103.521 109C103.707 108.837 103.893 108.674 104.078 108.566C108.04 105.526 113.054 103.518 118.254 102.812C118.006 102.595 117.696 102.432 117.449 102.27C112.373 103.029 107.545 105.038 103.645 108.023C103.459 108.186 103.274 108.294 103.088 108.457C102.345 109.054 101.664 109.651 101.045 110.302C100.55 110.791 100.055 111.334 99.6214 111.876C99.4357 112.094 99.3119 112.256 99.1262 112.473C98.631 113.125 98.1977 113.776 97.7644 114.427C97.6406 114.59 97.5787 114.753 97.5168 114.862C97.393 115.079 97.2692 115.242 97.1454 115.459C96.7121 116.219 96.3406 117.033 96.0311 117.847C95.7216 118.607 95.474 119.312 95.2264 120.072L95.8454 120.886Z" fill="#332726"/>
<path d="M124.072 113.233C121.411 111.008 117.573 109.814 113.921 110.139C113.178 110.194 112.373 110.302 111.63 110.411C109.464 110.737 107.235 111.062 105.254 110.194C104.574 109.922 104.016 109.488 103.583 109C103.397 108.837 103.274 108.62 103.15 108.457C101.974 106.774 101.912 104.495 102.84 102.812C103.397 101.835 104.202 100.913 105.254 100.207C105.812 100.098 106.431 99.9898 106.988 99.9355C105.44 100.75 104.202 101.835 103.521 103.084C102.717 104.549 102.778 106.557 103.707 108.023C103.831 108.24 103.955 108.403 104.14 108.565C104.512 109 105.007 109.38 105.626 109.597C107.421 110.357 109.402 110.085 111.568 109.76C112.311 109.651 113.116 109.542 113.921 109.488C117.573 109.217 121.287 110.248 124.072 112.311C124.072 112.636 124.072 112.962 124.072 113.233Z" fill="#332726"/>
<path d="M119.677 122.786C119.368 122.786 119.12 122.786 118.811 122.732C117.449 122.623 116.087 122.461 114.725 122.135C110.702 121.267 106.864 119.584 103.769 117.196C102.159 116.002 100.798 114.591 99.6214 113.071C99.4976 112.854 99.3119 112.691 99.1881 112.474C98.012 110.845 97.0216 109.109 96.3407 107.318C96.155 106.829 95.9693 106.341 95.8455 105.852L96.4026 105.146C96.4645 105.364 96.5264 105.635 96.5883 105.852C97.2692 107.969 98.2596 110.031 99.6214 111.877C99.7452 112.094 99.9309 112.257 100.055 112.474C101.231 114.048 102.655 115.459 104.264 116.653C107.73 119.313 112.125 121.104 116.644 121.809C117.696 121.972 118.749 122.081 119.801 122.135C119.987 122.135 120.111 122.135 120.296 122.135L119.677 122.786Z" fill="#332726"/>
<path d="M108.349 126.856L106.616 126.747C104.821 125.77 103.274 124.522 102.098 123.002C101.664 122.459 101.293 121.917 100.921 121.32C100.55 120.723 100.241 120.071 99.9929 119.474C99.6834 118.823 99.312 118.117 98.9406 117.466C98.5692 116.923 98.1978 116.381 97.8264 116.001C97.6407 115.838 97.455 115.621 97.2693 115.512C96.836 115.132 96.3408 114.861 95.8456 114.698C95.4122 114.535 94.917 114.427 94.4218 114.427C94.0504 114.427 93.7409 114.481 93.3695 114.535C93.3695 114.372 93.3695 114.264 93.3076 114.101C93.3076 114.047 93.3076 113.938 93.3076 113.884C93.6171 113.83 93.8647 113.775 94.1742 113.775C94.7932 113.721 95.4741 113.83 96.0932 114.101C96.6503 114.318 97.1455 114.589 97.5788 114.915C97.7645 115.078 97.9502 115.241 98.1359 115.404C98.693 115.892 99.1263 116.489 99.5596 117.195C99.9929 117.846 100.302 118.552 100.612 119.257C100.921 119.854 101.169 120.451 101.54 121.048C102.098 122.025 102.84 122.948 103.645 123.762C105.007 125.01 106.616 126.096 108.349 126.856Z" fill="#332726"/>
<path d="M105.378 131.523C105.378 131.523 98.3835 129.406 96.0931 127.724C93.8028 126.041 93.1838 122.459 93.4933 120.776C93.679 119.691 94.5456 118.388 96.0931 116.923C97.7026 115.457 98.0121 117.52 97.7026 118.442C97.3312 119.365 96.8978 121.21 96.8978 121.21L97.5788 123.273C97.5788 123.273 101.974 123.002 103.955 126.095C105.812 129.189 105.378 131.523 105.378 131.523Z" fill="#BF6565"/>
<path d="M124.01 246.047L126.858 247.35L131.562 237.58L124.134 238.286L124.01 246.047Z" fill="#6F7B9E"/>
<path d="M218.904 238.991C219.338 240.077 220.142 240.837 221.38 241.325C228.437 240.945 230.913 236.494 236.422 234.323C242.117 232.044 248.617 231.718 254.188 229.221C260.13 226.616 262.544 222.871 262.544 222.871C262.544 222.871 261.802 220.863 261.368 220.917C248.121 226.128 234.132 231.501 218.904 238.991Z" fill="#2E191F"/>
<path d="M222.433 240.728C222.804 241.217 223.237 241.651 223.609 242.139C224.29 242.085 224.909 241.922 225.528 241.651C225.404 241.163 225.342 240.674 225.218 240.186" fill="#2E191F"/>
<path d="M225.961 239.699C226.394 240.133 226.828 240.567 227.261 241.056C227.942 240.947 228.623 240.622 229.118 240.187C228.994 239.699 228.685 239.102 228.561 238.613" fill="#2E191F"/>
<path d="M229.923 237.257C230.356 237.692 230.789 238.126 231.223 238.614C231.903 238.506 232.584 238.18 233.08 237.746C232.956 237.257 232.646 236.66 232.522 236.172" fill="#2E191F"/>
<path d="M242.612 232.101C242.984 232.589 243.355 233.078 243.727 233.566C244.407 233.512 245.088 233.241 245.707 232.861C245.645 232.372 245.398 231.721 245.336 231.232" fill="#2E191F"/>
<path d="M248.369 230.525C248.74 231.013 249.112 231.502 249.483 231.99C250.164 231.936 250.845 231.664 251.464 231.285C251.402 230.796 251.155 230.145 251.093 229.656" fill="#2E191F"/>
<path d="M254.064 228.519C254.435 229.007 254.807 229.496 255.178 229.984C255.859 229.93 256.54 229.659 257.159 229.279C257.097 228.79 256.849 228.139 256.788 227.65" fill="#2E191F"/>
<path d="M258.706 225.207C259.078 225.695 259.635 226.618 260.006 227.052C260.687 226.998 261.678 226.455 262.297 226.075C262.235 225.587 261.492 224.393 261.43 223.904" fill="#2E191F"/>
<path d="M215.128 227.591C215.128 227.591 214.881 238.338 218.719 239.695C223.547 241.378 230.17 236.276 232.275 234.756C234.318 233.29 243.974 230.631 247.317 229.98C250.659 229.328 262.483 224.932 261.802 220.101C261.306 216.519 258.149 216.085 255.673 216.573C250.164 217.659 231.285 217.822 225.218 218.039L215.128 227.591Z" fill="#CF3045"/>
<path d="M232.337 217.77C231.47 219.181 230.913 220.7 230.666 222.329" stroke="#F7D9D7" stroke-width="1.44006" stroke-miterlimit="10" stroke-linecap="round"/>
<path d="M236.732 217.77C235.865 219.181 235.308 220.7 235.06 222.329" stroke="#F7D9D7" stroke-width="1.44006" stroke-miterlimit="10" stroke-linecap="round"/>
<path d="M241.56 217.77C240.693 219.181 240.136 220.7 239.889 222.329" stroke="#F7D9D7" stroke-width="1.44006" stroke-miterlimit="10" stroke-linecap="round"/>
<path d="M227.137 218.311L215.871 230.523C215.871 230.523 204.482 230.143 198.353 229.981C193.463 229.818 180.774 231.663 168.641 228.841C165.484 228.135 162.389 227.05 159.48 225.584C159.48 225.584 147.595 232.532 135.834 237.416C130.386 239.696 125.001 241.487 120.854 241.921L129.148 212.992C129.148 212.992 131.624 212.449 135.091 211.635C142.395 210.007 154.28 207.51 157.685 207.402C158.923 207.347 163.813 207.999 170.436 209.03C190.74 212.015 227.137 218.311 227.137 218.311Z" fill="#F69887"/>
<path d="M227.137 218.312L215.871 230.524C215.871 230.524 204.482 230.144 198.353 229.982C193.463 229.819 180.774 231.664 168.641 228.842C167.836 227.322 167.341 225.639 167.032 223.957C166.351 220.537 166.289 217.009 167.527 213.699C168.146 211.962 169.198 210.333 170.498 208.977C190.74 212.016 227.137 218.312 227.137 218.312Z" fill="#271F64"/>
<path d="M135.896 237.416C130.448 239.696 125.063 241.487 120.916 241.921L129.21 212.992C129.21 212.992 131.686 212.449 135.153 211.635C133.543 215.434 127.229 231.446 135.896 237.416Z" fill="#DB6F60"/>
<path d="M230.542 218.202C228.685 215.76 226.642 214.349 223.547 213.046C223.052 212.829 222.495 212.666 221.937 212.775C221.009 212.992 220.638 213.969 220.699 214.729C220.761 215.543 221.009 216.357 220.699 217.117C220.39 217.768 219.647 218.365 219.833 219.017C219.957 219.614 220.638 219.939 221.257 220.265C223.114 221.133 224.971 222.002 226.828 222.87C228.189 221.513 228.87 219.559 230.542 218.202Z" fill="#CF3045"/>
<path d="M135.215 211.146C131.562 216.574 129.52 224.878 128.344 232.151C126.982 240.401 126.796 247.295 126.796 247.295C126.796 247.295 101.541 252.342 92.0078 250.063C86.0653 248.651 80.4324 244.852 78.761 236.059C76.8421 226.127 81.6085 215 81.6085 215L90.3984 216.086L99.8692 217.225L135.215 211.146Z" fill="#E4EAF0"/>
<path opacity="0.78" d="M135.215 211.146C131.562 216.574 129.52 224.878 128.344 232.151C128.344 231.392 128.282 230.632 128.096 229.872C127.725 228.298 126.858 226.724 125.372 225.801C123.949 224.933 122.092 224.716 120.358 224.553C114.416 224.064 108.288 224.173 102.655 225.855C97.0218 227.592 91.884 231.12 89.6556 235.951C90.7079 230.795 93.9267 226.018 98.5074 222.653C93.122 223.739 88.1081 225.91 83.775 228.949C87.6748 224.878 92.6887 221.622 98.3217 219.614C94.1124 218.474 89.7175 217.985 85.3225 218.094C86.9939 217.388 88.7271 216.737 90.3984 216.086L99.8692 217.225L135.215 211.146Z" fill="white"/>
<path d="M110.888 215.924C100.55 220.266 92.3173 228.896 88.6652 238.394C90.0889 228.299 99.0645 218.746 110.888 215.924Z" fill="#BDCBDE"/>
<path d="M110.887 215.924C101.602 218.529 88.5413 225.151 81.4227 230.958C87.0557 223.794 100.736 216.738 110.887 215.924Z" fill="#BDCBDE"/>
<path d="M157.375 174.404C157.375 174.404 174.769 178.801 175.512 185.368C176.255 191.881 171.179 194.378 167.465 194.269C161.151 194.052 146.914 187.973 146.914 187.973L157.375 174.404Z" fill="#DB6F60"/>
<path d="M65.8236 177.658C64.338 178.472 61.7382 179.449 58.705 180.481C47.9962 184.063 29.9831 188.459 29.9831 188.459L27.569 180.101C30.7259 178.527 42.3013 171.796 47.9343 169.571C50.5341 168.54 54.0625 167.943 57.0956 167.671C60.5621 167.346 63.4714 167.346 63.5333 167.346L65.8236 177.658Z" fill="#F69887"/>
<path d="M65.8236 177.66C64.338 178.474 61.7381 179.451 58.705 180.482C57.3432 176.411 56.7861 172.015 57.0956 167.619C60.562 167.293 63.4714 167.293 63.5333 167.293L65.8236 177.66Z" fill="#DB6F60"/>
<path d="M16.0555 192.097C16.0555 192.097 14.4461 196.059 20.76 195.788C23.1741 195.679 26.331 193.617 27.7547 191.88C29.1785 190.197 30.2308 188.243 32.2735 186.507C31.0355 184.553 29.9832 182.544 28.869 180.536C25.4644 179.125 21.7504 178.202 17.9744 177.822C16.984 177.714 15.9936 177.66 15.0651 177.985C13.889 178.419 13.0843 179.451 12.4653 180.482C11.5368 181.947 10.732 183.413 10.0511 184.987C9.61783 185.909 9.24643 186.941 9.49403 187.918C9.74163 189.166 10.9177 190.197 12.2177 190.74C13.4557 191.229 16.0555 192.097 16.0555 192.097Z" fill="#F69887"/>
<path d="M16.3031 191.827C17.2316 189.928 17.7268 187.865 17.8506 185.803" stroke="#BD3E42" stroke-width="0.360015" stroke-miterlimit="10" stroke-linecap="round"/>
<path d="M17.2317 189.387C16.3032 188.464 15.1271 187.65 13.889 187.107" stroke="#BD3E42" stroke-width="0.360015" stroke-miterlimit="10" stroke-linecap="round"/>
<path d="M99.7453 217.392C96.155 217.935 84.5177 218.803 79.7513 220.703C76.9039 220.323 76.2849 218.098 76.9039 216.361C77.5229 214.624 79.0704 213.267 80.556 211.964C78.2038 200.186 80.1846 191.774 81.794 184.772C75.4802 184.772 71.7661 184.718 66.0713 184.392C60.8716 179.453 58.3956 171.203 57.4052 163.93C65.4522 164.418 72.5708 162.899 80.6179 161.542C88.665 160.185 97.2692 157.634 105.935 160.293C125.434 161.867 144.623 166.589 162.265 174.242C156.694 180.376 151.185 186.509 146.357 192.425C142.642 192.425 137.752 191.991 133.976 191.665C132.986 194.813 130.881 201.38 130.015 204.637C131.5 207.351 132.181 209.413 131.748 212.073C119.739 214.407 102.902 216.849 99.7453 217.392Z" fill="url(#paint7_linear_5815_68679)"/>
<path d="M99.312 162.086C99.312 166.808 114.354 179.074 114.354 179.074C114.354 179.074 125.31 173.43 124.444 168.599C117.078 166.645 107.916 165.56 99.312 162.086Z" fill="#DB6F60"/>
<path d="M114.354 179.072C123.515 173.264 125.682 168.976 124.382 163.929C125.682 163.603 127.044 163.277 128.405 163.277C133.419 163.386 134.719 168.596 135.71 174.947C130.139 173.21 120.606 176.195 114.354 179.072Z" fill="url(#paint8_linear_5815_68679)"/>
<path d="M114.354 179.074C106.616 172.289 105.564 167.567 106.988 161.38C104.078 160.294 101.602 159.48 98.5073 160.077C95.9694 165.016 94.6075 168.056 94.6075 174.243C99.6215 173.32 109.278 175.654 114.354 179.074Z" fill="url(#paint9_linear_5815_68679)"/>
<path d="M134.162 190.852C136.081 186.184 137.567 181.353 138.495 176.414C138.99 181.407 137.505 186.564 134.162 190.852Z" fill="url(#paint10_linear_5815_68679)"/>
<path d="M135.091 189.547C139.238 185.694 142.581 181.134 144.871 176.195C144.128 179.072 143.076 181.894 141.343 184.391C139.609 186.888 137.195 189.113 135.091 189.547Z" fill="url(#paint11_linear_5815_68679)"/>
<path d="M127.539 204.963C119.677 203.552 111.506 203.335 103.583 204.312C111.321 201.544 120.42 201.761 127.539 204.963Z" fill="url(#paint12_linear_5815_68679)"/>
<path d="M83.0321 184.286C86.4366 179.944 88.6651 174.896 89.6555 169.686C90.0269 175.113 87.489 180.595 83.0321 184.286Z" fill="url(#paint13_linear_5815_68679)"/>
<path d="M83.8988 184.829C87.5509 182.278 90.7079 179.13 93.122 175.602C93.122 178.207 91.884 180.812 89.7794 182.657C87.5509 184.449 84.5178 185.48 83.8988 184.829Z" fill="url(#paint14_linear_5815_68679)"/>
<path d="M124.753 190.037C125.496 188.029 127.415 186.781 129.086 187.215C130.758 187.649 131.5 189.657 130.82 191.666C130.077 193.674 128.158 194.922 126.487 194.488C124.815 194.054 124.072 192.046 124.753 190.037Z" fill="#FFC061"/>
<path d="M157.87 178.802C161.275 178.53 164.679 178.259 168.022 178.965C171.302 179.67 174.521 181.515 175.635 184.338C176.873 187.432 175.326 191.068 172.231 193.022C169.198 194.922 165.05 195.139 161.522 193.999C158.056 192.859 155.208 190.417 153.289 187.594C154.899 184.718 156.446 181.95 157.87 178.802Z" fill="#F08678"/>
<path d="M145.923 179.887C144.004 180.701 142.766 182.655 143.014 184.5C143.261 186.346 144.809 188.028 146.79 188.734C148.771 189.385 151.185 189.059 152.918 188.028C151.432 184.989 149.266 182.275 145.923 179.887Z" fill="#F08678"/>
<path d="M164.184 182.656C163.379 179.997 160.717 177.989 158.18 176.252C155.704 174.569 152.237 173.647 149.328 174.623C147.656 175.166 146.233 176.306 145.18 177.609C144.499 178.423 144.004 179.4 144.004 180.377C144.004 181.408 144.747 182.439 146.109 183.036C145.737 183.959 145.985 185.099 146.666 185.859C147.347 186.619 148.523 187.053 150.38 186.998C150.318 187.867 150.751 188.681 151.494 189.224C152.237 189.767 153.289 189.984 154.713 190.092C155.085 191.449 157.065 192.155 158.613 191.829C160.16 191.449 161.336 190.309 162.203 189.115C163.317 187.541 165.112 185.642 164.184 182.656Z" fill="#F69887"/>
<path d="M146.356 182.547C147.533 180.702 149.204 179.128 151.123 177.934" stroke="#BD3E42" stroke-width="0.360015" stroke-miterlimit="10" stroke-linecap="round"/>
<path d="M150.69 186.781C152.361 185.316 153.908 183.633 155.146 181.896" stroke="#BD3E42" stroke-width="0.360015" stroke-miterlimit="10" stroke-linecap="round"/>
<path d="M155.456 189.657C157.065 188.3 158.365 186.617 159.294 184.826" stroke="#BD3E42" stroke-width="0.360015" stroke-miterlimit="10" stroke-linecap="round"/>
<path d="M129.829 156.219C133.172 154.97 136.638 155.676 137.69 157.793C138.743 159.91 136.886 162.623 133.543 163.872C130.2 165.12 126.734 164.414 125.682 162.298C124.691 160.181 126.548 157.467 129.829 156.219Z" fill="#DB6F60"/>
<path d="M97.8882 159.149C96.0931 149 102.593 139.664 112.497 138.307C122.401 136.95 131.5 139.176 133.667 154.21C135.152 164.414 131.872 173.967 122.03 175.324C112.125 176.681 99.6833 169.299 97.8882 159.149Z" fill="#F69887"/>
<path d="M118.811 157.956C117.696 156.816 115.901 156.219 114.168 156.165C112.435 156.11 110.702 156.545 109.092 157.087C112.187 157.467 115.282 157.684 118.811 157.956Z" fill="#271F64"/>
<path d="M126.982 157.142C126.92 155.894 127.786 154.754 128.962 154.049C130.139 153.343 131.748 153.397 132.862 153.723C130.881 154.808 129.024 156.057 126.982 157.142Z" fill="#271F64"/>
<path d="M116.211 163.658C116.826 163.658 117.325 163.123 117.325 162.464C117.325 161.804 116.826 161.27 116.211 161.27C115.596 161.27 115.097 161.804 115.097 162.464C115.097 163.123 115.596 163.658 116.211 163.658Z" fill="#323F6E"/>
<path d="M129.891 161.214C130.506 161.214 131.005 160.68 131.005 160.02C131.005 159.361 130.506 158.826 129.891 158.826C129.276 158.826 128.777 159.361 128.777 160.02C128.777 160.68 129.276 161.214 129.891 161.214Z" fill="#323F6E"/>
<path d="M127.044 161.051C127.539 162.462 127.539 164.036 126.92 165.447" stroke="#BD3E42" stroke-width="0.360015" stroke-miterlimit="10" stroke-linecap="round"/>
<path d="M126.486 171.797C127.043 171.309 127.229 170.875 127.477 170.169C127.724 169.463 127.724 168.758 127.415 168.106C127.105 167.455 126.424 166.912 125.62 166.858C124.815 166.804 124.072 167.238 123.391 167.727C122.339 168.541 121.411 169.518 121.225 170.712C121.163 171.092 121.163 171.526 121.411 171.906C121.72 172.503 122.463 172.828 123.206 172.883C123.948 172.991 125.063 172.991 126.486 171.797Z" fill="white"/>
<path d="M133.976 159.148C133.729 155.62 133.048 150.355 131.686 147.207C125.805 148.618 114.787 149.269 106.678 148.835C106.678 154.154 104.821 158.985 102.345 163.924C100.736 163.273 99.1262 162.296 97.7644 161.264C95.5979 156.38 94.1742 151.983 93.4314 146.827C93.3076 146.013 93.2457 145.144 93.3695 144.33C93.4933 143.353 93.8028 142.431 94.5456 141.725C95.4741 140.802 96.9597 140.422 97.9501 139.554C99.4358 138.251 99.5596 136.08 101.045 134.723C102.593 133.312 105.193 133.204 107.421 133.475C109.649 133.746 111.94 134.343 114.168 133.909C115.901 133.529 117.573 132.552 119.368 132.769C121.968 133.041 123.515 135.646 126.053 136.135C127.291 136.352 128.653 136.08 129.829 136.514C131.377 137.057 132.057 138.686 132.429 140.097C132.553 140.694 132.738 141.237 132.862 141.834C133.295 143.733 133.543 145.579 133.729 147.424C134.162 151.169 134.657 154.914 133.976 159.148Z" fill="#271F64"/>
<path d="M132.862 141.779C132.8 141.671 132.676 141.508 132.553 141.399C131.5 140.042 129.829 138.957 127.972 138.848C126.177 138.74 124.32 139.554 122.649 139.011C121.163 138.523 120.234 137.112 118.687 136.786C116.335 136.352 114.416 138.74 112.002 138.903C109.526 139.065 107.359 136.786 104.945 137.274C102.902 137.709 102.036 139.825 100.488 141.128C99.0644 142.322 97.0216 142.756 95.2265 143.408C94.6075 143.625 93.9885 143.95 93.4314 144.33C93.5552 143.353 93.8647 142.431 94.6075 141.725C95.536 140.802 97.0216 140.422 98.0121 139.554C99.4977 138.251 99.6215 136.08 101.107 134.723C102.655 133.312 105.254 133.204 107.483 133.475C109.711 133.746 112.002 134.343 114.23 133.909C115.963 133.529 117.635 132.552 119.43 132.769C122.03 133.041 123.577 135.646 126.115 136.135C127.353 136.352 128.715 136.08 129.891 136.514C131.438 137.057 132.119 138.686 132.491 140.097C132.553 140.639 132.738 141.182 132.862 141.779Z" fill="#45478C"/>
<path d="M92.9981 161.7C93.7409 159.529 97.1454 158.498 100.612 159.42C104.078 160.343 106.245 162.84 105.502 165.065C104.759 167.236 101.355 168.267 97.8882 167.345C94.4218 166.422 92.2553 163.925 92.9981 161.7Z" fill="#F69887"/>
<path d="M293.928 194.486C293.928 194.594 293.928 194.757 293.928 194.866C293.68 205.124 284.147 213.32 272.386 213.32C260.501 213.32 250.845 204.853 250.845 194.432C250.845 189.601 252.887 185.205 256.292 181.894C260.254 178.04 265.948 175.598 272.386 175.598C284.333 175.652 293.928 184.065 293.928 194.486Z" fill="white"/>
<path d="M292.69 200.836C289.718 208.109 281.795 213.373 272.448 213.373C260.563 213.373 250.907 204.906 250.907 194.485C250.907 191.229 251.835 188.244 253.445 185.584C252.64 187.592 252.207 189.709 252.207 191.934C252.207 202.355 261.863 210.822 273.748 210.822C281.919 210.822 289.099 206.752 292.69 200.836Z" fill="#CBD2D8"/>
<path d="M293.371 205.126C292.071 205.18 290.771 204.909 289.595 204.42C290.585 202.086 291.204 199.861 291.266 197.419C292.628 196.984 293.99 196.55 295.042 196.225C296.466 199.481 295.97 203.281 293.371 205.126Z" fill="#222F38"/>
<path d="M282.971 189.44C282.909 186.997 282.538 184.88 281.857 182.546C278.7 181.081 275.234 180.484 272.2 181.515C270.962 183.252 269.91 185.206 269.291 187.431C270.777 189.602 272.51 191.611 274.615 193.782C277.462 192.316 280.309 190.905 282.971 189.44Z" fill="#222F38"/>
<path d="M267.187 206.863C267.187 208.329 267.558 209.74 268.115 211.151C271.21 212.128 274.243 212.182 277.276 211.639C278.576 210.608 279.072 209.523 279.814 208.22C278.391 206.917 276.1 205.669 274.12 204.258C271.21 205.615 269.786 206.049 267.187 206.863Z" fill="#222F38"/>
<path d="M274.738 191.775C274.429 196.66 274.181 201.491 273.872 206.376" stroke="#222F38" stroke-width="0.360015" stroke-miterlimit="10"/>
<path d="M271.148 187.107C264.649 187.542 258.459 191.015 255.302 196.063" stroke="#222F38" stroke-width="0.360015" stroke-miterlimit="10"/>
<path d="M281.238 188.789C286.562 190.146 290.771 194.271 291.761 199.047" stroke="#222F38" stroke-width="0.360015" stroke-miterlimit="10"/>
<path d="M281.238 183.361C283.157 182.276 284.89 180.973 286.438 179.508" stroke="#222F38" stroke-width="0.360015" stroke-miterlimit="10"/>
<path d="M273.5 182.005C271.705 179.671 269.044 177.88 266.01 177.012" stroke="#222F38" stroke-width="0.360015" stroke-miterlimit="10"/>
<path d="M253.878 204.855C255.425 204.258 256.911 203.607 258.459 203.01C256.973 200.459 256.168 197.691 255.921 194.706C254.064 194.163 252.083 194.109 249.978 194.76C248.926 198.451 250.535 202.63 253.878 204.855Z" fill="#222F38"/>
<path d="M258.954 178.206C261.801 177.989 264.587 177.772 267.496 177.935C267.867 176.686 268.239 175.438 268.61 174.189C265.082 174.841 261.43 175.546 258.954 178.206Z" fill="#222F38"/>
<path d="M268.982 210.662C267.372 211.313 265.763 211.965 264.153 212.67" stroke="#222F38" stroke-width="0.360015" stroke-miterlimit="10"/>
<path d="M276.781 211.639C278.019 212.67 279.01 213.973 279.567 215.384" stroke="#222F38" stroke-width="0.360015" stroke-miterlimit="10"/>
<path d="M278.948 208.11C283.157 207.785 287.304 206.156 290.399 203.605" stroke="#222F38" stroke-width="0.360015" stroke-miterlimit="10"/>
<path d="M268.487 207.079C264.092 207.024 259.759 205.07 257.159 201.977" stroke="#222F38" stroke-width="0.360015" stroke-miterlimit="10"/>
<defs>
<linearGradient id="paint0_linear_5815_68679" x1="267.713" y1="123.299" x2="267.713" y2="278.747" gradientUnits="userSpaceOnUse">
<stop stop-color="#9FC3F9"/>
<stop offset="1" stop-color="#83DBE0"/>
</linearGradient>
<linearGradient id="paint1_linear_5815_68679" x1="55.2752" y1="107.533" x2="111.632" y2="107.533" gradientUnits="userSpaceOnUse">
<stop stop-color="#9FC3F9"/>
<stop offset="1" stop-color="#83DBE0"/>
</linearGradient>
<linearGradient id="paint2_linear_5815_68679" x1="100.707" y1="65.739" x2="100.707" y2="96.2254" gradientUnits="userSpaceOnUse">
<stop stop-color="#9FC3F9"/>
<stop offset="1" stop-color="#83DBE0"/>
</linearGradient>
<linearGradient id="paint3_linear_5815_68679" x1="95.4846" y1="67.4713" x2="95.4846" y2="93.5624" gradientUnits="userSpaceOnUse">
<stop stop-color="#9FC3F9"/>
<stop offset="1" stop-color="#83DBE0"/>
</linearGradient>
<linearGradient id="paint4_linear_5815_68679" x1="73.5547" y1="46.8444" x2="73.5547" y2="68.7273" gradientUnits="userSpaceOnUse">
<stop stop-color="#9FC3F9"/>
<stop offset="1" stop-color="#83DBE0"/>
</linearGradient>
<linearGradient id="paint5_linear_5815_68679" x1="69.5173" y1="44.3092" x2="69.5173" y2="68.343" gradientUnits="userSpaceOnUse">
<stop stop-color="#9FC3F9"/>
<stop offset="1" stop-color="#83DBE0"/>
</linearGradient>
<linearGradient id="paint6_linear_5815_68679" x1="78.034" y1="92.8742" x2="78.034" y2="103.322" gradientUnits="userSpaceOnUse">
<stop stop-color="#9FC3F9"/>
<stop offset="1" stop-color="#83DBE0"/>
</linearGradient>
<linearGradient id="paint7_linear_5815_68679" x1="110.107" y1="130.425" x2="110.107" y2="236.512" gradientUnits="userSpaceOnUse">
<stop stop-color="#9FC3F9"/>
<stop offset="1" stop-color="#83DBE0"/>
</linearGradient>
<linearGradient id="paint8_linear_5815_68679" x1="125.087" y1="155.914" x2="125.087" y2="183.127" gradientUnits="userSpaceOnUse">
<stop stop-color="#9FC3F9"/>
<stop offset="1" stop-color="#83DBE0"/>
</linearGradient>
<linearGradient id="paint9_linear_5815_68679" x1="104.532" y1="150.924" x2="104.532" y2="184.003" gradientUnits="userSpaceOnUse">
<stop stop-color="#9FC3F9"/>
<stop offset="1" stop-color="#83DBE0"/>
</linearGradient>
<linearGradient id="paint10_linear_5815_68679" x1="136.387" y1="169.683" x2="136.387" y2="194.558" gradientUnits="userSpaceOnUse">
<stop stop-color="#9FC3F9"/>
<stop offset="1" stop-color="#83DBE0"/>
</linearGradient>
<linearGradient id="paint11_linear_5815_68679" x1="140.006" y1="169.97" x2="140.006" y2="192.975" gradientUnits="userSpaceOnUse">
<stop stop-color="#9FC3F9"/>
<stop offset="1" stop-color="#83DBE0"/>
</linearGradient>
<linearGradient id="paint12_linear_5815_68679" x1="115.623" y1="201.186" x2="115.623" y2="205.625" gradientUnits="userSpaceOnUse">
<stop stop-color="#9FC3F9"/>
<stop offset="1" stop-color="#83DBE0"/>
</linearGradient>
<linearGradient id="paint13_linear_5815_68679" x1="86.379" y1="162.879" x2="86.3789" y2="188.035" gradientUnits="userSpaceOnUse">
<stop stop-color="#9FC3F9"/>
<stop offset="1" stop-color="#83DBE0"/>
</linearGradient>
<linearGradient id="paint14_linear_5815_68679" x1="88.5343" y1="171.208" x2="88.5343" y2="187.444" gradientUnits="userSpaceOnUse">
<stop stop-color="#9FC3F9"/>
<stop offset="1" stop-color="#83DBE0"/>
</linearGradient>
</defs>
</svg>
